<svg xmlns="http://www.w3.org/2000/svg" xmlns:xlink="http://www.w3.org/1999/xlink" width="40" zoomAndPan="magnify" viewBox="0 0 30 30.000001" height="40" preserveAspectRatio="xMidYMid meet" version="1.0"><defs><clipPath id="2713997351"><path d="M 0.484375 0 L 29.515625 0 L 29.515625 29.03125 L 0.484375 29.03125 Z M 0.484375 0 " clip-rule="nonzero"/></clipPath><clipPath id="904e9c8237"><path d="M 0.484375 0 L 29.515625 0 L 29.515625 29.03125 L 0.484375 29.03125 Z M 0.484375 0 " clip-rule="nonzero"/></clipPath></defs><path fill="#f8f2da" d="M 15 4.535156 C 14.34375 4.535156 13.695312 4.601562 13.054688 4.726562 C 12.410156 4.855469 11.785156 5.046875 11.179688 5.296875 C 10.574219 5.546875 10 5.855469 9.457031 6.21875 C 8.910156 6.582031 8.40625 6.996094 7.941406 7.460938 C 7.480469 7.921875 7.066406 8.425781 6.703125 8.972656 C 6.339844 9.515625 6.03125 10.089844 5.78125 10.695312 C 5.527344 11.300781 5.339844 11.925781 5.210938 12.570312 C 5.085938 13.210938 5.019531 13.859375 5.019531 14.515625 C 5.019531 15.171875 5.085938 15.820312 5.210938 16.464844 C 5.339844 17.105469 5.527344 17.730469 5.78125 18.335938 C 6.03125 18.941406 6.339844 19.515625 6.703125 20.0625 C 7.066406 20.605469 7.480469 21.109375 7.941406 21.574219 C 8.40625 22.035156 8.910156 22.449219 9.457031 22.8125 C 10 23.179688 10.574219 23.484375 11.179688 23.734375 C 11.785156 23.988281 12.410156 24.175781 13.054688 24.304688 C 13.695312 24.433594 14.34375 24.496094 15 24.496094 C 15.65625 24.496094 16.304688 24.433594 16.945312 24.304688 C 17.589844 24.175781 18.214844 23.988281 18.820312 23.734375 C 19.425781 23.484375 20 23.179688 20.542969 22.8125 C 21.089844 22.449219 21.59375 22.035156 22.058594 21.574219 C 22.519531 21.109375 22.933594 20.605469 23.296875 20.0625 C 23.660156 19.515625 23.96875 18.941406 24.21875 18.335938 C 24.472656 17.730469 24.660156 17.105469 24.789062 16.464844 C 24.914062 15.820312 24.980469 15.171875 24.980469 14.515625 C 24.980469 13.859375 24.914062 13.210938 24.785156 12.570312 C 24.65625 11.925781 24.46875 11.304688 24.21875 10.699219 C 23.964844 10.09375 23.660156 9.519531 23.292969 8.972656 C 22.929688 8.429688 22.515625 7.925781 22.054688 7.460938 C 21.589844 7 21.085938 6.585938 20.542969 6.222656 C 19.996094 5.859375 19.421875 5.550781 18.816406 5.300781 C 18.210938 5.046875 17.589844 4.859375 16.945312 4.730469 C 16.304688 4.601562 15.65625 4.535156 15 4.535156 Z M 18.363281 17.878906 C 18.1875 18.054688 17.972656 18.144531 17.722656 18.144531 C 17.472656 18.144531 17.257812 18.054688 17.082031 17.878906 L 14.359375 15.15625 C 14.179688 14.980469 14.09375 14.765625 14.09375 14.515625 L 14.09375 8.164062 C 14.09375 7.914062 14.179688 7.699219 14.359375 7.523438 C 14.535156 7.347656 14.75 7.257812 15 7.257812 C 15.25 7.257812 15.464844 7.347656 15.640625 7.523438 C 15.820312 7.699219 15.90625 7.914062 15.90625 8.164062 L 15.90625 14.140625 L 18.363281 16.597656 C 18.539062 16.773438 18.628906 16.988281 18.628906 17.238281 C 18.628906 17.488281 18.539062 17.703125 18.363281 17.878906 Z M 18.363281 17.878906 " fill-opacity="1" fill-rule="nonzero"/><g clip-path="url(#2713997351)"><path fill="#f8f2da" d="M 15 0 C 14.046875 0 13.101562 0.09375 12.167969 0.277344 C 11.234375 0.464844 10.324219 0.738281 9.445312 1.105469 C 8.5625 1.46875 7.726562 1.917969 6.933594 2.445312 C 6.144531 2.976562 5.410156 3.578125 4.734375 4.25 C 4.0625 4.925781 3.460938 5.660156 2.929688 6.453125 C 2.402344 7.242188 1.953125 8.082031 1.589844 8.960938 C 1.222656 9.839844 0.949219 10.75 0.761719 11.683594 C 0.578125 12.617188 0.484375 13.5625 0.484375 14.515625 C 0.484375 15.46875 0.578125 16.414062 0.761719 17.347656 C 0.949219 18.28125 1.222656 19.191406 1.589844 20.070312 C 1.953125 20.953125 2.402344 21.789062 2.929688 22.582031 C 3.460938 23.375 4.0625 24.105469 4.734375 24.78125 C 5.410156 25.453125 6.144531 26.054688 6.933594 26.585938 C 7.726562 27.117188 8.5625 27.5625 9.445312 27.925781 C 10.324219 28.292969 11.234375 28.566406 12.167969 28.753906 C 13.101562 28.9375 14.046875 29.03125 15 29.03125 C 15.953125 29.03125 16.898438 28.9375 17.832031 28.753906 C 18.765625 28.566406 19.675781 28.292969 20.554688 27.925781 C 21.4375 27.5625 22.273438 27.117188 23.066406 26.585938 C 23.855469 26.054688 24.589844 25.453125 25.265625 24.78125 C 25.9375 24.105469 26.539062 23.375 27.070312 22.582031 C 27.597656 21.789062 28.046875 20.953125 28.410156 20.070312 C 28.777344 19.191406 29.050781 18.28125 29.238281 17.347656 C 29.421875 16.414062 29.515625 15.46875 29.515625 14.515625 C 29.515625 13.5625 29.421875 12.621094 29.234375 11.683594 C 29.046875 10.75 28.773438 9.84375 28.40625 8.964844 C 28.042969 8.082031 27.59375 7.246094 27.066406 6.457031 C 26.535156 5.664062 25.933594 4.929688 25.257812 4.257812 C 24.585938 3.582031 23.851562 2.980469 23.0625 2.453125 C 22.269531 1.921875 21.433594 1.472656 20.550781 1.109375 C 19.671875 0.746094 18.765625 0.46875 17.832031 0.28125 C 16.894531 0.09375 15.953125 0 15 0 Z M 15 26.308594 C 14.226562 26.308594 13.457031 26.234375 12.699219 26.082031 C 11.941406 25.933594 11.203125 25.710938 10.488281 25.414062 C 9.769531 25.117188 9.089844 24.753906 8.449219 24.324219 C 7.804688 23.890625 7.207031 23.402344 6.660156 22.855469 C 6.113281 22.308594 5.625 21.710938 5.191406 21.070312 C 4.761719 20.425781 4.398438 19.746094 4.101562 19.03125 C 3.808594 18.3125 3.582031 17.578125 3.433594 16.816406 C 3.28125 16.058594 3.207031 15.289062 3.207031 14.515625 C 3.207031 13.742188 3.28125 12.976562 3.433594 12.214844 C 3.582031 11.457031 3.808594 10.71875 4.101562 10.003906 C 4.398438 9.289062 4.761719 8.609375 5.191406 7.964844 C 5.625 7.320312 6.113281 6.722656 6.660156 6.175781 C 7.207031 5.628906 7.804688 5.140625 8.449219 4.710938 C 9.089844 4.277344 9.769531 3.914062 10.488281 3.621094 C 11.203125 3.324219 11.941406 3.097656 12.699219 2.949219 C 13.457031 2.796875 14.226562 2.722656 15 2.722656 C 15.773438 2.722656 16.542969 2.796875 17.300781 2.949219 C 18.058594 3.097656 18.796875 3.324219 19.511719 3.621094 C 20.230469 3.914062 20.910156 4.277344 21.550781 4.710938 C 22.195312 5.140625 22.792969 5.628906 23.339844 6.175781 C 23.886719 6.722656 24.375 7.320312 24.808594 7.964844 C 25.238281 8.609375 25.601562 9.289062 25.898438 10.003906 C 26.191406 10.71875 26.417969 11.457031 26.566406 12.214844 C 26.71875 12.976562 26.792969 13.742188 26.792969 14.515625 C 26.792969 15.289062 26.71875 16.058594 26.566406 16.816406 C 26.414062 17.574219 26.191406 18.3125 25.894531 19.027344 C 25.597656 19.742188 25.234375 20.421875 24.800781 21.066406 C 24.371094 21.710938 23.882812 22.304688 23.335938 22.851562 C 22.789062 23.398438 22.191406 23.886719 21.550781 24.320312 C 20.90625 24.75 20.226562 25.113281 19.511719 25.410156 C 18.796875 25.707031 18.058594 25.929688 17.300781 26.082031 C 16.539062 26.234375 15.773438 26.308594 15 26.308594 Z M 15 26.308594 " fill-opacity="1" fill-rule="nonzero"/></g><path fill="#f8f2da" d="M 15 4.535156 C 14.34375 4.535156 13.695312 4.601562 13.054688 4.726562 C 12.410156 4.855469 11.785156 5.046875 11.179688 5.296875 C 10.574219 5.546875 10 5.855469 9.457031 6.21875 C 8.910156 6.582031 8.40625 6.996094 7.941406 7.460938 C 7.480469 7.921875 7.066406 8.425781 6.703125 8.972656 C 6.339844 9.515625 6.03125 10.089844 5.78125 10.695312 C 5.527344 11.300781 5.339844 11.925781 5.210938 12.570312 C 5.085938 13.210938 5.019531 13.859375 5.019531 14.515625 C 5.019531 15.171875 5.085938 15.820312 5.210938 16.464844 C 5.339844 17.105469 5.527344 17.730469 5.78125 18.335938 C 6.03125 18.941406 6.339844 19.515625 6.703125 20.0625 C 7.066406 20.605469 7.480469 21.109375 7.941406 21.574219 C 8.40625 22.035156 8.910156 22.449219 9.457031 22.8125 C 10 23.179688 10.574219 23.484375 11.179688 23.734375 C 11.785156 23.988281 12.410156 24.175781 13.054688 24.304688 C 13.695312 24.433594 14.34375 24.496094 15 24.496094 C 15.65625 24.496094 16.304688 24.433594 16.945312 24.304688 C 17.589844 24.175781 18.214844 23.988281 18.820312 23.734375 C 19.425781 23.484375 20 23.179688 20.542969 22.8125 C 21.089844 22.449219 21.59375 22.035156 22.058594 21.574219 C 22.519531 21.109375 22.933594 20.605469 23.296875 20.0625 C 23.660156 19.515625 23.96875 18.941406 24.21875 18.335938 C 24.472656 17.730469 24.660156 17.105469 24.789062 16.464844 C 24.914062 15.820312 24.980469 15.171875 24.980469 14.515625 C 24.980469 13.859375 24.914062 13.210938 24.785156 12.570312 C 24.65625 11.925781 24.46875 11.304688 24.21875 10.699219 C 23.964844 10.09375 23.660156 9.519531 23.292969 8.972656 C 22.929688 8.429688 22.515625 7.925781 22.054688 7.460938 C 21.589844 7 21.085938 6.585938 20.542969 6.222656 C 19.996094 5.859375 19.421875 5.550781 18.816406 5.300781 C 18.210938 5.046875 17.589844 4.859375 16.945312 4.730469 C 16.304688 4.601562 15.65625 4.535156 15 4.535156 Z M 18.363281 17.878906 C 18.1875 18.054688 17.972656 18.144531 17.722656 18.144531 C 17.472656 18.144531 17.257812 18.054688 17.082031 17.878906 L 14.359375 15.15625 C 14.179688 14.980469 14.09375 14.765625 14.09375 14.515625 L 14.09375 8.164062 C 14.09375 7.914062 14.179688 7.699219 14.359375 7.523438 C 14.535156 7.347656 14.75 7.257812 15 7.257812 C 15.25 7.257812 15.464844 7.347656 15.640625 7.523438 C 15.820312 7.699219 15.90625 7.914062 15.90625 8.164062 L 15.90625 14.140625 L 18.363281 16.597656 C 18.539062 16.773438 18.628906 16.988281 18.628906 17.238281 C 18.628906 17.488281 18.539062 17.703125 18.363281 17.878906 Z M 18.363281 17.878906 " fill-opacity="1" fill-rule="nonzero"/><g clip-path="url(#904e9c8237)"><path fill="#f8f2da" d="M 15 0 C 14.046875 0 13.101562 0.09375 12.167969 0.277344 C 11.234375 0.464844 10.324219 0.738281 9.445312 1.105469 C 8.5625 1.46875 7.726562 1.917969 6.933594 2.445312 C 6.144531 2.976562 5.410156 3.578125 4.734375 4.25 C 4.0625 4.925781 3.460938 5.660156 2.929688 6.453125 C 2.402344 7.242188 1.953125 8.082031 1.589844 8.960938 C 1.222656 9.839844 0.949219 10.75 0.761719 11.683594 C 0.578125 12.617188 0.484375 13.5625 0.484375 14.515625 C 0.484375 15.46875 0.578125 16.414062 0.761719 17.347656 C 0.949219 18.28125 1.222656 19.191406 1.589844 20.070312 C 1.953125 20.953125 2.402344 21.789062 2.929688 22.582031 C 3.460938 23.375 4.0625 24.105469 4.734375 24.78125 C 5.410156 25.453125 6.144531 26.054688 6.933594 26.585938 C 7.726562 27.117188 8.5625 27.5625 9.445312 27.925781 C 10.324219 28.292969 11.234375 28.566406 12.167969 28.753906 C 13.101562 28.9375 14.046875 29.03125 15 29.03125 C 15.953125 29.03125 16.898438 28.9375 17.832031 28.753906 C 18.765625 28.566406 19.675781 28.292969 20.554688 27.925781 C 21.4375 27.5625 22.273438 27.117188 23.066406 26.585938 C 23.855469 26.054688 24.589844 25.453125 25.265625 24.78125 C 25.9375 24.105469 26.539062 23.375 27.070312 22.582031 C 27.597656 21.789062 28.046875 20.953125 28.410156 20.070312 C 28.777344 19.191406 29.050781 18.28125 29.238281 17.347656 C 29.421875 16.414062 29.515625 15.46875 29.515625 14.515625 C 29.515625 13.5625 29.421875 12.621094 29.234375 11.683594 C 29.046875 10.75 28.773438 9.84375 28.40625 8.964844 C 28.042969 8.082031 27.59375 7.246094 27.066406 6.457031 C 26.535156 5.664062 25.933594 4.929688 25.257812 4.257812 C 24.585938 3.582031 23.851562 2.980469 23.0625 2.453125 C 22.269531 1.921875 21.433594 1.472656 20.550781 1.109375 C 19.671875 0.746094 18.765625 0.46875 17.832031 0.28125 C 16.894531 0.09375 15.953125 0 15 0 Z M 15 26.308594 C 14.226562 26.308594 13.457031 26.234375 12.699219 26.082031 C 11.941406 25.933594 11.203125 25.710938 10.488281 25.414062 C 9.769531 25.117188 9.089844 24.753906 8.449219 24.324219 C 7.804688 23.890625 7.207031 23.402344 6.660156 22.855469 C 6.113281 22.308594 5.625 21.710938 5.191406 21.070312 C 4.761719 20.425781 4.398438 19.746094 4.101562 19.03125 C 3.808594 18.3125 3.582031 17.578125 3.433594 16.816406 C 3.28125 16.058594 3.207031 15.289062 3.207031 14.515625 C 3.207031 13.742188 3.28125 12.976562 3.433594 12.214844 C 3.582031 11.457031 3.808594 10.71875 4.101562 10.003906 C 4.398438 9.289062 4.761719 8.609375 5.191406 7.964844 C 5.625 7.320312 6.113281 6.722656 6.660156 6.175781 C 7.207031 5.628906 7.804688 5.140625 8.449219 4.710938 C 9.089844 4.277344 9.769531 3.914062 10.488281 3.621094 C 11.203125 3.324219 11.941406 3.097656 12.699219 2.949219 C 13.457031 2.796875 14.226562 2.722656 15 2.722656 C 15.773438 2.722656 16.542969 2.796875 17.300781 2.949219 C 18.058594 3.097656 18.796875 3.324219 19.511719 3.621094 C 20.230469 3.914062 20.910156 4.277344 21.550781 4.710938 C 22.195312 5.140625 22.792969 5.628906 23.339844 6.175781 C 23.886719 6.722656 24.375 7.320312 24.808594 7.964844 C 25.238281 8.609375 25.601562 9.289062 25.898438 10.003906 C 26.191406 10.71875 26.417969 11.457031 26.566406 12.214844 C 26.71875 12.976562 26.792969 13.742188 26.792969 14.515625 C 26.792969 15.289062 26.71875 16.058594 26.566406 16.816406 C 26.414062 17.574219 26.191406 18.3125 25.894531 19.027344 C 25.597656 19.742188 25.234375 20.421875 24.800781 21.066406 C 24.371094 21.710938 23.882812 22.304688 23.335938 22.851562 C 22.789062 23.398438 22.191406 23.886719 21.550781 24.320312 C 20.90625 24.75 20.226562 25.113281 19.511719 25.410156 C 18.796875 25.707031 18.058594 25.929688 17.300781 26.082031 C 16.539062 26.234375 15.773438 26.308594 15 26.308594 Z M 15 26.308594 " fill-opacity="1" fill-rule="nonzero"/></g></svg>