<svg xmlns="http://www.w3.org/2000/svg" xmlns:xlink="http://www.w3.org/1999/xlink" width="227" zoomAndPan="magnify" viewBox="0 0 170.25 44.999999" height="60" preserveAspectRatio="xMidYMid meet" version="1.0"><defs><clipPath id="bf24bf2910"><path d="M 0 0.0976562 L 78 0.0976562 L 78 44 L 0 44 Z M 0 0.0976562 " clip-rule="nonzero"/></clipPath><clipPath id="8e446a7b34"><path d="M 78 32 L 101 32 L 101 44.898438 L 78 44.898438 Z M 78 32 " clip-rule="nonzero"/></clipPath><clipPath id="7473ff0ff9"><path d="M 101 31 L 111 31 L 111 44.898438 L 101 44.898438 Z M 101 31 " clip-rule="nonzero"/></clipPath><clipPath id="d182324c9b"><path d="M 0 0.0976562 L 78 0.0976562 L 78 44 L 0 44 Z M 0 0.0976562 " clip-rule="nonzero"/></clipPath><clipPath id="7bdfac1790"><path d="M 78 32 L 101 32 L 101 44.898438 L 78 44.898438 Z M 78 32 " clip-rule="nonzero"/></clipPath><clipPath id="85d4b06b72"><path d="M 101 31 L 111 31 L 111 44.898438 L 101 44.898438 Z M 101 31 " clip-rule="nonzero"/></clipPath></defs><g clip-path="url(#bf24bf2910)"><path fill="#000000" d="M 77.351562 37.222656 C 77.347656 37.125 77.347656 37.03125 77.355469 36.933594 L 74.984375 37.195312 L 47.085938 29.347656 L 43.898438 25.796875 L 32.480469 21.28125 L 10.574219 0.0976562 L 0.847656 0.160156 L 12.242188 25.894531 L 0.613281 23.402344 L 1.839844 25.066406 L 2.261719 25.636719 L 27.800781 33.464844 L 26.339844 34.582031 L 7.660156 28.855469 L 3.0625 33.863281 L 54.140625 43.113281 L 77.628906 42.316406 C 77.582031 42.121094 77.550781 41.917969 77.539062 41.710938 Z M 77.351562 37.222656 " fill-opacity="1" fill-rule="nonzero"/></g><path fill="#000000" d="M 142.105469 18.40625 L 118.148438 21.398438 C 117.511719 21.476562 116.875 21.539062 116.234375 21.582031 L 49.296875 26.050781 L 45.546875 23.386719 L 44.226562 23.828125 L 45.484375 25.226562 L 48.214844 28.265625 L 76.109375 36.113281 L 77.582031 35.949219 C 77.96875 35.03125 78.800781 34.335938 79.839844 34.167969 L 100.394531 30.824219 L 108.414062 30.484375 C 108.457031 30.484375 108.5 30.484375 108.539062 30.484375 C 110.132812 30.484375 111.433594 31.734375 111.5 33.328125 L 111.828125 41.15625 L 138.84375 40.238281 C 138.84375 40.238281 156.25 38.703125 161.449219 36.523438 C 164.6875 35.167969 166.597656 32.96875 167.574219 31.507812 C 168.140625 30.664062 168.035156 29.53125 167.3125 28.8125 C 158.410156 17.074219 142.105469 18.40625 142.105469 18.40625 Z M 144.925781 24.90625 C 144.660156 24.933594 144.410156 24.765625 144.335938 24.507812 L 143.875 22.984375 C 143.769531 22.640625 144.007812 22.285156 144.363281 22.253906 L 152.21875 21.558594 C 152.550781 21.527344 152.886719 21.554688 153.207031 21.652344 C 154.871094 22.140625 156.59375 22.800781 158.277344 23.691406 Z M 144.925781 24.90625 " fill-opacity="1" fill-rule="nonzero"/><g clip-path="url(#8e446a7b34)"><path fill="#000000" d="M 99.984375 32.113281 L 80.03125 35.359375 C 79.152344 35.503906 78.519531 36.28125 78.558594 37.171875 L 78.746094 41.660156 C 78.78125 42.550781 79.480469 43.273438 80.367188 43.34375 L 100.449219 44.894531 Z M 99.984375 32.113281 " fill-opacity="1" fill-rule="nonzero"/></g><g clip-path="url(#7473ff0ff9)"><path fill="#000000" d="M 108.464844 31.691406 L 101.46875 31.988281 L 101.9375 44.90625 L 109.007812 44.609375 C 109.976562 44.566406 110.730469 43.746094 110.6875 42.773438 L 110.296875 33.378906 C 110.253906 32.40625 109.433594 31.652344 108.464844 31.691406 Z M 108.464844 31.691406 " fill-opacity="1" fill-rule="nonzero"/></g><g clip-path="url(#d182324c9b)"><path fill="#000000" d="M 77.351562 37.222656 C 77.347656 37.125 77.347656 37.03125 77.355469 36.933594 L 74.984375 37.195312 L 47.085938 29.347656 L 43.898438 25.796875 L 32.480469 21.28125 L 10.574219 0.0976562 L 0.847656 0.160156 L 12.242188 25.894531 L 0.613281 23.402344 L 1.839844 25.066406 L 2.261719 25.636719 L 27.800781 33.464844 L 26.339844 34.582031 L 7.660156 28.855469 L 3.0625 33.863281 L 54.140625 43.113281 L 77.628906 42.316406 C 77.582031 42.121094 77.550781 41.917969 77.539062 41.710938 Z M 77.351562 37.222656 " fill-opacity="1" fill-rule="nonzero"/></g><path fill="#000000" d="M 142.105469 18.40625 L 118.148438 21.398438 C 117.511719 21.476562 116.875 21.539062 116.234375 21.582031 L 49.296875 26.050781 L 45.546875 23.386719 L 44.226562 23.828125 L 45.484375 25.226562 L 48.214844 28.265625 L 76.109375 36.113281 L 77.582031 35.949219 C 77.96875 35.03125 78.800781 34.335938 79.839844 34.167969 L 100.394531 30.824219 L 108.414062 30.484375 C 108.457031 30.484375 108.5 30.484375 108.539062 30.484375 C 110.132812 30.484375 111.433594 31.734375 111.5 33.328125 L 111.828125 41.15625 L 138.84375 40.238281 C 138.84375 40.238281 156.25 38.703125 161.449219 36.523438 C 164.6875 35.167969 166.597656 32.96875 167.574219 31.507812 C 168.140625 30.664062 168.035156 29.53125 167.3125 28.8125 C 158.410156 17.074219 142.105469 18.40625 142.105469 18.40625 Z M 144.925781 24.90625 C 144.660156 24.933594 144.410156 24.765625 144.335938 24.507812 L 143.875 22.984375 C 143.769531 22.640625 144.007812 22.285156 144.363281 22.253906 L 152.21875 21.558594 C 152.550781 21.527344 152.886719 21.554688 153.207031 21.652344 C 154.871094 22.140625 156.59375 22.800781 158.277344 23.691406 Z M 144.925781 24.90625 " fill-opacity="1" fill-rule="nonzero"/><g clip-path="url(#7bdfac1790)"><path fill="#000000" d="M 99.984375 32.113281 L 80.03125 35.359375 C 79.152344 35.503906 78.519531 36.28125 78.558594 37.171875 L 78.746094 41.660156 C 78.78125 42.550781 79.480469 43.273438 80.367188 43.34375 L 100.449219 44.894531 Z M 99.984375 32.113281 " fill-opacity="1" fill-rule="nonzero"/></g><g clip-path="url(#85d4b06b72)"><path fill="#000000" d="M 108.464844 31.691406 L 101.46875 31.988281 L 101.9375 44.90625 L 109.007812 44.609375 C 109.976562 44.566406 110.730469 43.746094 110.6875 42.773438 L 110.296875 33.378906 C 110.253906 32.40625 109.433594 31.652344 108.464844 31.691406 Z M 108.464844 31.691406 " fill-opacity="1" fill-rule="nonzero"/></g></svg>