<svg xmlns="http://www.w3.org/2000/svg" xmlns:xlink="http://www.w3.org/1999/xlink" width="200" zoomAndPan="magnify" viewBox="0 0 150 67.499998" height="90" preserveAspectRatio="xMidYMid meet" version="1.0"><defs><g/><clipPath id="dd082066db"><path d="M 5 9 L 149.449219 9 L 149.449219 59 L 5 59 Z M 5 9 " clip-rule="nonzero"/></clipPath><clipPath id="61cb18a27f"><rect x="0" width="145" y="0" height="50"/></clipPath></defs><g clip-path="url(#dd082066db)"><g transform="matrix(1, 0, 0, 1, 5, 9)"><g clip-path="url(#61cb18a27f)"><g fill="#fffdef" fill-opacity="1"><g transform="translate(4.848892, 25.367442)"><g><path d="M 0.75 0 L 0.75 -19.328125 L 15.9375 -19.328125 C 17.40625 -19.328125 18.691406 -19.019531 19.796875 -18.40625 C 20.898438 -17.789062 21.765625 -16.929688 22.390625 -15.828125 C 23.015625 -14.734375 23.328125 -13.46875 23.328125 -12.03125 C 23.328125 -10.601562 23.015625 -9.335938 22.390625 -8.234375 C 21.765625 -7.140625 20.898438 -6.28125 19.796875 -5.65625 C 18.691406 -5.03125 17.40625 -4.71875 15.9375 -4.71875 L 7.234375 -4.71875 L 7.234375 0 Z M 7.234375 -10.1875 L 14.546875 -10.1875 C 14.878906 -10.1875 15.222656 -10.210938 15.578125 -10.265625 C 15.941406 -10.328125 16.25 -10.484375 16.5 -10.734375 C 16.75 -10.992188 16.875 -11.425781 16.875 -12.03125 C 16.875 -12.644531 16.75 -13.078125 16.5 -13.328125 C 16.25 -13.585938 15.941406 -13.738281 15.578125 -13.78125 C 15.222656 -13.832031 14.878906 -13.859375 14.546875 -13.859375 L 7.234375 -13.859375 Z M 7.234375 -10.1875 "/></g></g></g><g fill="#fffdef" fill-opacity="1"><g transform="translate(30.609401, 25.367442)"><g><path d="M 0.75 0 L 0.75 -19.328125 L 7.234375 -19.328125 L 7.234375 -5.46875 L 20.625 -5.46875 L 20.625 0 Z M 0.75 0 "/></g></g></g><g fill="#fffdef" fill-opacity="1"><g transform="translate(53.664105, 25.367442)"><g><path d="M 0.46875 0 L 9.109375 -19.328125 L 18.53125 -19.328125 L 27.140625 0 L 20.015625 0 L 18.4375 -3.671875 L 9.1875 -3.671875 L 7.59375 0 Z M 11.015625 -8.25 L 16.59375 -8.25 L 13.796875 -14.71875 Z M 11.015625 -8.25 "/></g></g></g><g fill="#fffdef" fill-opacity="1"><g transform="translate(83.234822, 25.367442)"><g><path d="M 9.109375 0 L 9.109375 -13.859375 L 0.46875 -13.859375 L 0.46875 -19.328125 L 24.21875 -19.328125 L 24.21875 -13.859375 L 15.59375 -13.859375 L 15.59375 0 Z M 9.109375 0 "/></g></g></g><g fill="#fffdef" fill-opacity="1"><g transform="translate(109.87885, 25.367442)"><g><path d="M 12.625 0.28125 C 8.363281 0.28125 5.269531 -0.550781 3.34375 -2.21875 C 1.425781 -3.882812 0.46875 -6.375 0.46875 -9.6875 C 0.46875 -12.988281 1.425781 -15.46875 3.34375 -17.125 C 5.269531 -18.78125 8.363281 -19.609375 12.625 -19.609375 C 16.851562 -19.609375 19.929688 -18.78125 21.859375 -17.125 C 23.796875 -15.46875 24.765625 -12.988281 24.765625 -9.6875 C 24.765625 -6.394531 23.796875 -3.910156 21.859375 -2.234375 C 19.929688 -0.554688 16.851562 0.28125 12.625 0.28125 Z M 12.625 -5.1875 C 14.125 -5.1875 15.285156 -5.378906 16.109375 -5.765625 C 16.929688 -6.148438 17.503906 -6.675781 17.828125 -7.34375 C 18.148438 -8.019531 18.3125 -8.800781 18.3125 -9.6875 C 18.3125 -10.570312 18.148438 -11.34375 17.828125 -12 C 17.515625 -12.664062 16.945312 -13.1875 16.125 -13.5625 C 15.3125 -13.945312 14.144531 -14.140625 12.625 -14.140625 C 11.113281 -14.140625 9.945312 -13.953125 9.125 -13.578125 C 8.300781 -13.210938 7.734375 -12.691406 7.421875 -12.015625 C 7.109375 -11.347656 6.953125 -10.570312 6.953125 -9.6875 C 6.953125 -8.800781 7.109375 -8.019531 7.421875 -7.34375 C 7.734375 -6.664062 8.300781 -6.132812 9.125 -5.75 C 9.945312 -5.375 11.113281 -5.1875 12.625 -5.1875 Z M 12.625 -5.1875 "/></g></g></g><g fill="#000000" fill-opacity="1"><g transform="translate(0.659558, 44.156045)"><g><path d="M 3.5625 -10.859375 L 3.5625 -1.796875 L 8.4375 -1.796875 L 8.4375 0 L 1.40625 0 L 1.40625 -10.859375 Z M 3.5625 -10.859375 "/></g></g></g><g fill="#000000" fill-opacity="1"><g transform="translate(16.759638, 44.156045)"><g><path d="M 5.921875 0.15625 C 4.921875 0.15625 4.039062 -0.046875 3.28125 -0.453125 C 2.519531 -0.859375 1.925781 -1.476562 1.5 -2.3125 C 1.070312 -3.144531 0.859375 -4.1875 0.859375 -5.4375 C 0.859375 -6.675781 1.070312 -7.710938 1.5 -8.546875 C 1.925781 -9.378906 2.519531 -10 3.28125 -10.40625 C 4.039062 -10.8125 4.921875 -11.015625 5.921875 -11.015625 C 6.921875 -11.015625 7.796875 -10.8125 8.546875 -10.40625 C 9.304688 -10.007812 9.898438 -9.390625 10.328125 -8.546875 C 10.753906 -7.710938 10.96875 -6.675781 10.96875 -5.4375 C 10.96875 -4.1875 10.753906 -3.144531 10.328125 -2.3125 C 9.898438 -1.476562 9.304688 -0.859375 8.546875 -0.453125 C 7.796875 -0.046875 6.921875 0.15625 5.921875 0.15625 Z M 5.921875 -1.703125 C 6.847656 -1.703125 7.550781 -2 8.03125 -2.59375 C 8.519531 -3.1875 8.765625 -4.132812 8.765625 -5.4375 C 8.765625 -6.726562 8.519531 -7.671875 8.03125 -8.265625 C 7.550781 -8.859375 6.847656 -9.15625 5.921875 -9.15625 C 4.992188 -9.15625 4.285156 -8.859375 3.796875 -8.265625 C 3.304688 -7.671875 3.0625 -6.726562 3.0625 -5.4375 C 3.0625 -4.132812 3.304688 -3.1875 3.796875 -2.59375 C 4.285156 -2 4.992188 -1.703125 5.921875 -1.703125 Z M 5.921875 -1.703125 "/></g></g></g><g fill="#000000" fill-opacity="1"><g transform="translate(35.896849, 44.156045)"><g><path d="M 5.28125 0.15625 C 4.375 0.15625 3.585938 -0.046875 2.921875 -0.453125 C 2.265625 -0.867188 1.753906 -1.492188 1.390625 -2.328125 C 1.035156 -3.171875 0.859375 -4.207031 0.859375 -5.4375 C 0.859375 -6.675781 1.070312 -7.710938 1.5 -8.546875 C 1.925781 -9.378906 2.519531 -10 3.28125 -10.40625 C 4.050781 -10.8125 4.941406 -11.015625 5.953125 -11.015625 C 6.992188 -11.015625 7.878906 -10.820312 8.609375 -10.4375 C 9.347656 -10.050781 9.867188 -9.476562 10.171875 -8.71875 L 8.59375 -7.765625 L 8.40625 -7.765625 C 8.1875 -8.253906 7.875 -8.609375 7.46875 -8.828125 C 7.0625 -9.054688 6.554688 -9.171875 5.953125 -9.171875 C 5.023438 -9.171875 4.3125 -8.875 3.8125 -8.28125 C 3.3125 -7.6875 3.0625 -6.738281 3.0625 -5.4375 C 3.0625 -4.125 3.289062 -3.164062 3.75 -2.5625 C 4.21875 -1.96875 4.90625 -1.671875 5.8125 -1.671875 C 6.601562 -1.671875 7.179688 -1.847656 7.546875 -2.203125 C 7.921875 -2.554688 8.109375 -3.082031 8.109375 -3.78125 L 8.109375 -4.25 L 5.53125 -4.25 L 5.53125 -6 L 10.234375 -6 L 10.234375 0 L 8.1875 0 L 8.1875 -1.453125 L 8.03125 -1.484375 C 7.8125 -0.960938 7.472656 -0.554688 7.015625 -0.265625 C 6.566406 0.015625 5.988281 0.15625 5.28125 0.15625 Z M 5.28125 0.15625 "/></g></g></g><g fill="#000000" fill-opacity="1"><g transform="translate(54.52911, 44.156045)"><g><path d="M 3.5625 0 L 1.40625 0 L 1.40625 -10.859375 L 3.5625 -10.859375 Z M 3.5625 0 "/></g></g></g><g fill="#000000" fill-opacity="1"><g transform="translate(66.812366, 44.156045)"><g><path d="M 4.8125 0.15625 C 4.0625 0.15625 3.390625 0.0625 2.796875 -0.125 C 2.210938 -0.3125 1.722656 -0.554688 1.328125 -0.859375 C 0.941406 -1.160156 0.644531 -1.488281 0.4375 -1.84375 L 1.625 -3.296875 L 1.8125 -3.296875 C 2.132812 -2.804688 2.546875 -2.414062 3.046875 -2.125 C 3.554688 -1.84375 4.144531 -1.703125 4.8125 -1.703125 C 5.382812 -1.703125 5.816406 -1.820312 6.109375 -2.0625 C 6.398438 -2.3125 6.546875 -2.644531 6.546875 -3.0625 C 6.546875 -3.320312 6.5 -3.535156 6.40625 -3.703125 C 6.3125 -3.878906 6.15625 -4.03125 5.9375 -4.15625 C 5.726562 -4.28125 5.4375 -4.390625 5.0625 -4.484375 L 3.65625 -4.796875 C 2.6875 -5.023438 1.960938 -5.394531 1.484375 -5.90625 C 1.003906 -6.425781 0.765625 -7.097656 0.765625 -7.921875 C 0.765625 -8.535156 0.914062 -9.078125 1.21875 -9.546875 C 1.53125 -10.015625 1.976562 -10.375 2.5625 -10.625 C 3.15625 -10.882812 3.859375 -11.015625 4.671875 -11.015625 C 5.515625 -11.015625 6.234375 -10.90625 6.828125 -10.6875 C 7.421875 -10.46875 7.925781 -10.128906 8.34375 -9.671875 L 7.28125 -8.21875 L 7.09375 -8.21875 C 6.78125 -8.539062 6.425781 -8.78125 6.03125 -8.9375 C 5.632812 -9.101562 5.179688 -9.1875 4.671875 -9.1875 C 4.085938 -9.1875 3.640625 -9.082031 3.328125 -8.875 C 3.023438 -8.664062 2.875 -8.378906 2.875 -8.015625 C 2.875 -7.671875 2.976562 -7.394531 3.1875 -7.1875 C 3.40625 -6.988281 3.78125 -6.832031 4.3125 -6.71875 L 5.734375 -6.421875 C 6.785156 -6.203125 7.550781 -5.820312 8.03125 -5.28125 C 8.507812 -4.75 8.75 -4.054688 8.75 -3.203125 C 8.75 -2.523438 8.601562 -1.929688 8.3125 -1.421875 C 8.019531 -0.921875 7.578125 -0.53125 6.984375 -0.25 C 6.390625 0.0195312 5.664062 0.15625 4.8125 0.15625 Z M 4.8125 0.15625 "/></g></g></g><g fill="#000000" fill-opacity="1"><g transform="translate(83.447098, 44.156045)"><g><path d="M 8.703125 -10.859375 L 8.703125 -9.0625 L 5.578125 -9.0625 L 5.578125 0 L 3.4375 0 L 3.4375 -9.0625 L 0.296875 -9.0625 L 0.296875 -10.859375 Z M 8.703125 -10.859375 "/></g></g></g><g fill="#000000" fill-opacity="1"><g transform="translate(99.755099, 44.156045)"><g><path d="M 3.5625 0 L 1.40625 0 L 1.40625 -10.859375 L 3.5625 -10.859375 Z M 3.5625 0 "/></g></g></g><g fill="#000000" fill-opacity="1"><g transform="translate(112.038355, 44.156045)"><g><path d="M 5.9375 0.15625 C 4.9375 0.15625 4.050781 -0.0507812 3.28125 -0.46875 C 2.519531 -0.882812 1.925781 -1.507812 1.5 -2.34375 C 1.070312 -3.175781 0.859375 -4.207031 0.859375 -5.4375 C 0.859375 -6.65625 1.070312 -7.679688 1.5 -8.515625 C 1.925781 -9.347656 2.519531 -9.972656 3.28125 -10.390625 C 4.050781 -10.804688 4.9375 -11.015625 5.9375 -11.015625 C 6.976562 -11.015625 7.863281 -10.8125 8.59375 -10.40625 C 9.332031 -10 9.859375 -9.375 10.171875 -8.53125 L 8.59375 -7.578125 L 8.40625 -7.59375 C 8.175781 -8.15625 7.859375 -8.554688 7.453125 -8.796875 C 7.054688 -9.046875 6.550781 -9.171875 5.9375 -9.171875 C 5.03125 -9.171875 4.320312 -8.867188 3.8125 -8.265625 C 3.3125 -7.671875 3.0625 -6.726562 3.0625 -5.4375 C 3.0625 -4.144531 3.3125 -3.195312 3.8125 -2.59375 C 4.320312 -2 5.03125 -1.703125 5.9375 -1.703125 C 7.351562 -1.703125 8.21875 -2.390625 8.53125 -3.765625 L 8.71875 -3.765625 L 10.296875 -2.9375 C 10.003906 -1.90625 9.5 -1.128906 8.78125 -0.609375 C 8.0625 -0.0976562 7.113281 0.15625 5.9375 0.15625 Z M 5.9375 0.15625 "/></g></g></g><g fill="#000000" fill-opacity="1"><g transform="translate(129.994867, 44.156045)"><g><path d="M 4.8125 0.15625 C 4.0625 0.15625 3.390625 0.0625 2.796875 -0.125 C 2.210938 -0.3125 1.722656 -0.554688 1.328125 -0.859375 C 0.941406 -1.160156 0.644531 -1.488281 0.4375 -1.84375 L 1.625 -3.296875 L 1.8125 -3.296875 C 2.132812 -2.804688 2.546875 -2.414062 3.046875 -2.125 C 3.554688 -1.84375 4.144531 -1.703125 4.8125 -1.703125 C 5.382812 -1.703125 5.816406 -1.820312 6.109375 -2.0625 C 6.398438 -2.3125 6.546875 -2.644531 6.546875 -3.0625 C 6.546875 -3.320312 6.5 -3.535156 6.40625 -3.703125 C 6.3125 -3.878906 6.15625 -4.03125 5.9375 -4.15625 C 5.726562 -4.28125 5.4375 -4.390625 5.0625 -4.484375 L 3.65625 -4.796875 C 2.6875 -5.023438 1.960938 -5.394531 1.484375 -5.90625 C 1.003906 -6.425781 0.765625 -7.097656 0.765625 -7.921875 C 0.765625 -8.535156 0.914062 -9.078125 1.21875 -9.546875 C 1.53125 -10.015625 1.976562 -10.375 2.5625 -10.625 C 3.15625 -10.882812 3.859375 -11.015625 4.671875 -11.015625 C 5.515625 -11.015625 6.234375 -10.90625 6.828125 -10.6875 C 7.421875 -10.46875 7.925781 -10.128906 8.34375 -9.671875 L 7.28125 -8.21875 L 7.09375 -8.21875 C 6.78125 -8.539062 6.425781 -8.78125 6.03125 -8.9375 C 5.632812 -9.101562 5.179688 -9.1875 4.671875 -9.1875 C 4.085938 -9.1875 3.640625 -9.082031 3.328125 -8.875 C 3.023438 -8.664062 2.875 -8.378906 2.875 -8.015625 C 2.875 -7.671875 2.976562 -7.394531 3.1875 -7.1875 C 3.40625 -6.988281 3.78125 -6.832031 4.3125 -6.71875 L 5.734375 -6.421875 C 6.785156 -6.203125 7.550781 -5.820312 8.03125 -5.28125 C 8.507812 -4.75 8.75 -4.054688 8.75 -3.203125 C 8.75 -2.523438 8.601562 -1.929688 8.3125 -1.421875 C 8.019531 -0.921875 7.578125 -0.53125 6.984375 -0.25 C 6.390625 0.0195312 5.664062 0.15625 4.8125 0.15625 Z M 4.8125 0.15625 "/></g></g></g></g></g></g></svg>