<svg xmlns="http://www.w3.org/2000/svg" xmlns:xlink="http://www.w3.org/1999/xlink" width="136" zoomAndPan="magnify" viewBox="0 0 102 65.249999" height="87" preserveAspectRatio="xMidYMid meet" version="1.0"><defs><g/></defs><g fill="#ac4740" fill-opacity="1"><g transform="translate(6.876247, 31.684053)"><g><path d="M 0.5 0 L 0.5 -13.09375 L 10.796875 -13.09375 C 11.785156 -13.09375 12.65625 -12.882812 13.40625 -12.46875 C 14.15625 -12.050781 14.738281 -11.46875 15.15625 -10.71875 C 15.582031 -9.976562 15.796875 -9.125 15.796875 -8.15625 C 15.796875 -7.1875 15.582031 -6.328125 15.15625 -5.578125 C 14.738281 -4.835938 14.15625 -4.253906 13.40625 -3.828125 C 12.65625 -3.410156 11.785156 -3.203125 10.796875 -3.203125 L 4.90625 -3.203125 L 4.90625 0 Z M 4.90625 -6.90625 L 9.859375 -6.90625 C 10.078125 -6.90625 10.304688 -6.921875 10.546875 -6.953125 C 10.796875 -6.992188 11.003906 -7.097656 11.171875 -7.265625 C 11.335938 -7.441406 11.421875 -7.738281 11.421875 -8.15625 C 11.421875 -8.5625 11.335938 -8.851562 11.171875 -9.03125 C 11.003906 -9.207031 10.796875 -9.3125 10.546875 -9.34375 C 10.304688 -9.375 10.078125 -9.390625 9.859375 -9.390625 L 4.90625 -9.390625 Z M 4.90625 -6.90625 "/></g></g></g><g fill="#ac4740" fill-opacity="1"><g transform="translate(24.322617, 31.684053)"><g><path d="M 0.5 0 L 0.5 -13.09375 L 4.90625 -13.09375 L 4.90625 -3.703125 L 13.96875 -3.703125 L 13.96875 0 Z M 0.5 0 "/></g></g></g><g fill="#ac4740" fill-opacity="1"><g transform="translate(39.936474, 31.684053)"><g><path d="M 0.3125 0 L 6.171875 -13.09375 L 12.546875 -13.09375 L 18.390625 0 L 13.5625 0 L 12.5 -2.484375 L 6.234375 -2.484375 L 5.140625 0 Z M 7.46875 -5.59375 L 11.234375 -5.59375 L 9.359375 -9.96875 Z M 7.46875 -5.59375 "/></g></g></g><g fill="#ac4740" fill-opacity="1"><g transform="translate(59.963317, 31.684053)"><g><path d="M 6.171875 0 L 6.171875 -9.390625 L 0.3125 -9.390625 L 0.3125 -13.09375 L 16.40625 -13.09375 L 16.40625 -9.390625 L 10.5625 -9.390625 L 10.5625 0 Z M 6.171875 0 "/></g></g></g><g fill="#ac4740" fill-opacity="1"><g transform="translate(78.008053, 31.684053)"><g><path d="M 8.546875 0.1875 C 5.671875 0.1875 3.578125 -0.375 2.265625 -1.5 C 0.960938 -2.632812 0.3125 -4.320312 0.3125 -6.5625 C 0.3125 -8.789062 0.960938 -10.46875 2.265625 -11.59375 C 3.578125 -12.71875 5.671875 -13.28125 8.546875 -13.28125 C 11.410156 -13.28125 13.5 -12.71875 14.8125 -11.59375 C 16.125 -10.46875 16.78125 -8.789062 16.78125 -6.5625 C 16.78125 -4.332031 16.125 -2.648438 14.8125 -1.515625 C 13.5 -0.378906 11.410156 0.1875 8.546875 0.1875 Z M 8.546875 -3.515625 C 9.566406 -3.515625 10.351562 -3.644531 10.90625 -3.90625 C 11.46875 -4.164062 11.859375 -4.523438 12.078125 -4.984375 C 12.296875 -5.441406 12.40625 -5.96875 12.40625 -6.5625 C 12.40625 -7.164062 12.296875 -7.691406 12.078125 -8.140625 C 11.867188 -8.585938 11.484375 -8.9375 10.921875 -9.1875 C 10.367188 -9.445312 9.578125 -9.578125 8.546875 -9.578125 C 7.523438 -9.578125 6.734375 -9.453125 6.171875 -9.203125 C 5.617188 -8.953125 5.238281 -8.597656 5.03125 -8.140625 C 4.820312 -7.691406 4.71875 -7.164062 4.71875 -6.5625 C 4.71875 -5.96875 4.820312 -5.4375 5.03125 -4.96875 C 5.238281 -4.507812 5.617188 -4.148438 6.171875 -3.890625 C 6.734375 -3.640625 7.523438 -3.515625 8.546875 -3.515625 Z M 8.546875 -3.515625 "/></g></g></g><g fill="#000000" fill-opacity="1"><g transform="translate(4.03901, 44.408683)"><g><path d="M 2.40625 -7.359375 L 2.40625 -1.21875 L 5.71875 -1.21875 L 5.71875 0 L 0.953125 0 L 0.953125 -7.359375 Z M 2.40625 -7.359375 "/></g></g></g><g fill="#000000" fill-opacity="1"><g transform="translate(14.94283, 44.408683)"><g><path d="M 4.015625 0.109375 C 3.335938 0.109375 2.738281 -0.0234375 2.21875 -0.296875 C 1.707031 -0.578125 1.304688 -1 1.015625 -1.5625 C 0.722656 -2.132812 0.578125 -2.84375 0.578125 -3.6875 C 0.578125 -4.519531 0.722656 -5.21875 1.015625 -5.78125 C 1.304688 -6.351562 1.707031 -6.773438 2.21875 -7.046875 C 2.738281 -7.328125 3.335938 -7.46875 4.015625 -7.46875 C 4.691406 -7.46875 5.285156 -7.328125 5.796875 -7.046875 C 6.304688 -6.773438 6.707031 -6.351562 7 -5.78125 C 7.289062 -5.21875 7.4375 -4.519531 7.4375 -3.6875 C 7.4375 -2.84375 7.289062 -2.132812 7 -1.5625 C 6.707031 -1 6.304688 -0.578125 5.796875 -0.296875 C 5.285156 -0.0234375 4.691406 0.109375 4.015625 0.109375 Z M 4.015625 -1.15625 C 4.640625 -1.15625 5.113281 -1.351562 5.4375 -1.75 C 5.769531 -2.15625 5.9375 -2.800781 5.9375 -3.6875 C 5.9375 -4.5625 5.769531 -5.195312 5.4375 -5.59375 C 5.113281 -6 4.640625 -6.203125 4.015625 -6.203125 C 3.390625 -6.203125 2.910156 -6 2.578125 -5.59375 C 2.242188 -5.195312 2.078125 -4.5625 2.078125 -3.6875 C 2.078125 -2.800781 2.242188 -2.15625 2.578125 -1.75 C 2.910156 -1.351562 3.390625 -1.15625 4.015625 -1.15625 Z M 4.015625 -1.15625 "/></g></g></g><g fill="#000000" fill-opacity="1"><g transform="translate(27.903554, 44.408683)"><g><path d="M 3.578125 0.109375 C 2.960938 0.109375 2.429688 -0.03125 1.984375 -0.3125 C 1.535156 -0.59375 1.1875 -1.015625 0.9375 -1.578125 C 0.695312 -2.148438 0.578125 -2.851562 0.578125 -3.6875 C 0.578125 -4.519531 0.722656 -5.21875 1.015625 -5.78125 C 1.304688 -6.351562 1.710938 -6.773438 2.234375 -7.046875 C 2.753906 -7.328125 3.351562 -7.46875 4.03125 -7.46875 C 4.738281 -7.46875 5.34375 -7.335938 5.84375 -7.078125 C 6.34375 -6.816406 6.691406 -6.425781 6.890625 -5.90625 L 5.828125 -5.265625 L 5.703125 -5.265625 C 5.546875 -5.597656 5.332031 -5.835938 5.0625 -5.984375 C 4.789062 -6.140625 4.445312 -6.21875 4.03125 -6.21875 C 3.40625 -6.21875 2.921875 -6.015625 2.578125 -5.609375 C 2.242188 -5.210938 2.078125 -4.570312 2.078125 -3.6875 C 2.078125 -2.789062 2.234375 -2.140625 2.546875 -1.734375 C 2.859375 -1.335938 3.320312 -1.140625 3.9375 -1.140625 C 4.46875 -1.140625 4.859375 -1.257812 5.109375 -1.5 C 5.367188 -1.738281 5.5 -2.09375 5.5 -2.5625 L 5.5 -2.875 L 3.75 -2.875 L 3.75 -4.0625 L 6.9375 -4.0625 L 6.9375 0 L 5.546875 0 L 5.546875 -0.984375 L 5.4375 -1 C 5.289062 -0.644531 5.0625 -0.367188 4.75 -0.171875 C 4.445312 0.015625 4.054688 0.109375 3.578125 0.109375 Z M 3.578125 0.109375 "/></g></g></g><g fill="#000000" fill-opacity="1"><g transform="translate(40.522301, 44.408683)"><g><path d="M 2.40625 0 L 0.953125 0 L 0.953125 -7.359375 L 2.40625 -7.359375 Z M 2.40625 0 "/></g></g></g><g fill="#000000" fill-opacity="1"><g transform="translate(48.841167, 44.408683)"><g><path d="M 3.265625 0.109375 C 2.753906 0.109375 2.296875 0.046875 1.890625 -0.078125 C 1.492188 -0.203125 1.164062 -0.367188 0.90625 -0.578125 C 0.644531 -0.785156 0.441406 -1.007812 0.296875 -1.25 L 1.09375 -2.234375 L 1.21875 -2.234375 C 1.445312 -1.898438 1.726562 -1.632812 2.0625 -1.4375 C 2.40625 -1.25 2.804688 -1.15625 3.265625 -1.15625 C 3.648438 -1.15625 3.941406 -1.234375 4.140625 -1.390625 C 4.335938 -1.554688 4.4375 -1.785156 4.4375 -2.078125 C 4.4375 -2.253906 4.40625 -2.398438 4.34375 -2.515625 C 4.28125 -2.628906 4.175781 -2.726562 4.03125 -2.8125 C 3.882812 -2.90625 3.679688 -2.976562 3.421875 -3.03125 L 2.484375 -3.25 C 1.816406 -3.40625 1.320312 -3.65625 1 -4 C 0.675781 -4.351562 0.515625 -4.8125 0.515625 -5.375 C 0.515625 -5.789062 0.617188 -6.15625 0.828125 -6.46875 C 1.035156 -6.78125 1.335938 -7.023438 1.734375 -7.203125 C 2.140625 -7.378906 2.617188 -7.46875 3.171875 -7.46875 C 3.734375 -7.46875 4.21875 -7.390625 4.625 -7.234375 C 5.03125 -7.085938 5.375 -6.863281 5.65625 -6.5625 L 4.921875 -5.5625 L 4.796875 -5.5625 C 4.585938 -5.78125 4.347656 -5.941406 4.078125 -6.046875 C 3.816406 -6.160156 3.515625 -6.21875 3.171875 -6.21875 C 2.765625 -6.21875 2.457031 -6.144531 2.25 -6 C 2.039062 -5.863281 1.9375 -5.671875 1.9375 -5.421875 C 1.9375 -5.191406 2.007812 -5.007812 2.15625 -4.875 C 2.300781 -4.738281 2.554688 -4.628906 2.921875 -4.546875 L 3.890625 -4.34375 C 4.597656 -4.195312 5.113281 -3.941406 5.4375 -3.578125 C 5.757812 -3.222656 5.921875 -2.753906 5.921875 -2.171875 C 5.921875 -1.710938 5.820312 -1.3125 5.625 -0.96875 C 5.425781 -0.625 5.128906 -0.359375 4.734375 -0.171875 C 4.335938 0.015625 3.847656 0.109375 3.265625 0.109375 Z M 3.265625 0.109375 "/></g></g></g><g fill="#000000" fill-opacity="1"><g transform="translate(60.107082, 44.408683)"><g><path d="M 5.90625 -7.359375 L 5.90625 -6.140625 L 3.78125 -6.140625 L 3.78125 0 L 2.328125 0 L 2.328125 -6.140625 L 0.203125 -6.140625 L 0.203125 -7.359375 Z M 5.90625 -7.359375 "/></g></g></g><g fill="#000000" fill-opacity="1"><g transform="translate(71.151717, 44.408683)"><g><path d="M 2.40625 0 L 0.953125 0 L 0.953125 -7.359375 L 2.40625 -7.359375 Z M 2.40625 0 "/></g></g></g><g fill="#000000" fill-opacity="1"><g transform="translate(79.470583, 44.408683)"><g><path d="M 4.015625 0.109375 C 3.335938 0.109375 2.738281 -0.03125 2.21875 -0.3125 C 1.707031 -0.59375 1.304688 -1.015625 1.015625 -1.578125 C 0.722656 -2.148438 0.578125 -2.851562 0.578125 -3.6875 C 0.578125 -4.507812 0.722656 -5.203125 1.015625 -5.765625 C 1.304688 -6.335938 1.707031 -6.765625 2.21875 -7.046875 C 2.738281 -7.328125 3.335938 -7.46875 4.015625 -7.46875 C 4.722656 -7.46875 5.328125 -7.328125 5.828125 -7.046875 C 6.328125 -6.773438 6.679688 -6.351562 6.890625 -5.78125 L 5.828125 -5.140625 L 5.703125 -5.140625 C 5.546875 -5.523438 5.332031 -5.800781 5.0625 -5.96875 C 4.789062 -6.132812 4.441406 -6.21875 4.015625 -6.21875 C 3.410156 -6.21875 2.9375 -6.015625 2.59375 -5.609375 C 2.25 -5.203125 2.078125 -4.5625 2.078125 -3.6875 C 2.078125 -2.800781 2.25 -2.15625 2.59375 -1.75 C 2.9375 -1.351562 3.410156 -1.15625 4.015625 -1.15625 C 4.972656 -1.15625 5.5625 -1.617188 5.78125 -2.546875 L 5.90625 -2.546875 L 6.984375 -1.984375 C 6.773438 -1.285156 6.425781 -0.757812 5.9375 -0.40625 C 5.457031 -0.0625 4.816406 0.109375 4.015625 0.109375 Z M 4.015625 0.109375 "/></g></g></g><g fill="#000000" fill-opacity="1"><g transform="translate(91.631676, 44.408683)"><g><path d="M 3.265625 0.109375 C 2.753906 0.109375 2.296875 0.046875 1.890625 -0.078125 C 1.492188 -0.203125 1.164062 -0.367188 0.90625 -0.578125 C 0.644531 -0.785156 0.441406 -1.007812 0.296875 -1.25 L 1.09375 -2.234375 L 1.21875 -2.234375 C 1.445312 -1.898438 1.726562 -1.632812 2.0625 -1.4375 C 2.40625 -1.25 2.804688 -1.15625 3.265625 -1.15625 C 3.648438 -1.15625 3.941406 -1.234375 4.140625 -1.390625 C 4.335938 -1.554688 4.4375 -1.785156 4.4375 -2.078125 C 4.4375 -2.253906 4.40625 -2.398438 4.34375 -2.515625 C 4.28125 -2.628906 4.175781 -2.726562 4.03125 -2.8125 C 3.882812 -2.90625 3.679688 -2.976562 3.421875 -3.03125 L 2.484375 -3.25 C 1.816406 -3.40625 1.320312 -3.65625 1 -4 C 0.675781 -4.351562 0.515625 -4.8125 0.515625 -5.375 C 0.515625 -5.789062 0.617188 -6.15625 0.828125 -6.46875 C 1.035156 -6.78125 1.335938 -7.023438 1.734375 -7.203125 C 2.140625 -7.378906 2.617188 -7.46875 3.171875 -7.46875 C 3.734375 -7.46875 4.21875 -7.390625 4.625 -7.234375 C 5.03125 -7.085938 5.375 -6.863281 5.65625 -6.5625 L 4.921875 -5.5625 L 4.796875 -5.5625 C 4.585938 -5.78125 4.347656 -5.941406 4.078125 -6.046875 C 3.816406 -6.160156 3.515625 -6.21875 3.171875 -6.21875 C 2.765625 -6.21875 2.457031 -6.144531 2.25 -6 C 2.039062 -5.863281 1.9375 -5.671875 1.9375 -5.421875 C 1.9375 -5.191406 2.007812 -5.007812 2.15625 -4.875 C 2.300781 -4.738281 2.554688 -4.628906 2.921875 -4.546875 L 3.890625 -4.34375 C 4.597656 -4.195312 5.113281 -3.941406 5.4375 -3.578125 C 5.757812 -3.222656 5.921875 -2.753906 5.921875 -2.171875 C 5.921875 -1.710938 5.820312 -1.3125 5.625 -0.96875 C 5.425781 -0.625 5.128906 -0.359375 4.734375 -0.171875 C 4.335938 0.015625 3.847656 0.109375 3.265625 0.109375 Z M 3.265625 0.109375 "/></g></g></g></svg>