<svg xmlns="http://www.w3.org/2000/svg" xmlns:xlink="http://www.w3.org/1999/xlink" width="236" zoomAndPan="magnify" viewBox="0 0 177 65.249999" height="87" preserveAspectRatio="xMidYMid meet" version="1.0"><defs><g/><clipPath id="1ad1471e3e"><rect x="0" width="148" y="0" height="50"/></clipPath></defs><g transform="matrix(1, 0, 0, 1, 18, 12)"><g clip-path="url(#1ad1471e3e)"><g fill="#ac4740" fill-opacity="1"><g transform="translate(5.520997, 25.628052)"><g><path d="M 0.75 0 L 0.75 -19.25 L 15.875 -19.25 C 17.332031 -19.25 18.613281 -18.941406 19.71875 -18.328125 C 20.820312 -17.710938 21.679688 -16.859375 22.296875 -15.765625 C 22.921875 -14.679688 23.234375 -13.421875 23.234375 -11.984375 C 23.234375 -10.554688 22.921875 -9.296875 22.296875 -8.203125 C 21.679688 -7.117188 20.820312 -6.265625 19.71875 -5.640625 C 18.613281 -5.015625 17.332031 -4.703125 15.875 -4.703125 L 7.203125 -4.703125 L 7.203125 0 Z M 7.203125 -10.140625 L 14.5 -10.140625 C 14.820312 -10.140625 15.160156 -10.164062 15.515625 -10.21875 C 15.878906 -10.28125 16.179688 -10.4375 16.421875 -10.6875 C 16.671875 -10.945312 16.796875 -11.378906 16.796875 -11.984375 C 16.796875 -12.585938 16.671875 -13.019531 16.421875 -13.28125 C 16.179688 -13.539062 15.878906 -13.691406 15.515625 -13.734375 C 15.160156 -13.785156 14.820312 -13.8125 14.5 -13.8125 L 7.203125 -13.8125 Z M 7.203125 -10.140625 "/></g></g></g><g fill="#ac4740" fill-opacity="1"><g transform="translate(31.177423, 25.628052)"><g><path d="M 0.75 0 L 0.75 -19.25 L 7.203125 -19.25 L 7.203125 -5.4375 L 20.546875 -5.4375 L 20.546875 0 Z M 0.75 0 "/></g></g></g><g fill="#ac4740" fill-opacity="1"><g transform="translate(54.138978, 25.628052)"><g><path d="M 0.46875 0 L 9.078125 -19.25 L 18.453125 -19.25 L 27.03125 0 L 19.9375 0 L 18.375 -3.65625 L 9.15625 -3.65625 L 7.5625 0 Z M 10.96875 -8.21875 L 16.53125 -8.21875 L 13.75 -14.65625 Z M 10.96875 -8.21875 "/></g></g></g><g fill="#ac4740" fill-opacity="1"><g transform="translate(83.590217, 25.628052)"><g><path d="M 9.078125 0 L 9.078125 -13.8125 L 0.46875 -13.8125 L 0.46875 -19.25 L 24.125 -19.25 L 24.125 -13.8125 L 15.53125 -13.8125 L 15.53125 0 Z M 9.078125 0 "/></g></g></g><g fill="#ac4740" fill-opacity="1"><g transform="translate(110.126594, 25.628052)"><g><path d="M 12.5625 0.28125 C 8.332031 0.28125 5.257812 -0.546875 3.34375 -2.203125 C 1.425781 -3.867188 0.46875 -6.351562 0.46875 -9.65625 C 0.46875 -12.9375 1.425781 -15.398438 3.34375 -17.046875 C 5.257812 -18.703125 8.332031 -19.53125 12.5625 -19.53125 C 16.78125 -19.53125 19.851562 -18.703125 21.78125 -17.046875 C 23.707031 -15.398438 24.671875 -12.9375 24.671875 -9.65625 C 24.671875 -6.375 23.707031 -3.894531 21.78125 -2.21875 C 19.851562 -0.550781 16.78125 0.28125 12.5625 0.28125 Z M 12.5625 -5.171875 C 14.070312 -5.171875 15.234375 -5.363281 16.046875 -5.75 C 16.859375 -6.132812 17.425781 -6.660156 17.75 -7.328125 C 18.070312 -7.992188 18.234375 -8.769531 18.234375 -9.65625 C 18.234375 -10.53125 18.078125 -11.296875 17.765625 -11.953125 C 17.453125 -12.617188 16.882812 -13.140625 16.0625 -13.515625 C 15.25 -13.890625 14.082031 -14.078125 12.5625 -14.078125 C 11.0625 -14.078125 9.898438 -13.894531 9.078125 -13.53125 C 8.265625 -13.164062 7.703125 -12.644531 7.390625 -11.96875 C 7.085938 -11.300781 6.9375 -10.53125 6.9375 -9.65625 C 6.9375 -8.769531 7.085938 -7.988281 7.390625 -7.3125 C 7.703125 -6.632812 8.265625 -6.109375 9.078125 -5.734375 C 9.898438 -5.359375 11.0625 -5.171875 12.5625 -5.171875 Z M 12.5625 -5.171875 "/></g></g></g><g fill="#000000" fill-opacity="1"><g transform="translate(1.34859, 44.340741)"><g><path d="M 3.546875 -10.8125 L 3.546875 -1.796875 L 8.40625 -1.796875 L 8.40625 0 L 1.40625 0 L 1.40625 -10.8125 Z M 3.546875 -10.8125 "/></g></g></g><g fill="#000000" fill-opacity="1"><g transform="translate(17.383619, 44.340741)"><g><path d="M 5.890625 0.15625 C 4.898438 0.15625 4.023438 -0.046875 3.265625 -0.453125 C 2.515625 -0.859375 1.921875 -1.472656 1.484375 -2.296875 C 1.054688 -3.128906 0.84375 -4.164062 0.84375 -5.40625 C 0.84375 -6.644531 1.054688 -7.679688 1.484375 -8.515625 C 1.921875 -9.347656 2.515625 -9.960938 3.265625 -10.359375 C 4.023438 -10.765625 4.898438 -10.96875 5.890625 -10.96875 C 6.890625 -10.96875 7.765625 -10.765625 8.515625 -10.359375 C 9.273438 -9.960938 9.867188 -9.347656 10.296875 -8.515625 C 10.722656 -7.679688 10.9375 -6.644531 10.9375 -5.40625 C 10.9375 -4.164062 10.722656 -3.128906 10.296875 -2.296875 C 9.867188 -1.460938 9.273438 -0.84375 8.515625 -0.4375 C 7.765625 -0.0390625 6.890625 0.15625 5.890625 0.15625 Z M 5.890625 -1.703125 C 6.816406 -1.703125 7.519531 -1.992188 8 -2.578125 C 8.476562 -3.171875 8.71875 -4.113281 8.71875 -5.40625 C 8.71875 -6.695312 8.476562 -7.640625 8 -8.234375 C 7.519531 -8.828125 6.816406 -9.125 5.890625 -9.125 C 4.972656 -9.125 4.269531 -8.828125 3.78125 -8.234375 C 3.300781 -7.640625 3.0625 -6.695312 3.0625 -5.40625 C 3.0625 -4.113281 3.300781 -3.171875 3.78125 -2.578125 C 4.269531 -1.992188 4.972656 -1.703125 5.890625 -1.703125 Z M 5.890625 -1.703125 "/></g></g></g><g fill="#000000" fill-opacity="1"><g transform="translate(36.443508, 44.340741)"><g><path d="M 5.25 0.15625 C 4.351562 0.15625 3.570312 -0.046875 2.90625 -0.453125 C 2.25 -0.867188 1.738281 -1.492188 1.375 -2.328125 C 1.019531 -3.160156 0.84375 -4.1875 0.84375 -5.40625 C 0.84375 -6.644531 1.054688 -7.675781 1.484375 -8.5 C 1.921875 -9.332031 2.519531 -9.953125 3.28125 -10.359375 C 4.039062 -10.765625 4.925781 -10.96875 5.9375 -10.96875 C 6.96875 -10.96875 7.847656 -10.773438 8.578125 -10.390625 C 9.316406 -10.015625 9.832031 -9.445312 10.125 -8.6875 L 8.5625 -7.734375 L 8.375 -7.734375 C 8.15625 -8.222656 7.84375 -8.578125 7.4375 -8.796875 C 7.039062 -9.015625 6.539062 -9.125 5.9375 -9.125 C 5 -9.125 4.285156 -8.828125 3.796875 -8.234375 C 3.304688 -7.648438 3.0625 -6.707031 3.0625 -5.40625 C 3.0625 -4.101562 3.289062 -3.15625 3.75 -2.5625 C 4.207031 -1.96875 4.890625 -1.671875 5.796875 -1.671875 C 6.578125 -1.671875 7.148438 -1.84375 7.515625 -2.1875 C 7.890625 -2.539062 8.078125 -3.066406 8.078125 -3.765625 L 8.078125 -4.234375 L 5.515625 -4.234375 L 5.515625 -5.96875 L 10.203125 -5.96875 L 10.203125 0 L 8.15625 0 L 8.15625 -1.453125 L 8 -1.46875 C 7.78125 -0.957031 7.441406 -0.554688 6.984375 -0.265625 C 6.535156 0.015625 5.957031 0.15625 5.25 0.15625 Z M 5.25 0.15625 "/></g></g></g><g fill="#000000" fill-opacity="1"><g transform="translate(55.000488, 44.340741)"><g><path d="M 3.546875 0 L 1.40625 0 L 1.40625 -10.8125 L 3.546875 -10.8125 Z M 3.546875 0 "/></g></g></g><g fill="#000000" fill-opacity="1"><g transform="translate(67.234115, 44.340741)"><g><path d="M 4.796875 0.15625 C 4.046875 0.15625 3.378906 0.0625 2.796875 -0.125 C 2.210938 -0.3125 1.722656 -0.550781 1.328125 -0.84375 C 0.941406 -1.144531 0.644531 -1.476562 0.4375 -1.84375 L 1.609375 -3.28125 L 1.796875 -3.28125 C 2.117188 -2.789062 2.53125 -2.398438 3.03125 -2.109375 C 3.539062 -1.828125 4.128906 -1.6875 4.796875 -1.6875 C 5.367188 -1.6875 5.800781 -1.804688 6.09375 -2.046875 C 6.382812 -2.296875 6.53125 -2.632812 6.53125 -3.0625 C 6.53125 -3.3125 6.484375 -3.519531 6.390625 -3.6875 C 6.296875 -3.863281 6.140625 -4.015625 5.921875 -4.140625 C 5.703125 -4.265625 5.410156 -4.375 5.046875 -4.46875 L 3.65625 -4.78125 C 2.675781 -5 1.945312 -5.363281 1.46875 -5.875 C 1 -6.394531 0.765625 -7.066406 0.765625 -7.890625 C 0.765625 -8.503906 0.914062 -9.039062 1.21875 -9.5 C 1.53125 -9.96875 1.976562 -10.328125 2.5625 -10.578125 C 3.144531 -10.835938 3.84375 -10.96875 4.65625 -10.96875 C 5.488281 -10.96875 6.203125 -10.859375 6.796875 -10.640625 C 7.390625 -10.421875 7.890625 -10.085938 8.296875 -9.640625 L 7.25 -8.1875 L 7.0625 -8.1875 C 6.75 -8.507812 6.394531 -8.75 6 -8.90625 C 5.613281 -9.0625 5.164062 -9.140625 4.65625 -9.140625 C 4.070312 -9.140625 3.625 -9.035156 3.3125 -8.828125 C 3.007812 -8.628906 2.859375 -8.347656 2.859375 -7.984375 C 2.859375 -7.640625 2.960938 -7.363281 3.171875 -7.15625 C 3.390625 -6.957031 3.765625 -6.800781 4.296875 -6.6875 L 5.71875 -6.390625 C 6.769531 -6.171875 7.53125 -5.796875 8 -5.265625 C 8.46875 -4.734375 8.703125 -4.039062 8.703125 -3.1875 C 8.703125 -2.507812 8.554688 -1.921875 8.265625 -1.421875 C 7.984375 -0.921875 7.546875 -0.53125 6.953125 -0.25 C 6.367188 0.0195312 5.648438 0.15625 4.796875 0.15625 Z M 4.796875 0.15625 "/></g></g></g><g fill="#000000" fill-opacity="1"><g transform="translate(83.801637, 44.340741)"><g><path d="M 8.671875 -10.8125 L 8.671875 -9.015625 L 5.546875 -9.015625 L 5.546875 0 L 3.421875 0 L 3.421875 -9.015625 L 0.296875 -9.015625 L 0.296875 -10.8125 Z M 8.671875 -10.8125 "/></g></g></g><g fill="#000000" fill-opacity="1"><g transform="translate(100.043746, 44.340741)"><g><path d="M 3.546875 0 L 1.40625 0 L 1.40625 -10.8125 L 3.546875 -10.8125 Z M 3.546875 0 "/></g></g></g><g fill="#000000" fill-opacity="1"><g transform="translate(112.277373, 44.340741)"><g><path d="M 5.90625 0.15625 C 4.914062 0.15625 4.039062 -0.0507812 3.28125 -0.46875 C 2.519531 -0.882812 1.921875 -1.503906 1.484375 -2.328125 C 1.054688 -3.160156 0.84375 -4.1875 0.84375 -5.40625 C 0.84375 -6.625 1.054688 -7.648438 1.484375 -8.484375 C 1.921875 -9.316406 2.519531 -9.9375 3.28125 -10.34375 C 4.039062 -10.757812 4.914062 -10.96875 5.90625 -10.96875 C 6.945312 -10.96875 7.832031 -10.765625 8.5625 -10.359375 C 9.289062 -9.953125 9.8125 -9.332031 10.125 -8.5 L 8.5625 -7.546875 L 8.375 -7.5625 C 8.144531 -8.125 7.832031 -8.523438 7.4375 -8.765625 C 7.039062 -9.003906 6.53125 -9.125 5.90625 -9.125 C 5.007812 -9.125 4.3125 -8.828125 3.8125 -8.234375 C 3.3125 -7.640625 3.0625 -6.695312 3.0625 -5.40625 C 3.0625 -4.125 3.3125 -3.179688 3.8125 -2.578125 C 4.3125 -1.984375 5.007812 -1.6875 5.90625 -1.6875 C 7.3125 -1.6875 8.175781 -2.375 8.5 -3.75 L 8.6875 -3.75 L 10.25 -2.921875 C 9.957031 -1.898438 9.453125 -1.128906 8.734375 -0.609375 C 8.023438 -0.0976562 7.082031 0.15625 5.90625 0.15625 Z M 5.90625 0.15625 "/></g></g></g><g fill="#000000" fill-opacity="1"><g transform="translate(130.161333, 44.340741)"><g><path d="M 4.796875 0.15625 C 4.046875 0.15625 3.378906 0.0625 2.796875 -0.125 C 2.210938 -0.3125 1.722656 -0.550781 1.328125 -0.84375 C 0.941406 -1.144531 0.644531 -1.476562 0.4375 -1.84375 L 1.609375 -3.28125 L 1.796875 -3.28125 C 2.117188 -2.789062 2.53125 -2.398438 3.03125 -2.109375 C 3.539062 -1.828125 4.128906 -1.6875 4.796875 -1.6875 C 5.367188 -1.6875 5.800781 -1.804688 6.09375 -2.046875 C 6.382812 -2.296875 6.53125 -2.632812 6.53125 -3.0625 C 6.53125 -3.3125 6.484375 -3.519531 6.390625 -3.6875 C 6.296875 -3.863281 6.140625 -4.015625 5.921875 -4.140625 C 5.703125 -4.265625 5.410156 -4.375 5.046875 -4.46875 L 3.65625 -4.78125 C 2.675781 -5 1.945312 -5.363281 1.46875 -5.875 C 1 -6.394531 0.765625 -7.066406 0.765625 -7.890625 C 0.765625 -8.503906 0.914062 -9.039062 1.21875 -9.5 C 1.53125 -9.96875 1.976562 -10.328125 2.5625 -10.578125 C 3.144531 -10.835938 3.84375 -10.96875 4.65625 -10.96875 C 5.488281 -10.96875 6.203125 -10.859375 6.796875 -10.640625 C 7.390625 -10.421875 7.890625 -10.085938 8.296875 -9.640625 L 7.25 -8.1875 L 7.0625 -8.1875 C 6.75 -8.507812 6.394531 -8.75 6 -8.90625 C 5.613281 -9.0625 5.164062 -9.140625 4.65625 -9.140625 C 4.070312 -9.140625 3.625 -9.035156 3.3125 -8.828125 C 3.007812 -8.628906 2.859375 -8.347656 2.859375 -7.984375 C 2.859375 -7.640625 2.960938 -7.363281 3.171875 -7.15625 C 3.390625 -6.957031 3.765625 -6.800781 4.296875 -6.6875 L 5.71875 -6.390625 C 6.769531 -6.171875 7.53125 -5.796875 8 -5.265625 C 8.46875 -4.734375 8.703125 -4.039062 8.703125 -3.1875 C 8.703125 -2.507812 8.554688 -1.921875 8.265625 -1.421875 C 7.984375 -0.921875 7.546875 -0.53125 6.953125 -0.25 C 6.367188 0.0195312 5.648438 0.15625 4.796875 0.15625 Z M 4.796875 0.15625 "/></g></g></g></g></g></svg>