<svg xmlns="http://www.w3.org/2000/svg" xmlns:xlink="http://www.w3.org/1999/xlink" width="70" zoomAndPan="magnify" viewBox="0 0 52.5 52.499999" height="70" preserveAspectRatio="xMidYMid meet" version="1.0"><defs><g/><clipPath id="abf894d9ae"><path d="M 0 0 L 52.003906 0 L 52.003906 52.003906 L 0 52.003906 Z M 0 0 " clip-rule="nonzero"/></clipPath><clipPath id="33c7357c31"><path d="M 52.003906 11.144531 L 52.003906 40.859375 C 52.003906 47.015625 47.015625 52.003906 40.859375 52.003906 L 11.144531 52.003906 C 4.988281 52.003906 0 47.015625 0 40.859375 L 0 11.144531 C 0 4.988281 4.988281 0 11.144531 0 L 40.859375 0 C 47.015625 0 52.003906 4.988281 52.003906 11.144531 Z M 52.003906 11.144531 " clip-rule="nonzero"/></clipPath><clipPath id="cb64b03cb2"><path d="M 0 0 L 52.003906 0 L 52.003906 52.003906 L 0 52.003906 Z M 0 0 " clip-rule="nonzero"/></clipPath><clipPath id="b09834f294"><path d="M 52.003906 11.144531 L 52.003906 40.859375 C 52.003906 47.015625 47.015625 52.003906 40.859375 52.003906 L 11.144531 52.003906 C 4.988281 52.003906 0 47.015625 0 40.859375 L 0 11.144531 C 0 4.988281 4.988281 0 11.144531 0 L 40.859375 0 C 47.015625 0 52.003906 4.988281 52.003906 11.144531 Z M 52.003906 11.144531 " clip-rule="nonzero"/></clipPath><clipPath id="5d592ea075"><rect x="0" width="53" y="0" height="53"/></clipPath><clipPath id="b711b110d0"><path d="M 15.226562 5.199219 L 36.773438 5.199219 L 36.773438 32.6875 L 15.226562 32.6875 Z M 15.226562 5.199219 " clip-rule="nonzero"/></clipPath></defs><g clip-path="url(#abf894d9ae)"><g clip-path="url(#33c7357c31)"><g transform="matrix(1, 0, 0, 1, 0, 0.000000000000000295)"><g clip-path="url(#5d592ea075)"><g clip-path="url(#cb64b03cb2)"><g clip-path="url(#b09834f294)"><path fill="#ffc2c2" d="M 0 0 L 52.003906 0 L 52.003906 52.003906 L 0 52.003906 Z M 0 0 " fill-opacity="1" fill-rule="nonzero"/></g></g></g></g><path stroke-linecap="butt" transform="matrix(0.742924, 0, 0, 0.742924, 0.0000005, 0.000000990566)" fill="none" stroke-linejoin="miter" d="M 69.998917 15.000893 L 69.998917 54.998021 C 69.998917 63.28453 63.284531 69.998916 54.998022 69.998916 L 15.000894 69.998916 C 6.714385 69.998916 -0.000000673016 63.28453 -0.000000673016 54.998021 L -0.000000673016 15.000893 C -0.000000673016 6.714384 6.714385 -0.00000133333 15.000894 -0.00000133333 L 54.998022 -0.00000133333 C 63.284531 -0.00000133333 69.998917 6.714384 69.998917 15.000893 Z M 69.998917 15.000893 " stroke="#000000" stroke-width="2" stroke-opacity="1" stroke-miterlimit="4"/></g></g><g clip-path="url(#b711b110d0)"><path fill="#000000" d="M 34.464844 15.824219 L 34.464844 13.566406 C 34.464844 8.953125 30.667969 5.199219 26 5.199219 C 21.335938 5.199219 17.539062 8.953125 17.539062 13.566406 L 17.539062 15.824219 C 16.257812 15.855469 15.234375 16.886719 15.234375 18.15625 L 15.234375 30.347656 C 15.234375 30.65625 15.292969 30.957031 15.414062 31.242188 C 15.535156 31.53125 15.703125 31.78125 15.925781 32.003906 C 16.148438 32.222656 16.40625 32.390625 16.695312 32.511719 C 16.984375 32.628906 17.285156 32.6875 17.601562 32.6875 L 34.402344 32.6875 C 34.714844 32.6875 35.015625 32.628906 35.308594 32.511719 C 35.597656 32.390625 35.855469 32.222656 36.074219 32.003906 C 36.296875 31.785156 36.46875 31.53125 36.589844 31.242188 C 36.710938 30.957031 36.769531 30.65625 36.769531 30.347656 L 36.769531 18.15625 C 36.769531 16.886719 35.742188 15.855469 34.464844 15.824219 Z M 27.9375 22.566406 C 27.925781 22.640625 27.886719 22.804688 27.882812 22.820312 C 27.738281 23.3125 27.394531 23.722656 26.945312 23.96875 L 27.703125 27.171875 C 27.726562 27.238281 27.730469 27.308594 27.722656 27.378906 C 27.710938 27.449219 27.683594 27.511719 27.644531 27.570312 C 27.601562 27.628906 27.550781 27.671875 27.488281 27.707031 C 27.425781 27.738281 27.359375 27.757812 27.285156 27.757812 L 24.765625 27.757812 C 24.695312 27.757812 24.628906 27.738281 24.566406 27.707031 C 24.503906 27.671875 24.449219 27.628906 24.410156 27.570312 C 24.367188 27.511719 24.34375 27.449219 24.332031 27.378906 C 24.320312 27.308594 24.328125 27.238281 24.351562 27.171875 L 25.058594 23.96875 C 24.609375 23.722656 24.265625 23.3125 24.121094 22.820312 C 24.117188 22.804688 24.074219 22.640625 24.0625 22.566406 C 24.050781 22.480469 24.042969 22.390625 24.042969 22.296875 C 24.042969 22.042969 24.09375 21.792969 24.191406 21.558594 C 24.292969 21.320312 24.433594 21.109375 24.617188 20.929688 C 24.800781 20.746094 25.011719 20.609375 25.25 20.511719 C 25.492188 20.410156 25.742188 20.363281 26 20.363281 C 26.261719 20.363281 26.511719 20.410156 26.75 20.511719 C 26.988281 20.609375 27.203125 20.746094 27.386719 20.929688 C 27.570312 21.109375 27.710938 21.320312 27.808594 21.558594 C 27.910156 21.792969 27.957031 22.042969 27.957031 22.296875 C 27.957031 22.390625 27.953125 22.480469 27.9375 22.566406 Z M 31.574219 15.816406 L 20.425781 15.816406 L 20.425781 13.566406 C 20.425781 10.527344 22.925781 8.054688 26 8.054688 C 29.078125 8.054688 31.574219 10.527344 31.574219 13.566406 Z M 31.574219 15.816406 " fill-opacity="1" fill-rule="nonzero"/></g><g fill="#000000" fill-opacity="1"><g transform="translate(11.306383, 42.566106)"><g><path d="M 2.84375 -6.984375 C 3.664062 -6.984375 4.300781 -6.71875 4.75 -6.1875 L 4.078125 -5.609375 C 3.828125 -6.015625 3.414062 -6.222656 2.84375 -6.234375 C 2.40625 -6.234375 2.050781 -6.128906 1.78125 -5.921875 C 1.519531 -5.722656 1.390625 -5.445312 1.390625 -5.09375 C 1.390625 -4.78125 1.488281 -4.535156 1.6875 -4.359375 C 1.894531 -4.179688 2.28125 -4.003906 2.84375 -3.828125 C 3.582031 -3.617188 4.101562 -3.359375 4.40625 -3.046875 C 4.707031 -2.742188 4.859375 -2.332031 4.859375 -1.8125 C 4.859375 -1.21875 4.632812 -0.738281 4.1875 -0.375 C 3.738281 -0.0195312 3.164062 0.160156 2.46875 0.171875 C 2 0.171875 1.582031 0.0859375 1.21875 -0.078125 C 0.851562 -0.242188 0.566406 -0.472656 0.359375 -0.765625 L 1.0625 -1.34375 C 1.207031 -1.09375 1.410156 -0.898438 1.671875 -0.765625 C 1.929688 -0.640625 2.210938 -0.578125 2.515625 -0.578125 C 2.921875 -0.578125 3.269531 -0.691406 3.5625 -0.921875 C 3.851562 -1.148438 4 -1.429688 4 -1.765625 C 4 -2.066406 3.910156 -2.300781 3.734375 -2.46875 C 3.566406 -2.644531 3.285156 -2.796875 2.890625 -2.921875 L 2.125 -3.171875 C 1.53125 -3.367188 1.113281 -3.617188 0.875 -3.921875 C 0.632812 -4.222656 0.515625 -4.59375 0.515625 -5.03125 C 0.515625 -5.601562 0.726562 -6.070312 1.15625 -6.4375 C 1.59375 -6.800781 2.15625 -6.984375 2.84375 -6.984375 Z M 2.84375 -6.984375 "/></g></g></g><g fill="#000000" fill-opacity="1"><g transform="translate(16.650449, 42.566106)"><g><path d="M 1.15625 -6.8125 C 1.300781 -6.8125 1.425781 -6.757812 1.53125 -6.65625 C 1.644531 -6.550781 1.703125 -6.421875 1.703125 -6.265625 C 1.703125 -6.109375 1.648438 -5.976562 1.546875 -5.875 C 1.441406 -5.769531 1.3125 -5.71875 1.15625 -5.71875 C 1 -5.71875 0.867188 -5.769531 0.765625 -5.875 C 0.660156 -5.976562 0.609375 -6.109375 0.609375 -6.265625 C 0.609375 -6.421875 0.660156 -6.550781 0.765625 -6.65625 C 0.878906 -6.757812 1.007812 -6.8125 1.15625 -6.8125 Z M 1.53125 -4.5 L 1.53125 0 L 0.78125 0 L 0.78125 -4.5 Z M 1.53125 -4.5 "/></g></g></g><g fill="#000000" fill-opacity="1"><g transform="translate(18.957237, 42.566106)"><g><path d="M 2.84375 -4.625 C 3.1875 -4.625 3.503906 -4.539062 3.796875 -4.375 C 4.085938 -4.21875 4.300781 -4.003906 4.4375 -3.734375 L 4.453125 -3.734375 L 4.453125 -4.5 L 5.203125 -4.5 L 5.203125 -0.15625 C 5.203125 0.613281 4.992188 1.210938 4.578125 1.640625 C 4.171875 2.078125 3.5625 2.300781 2.75 2.3125 C 2.3125 2.3125 1.910156 2.242188 1.546875 2.109375 C 1.191406 1.984375 0.851562 1.765625 0.53125 1.453125 L 1.078125 0.84375 C 1.554688 1.351562 2.113281 1.609375 2.75 1.609375 C 3.882812 1.609375 4.453125 1.007812 4.453125 -0.1875 L 4.453125 -0.78125 L 4.4375 -0.78125 C 4.269531 -0.507812 4.035156 -0.300781 3.734375 -0.15625 C 3.441406 -0.0078125 3.144531 0.0625 2.84375 0.0625 C 2.144531 0.0625 1.570312 -0.148438 1.125 -0.578125 C 0.6875 -1.015625 0.460938 -1.570312 0.453125 -2.25 C 0.453125 -2.976562 0.671875 -3.550781 1.109375 -3.96875 C 1.546875 -4.394531 2.125 -4.613281 2.84375 -4.625 Z M 1.265625 -2.25 C 1.265625 -1.800781 1.414062 -1.421875 1.71875 -1.109375 C 2.03125 -0.796875 2.40625 -0.640625 2.84375 -0.640625 C 3.332031 -0.640625 3.722656 -0.796875 4.015625 -1.109375 C 4.304688 -1.421875 4.453125 -1.804688 4.453125 -2.265625 C 4.453125 -2.765625 4.300781 -3.164062 4 -3.46875 C 3.707031 -3.769531 3.320312 -3.921875 2.84375 -3.921875 C 2.382812 -3.921875 2.003906 -3.757812 1.703125 -3.4375 C 1.410156 -3.125 1.265625 -2.726562 1.265625 -2.25 Z M 1.265625 -2.25 "/></g></g></g><g fill="#000000" fill-opacity="1"><g transform="translate(24.829941, 42.566106)"><g><path d="M 2.921875 -4.625 C 3.484375 -4.625 3.910156 -4.457031 4.203125 -4.125 C 4.492188 -3.800781 4.640625 -3.363281 4.640625 -2.8125 L 4.640625 0 L 3.890625 0 L 3.890625 -2.734375 C 3.890625 -3.078125 3.804688 -3.359375 3.640625 -3.578125 C 3.484375 -3.804688 3.222656 -3.921875 2.859375 -3.921875 C 2.398438 -3.921875 2.050781 -3.769531 1.8125 -3.46875 C 1.582031 -3.164062 1.46875 -2.742188 1.46875 -2.203125 L 1.46875 0 L 0.71875 0 L 0.71875 -3.5 C 0.71875 -3.53125 0.703125 -3.863281 0.671875 -4.5 L 1.390625 -4.5 C 1.398438 -4.050781 1.40625 -3.804688 1.40625 -3.765625 L 1.421875 -3.765625 C 1.546875 -4.015625 1.742188 -4.21875 2.015625 -4.375 C 2.285156 -4.539062 2.585938 -4.625 2.921875 -4.625 Z M 2.921875 -4.625 "/></g></g></g><g fill="#000000" fill-opacity="1"><g transform="translate(30.174007, 42.566106)"><g/></g></g><g fill="#000000" fill-opacity="1"><g transform="translate(32.846035, 42.566106)"><g><path d="M 1.65625 -6.8125 L 1.65625 0 L 0.84375 0 L 0.84375 -6.8125 Z M 1.65625 -6.8125 "/></g></g></g><g fill="#000000" fill-opacity="1"><g transform="translate(35.345061, 42.566106)"><g><path d="M 2.921875 -4.625 C 3.484375 -4.625 3.910156 -4.457031 4.203125 -4.125 C 4.492188 -3.800781 4.640625 -3.363281 4.640625 -2.8125 L 4.640625 0 L 3.890625 0 L 3.890625 -2.734375 C 3.890625 -3.078125 3.804688 -3.359375 3.640625 -3.578125 C 3.484375 -3.804688 3.222656 -3.921875 2.859375 -3.921875 C 2.398438 -3.921875 2.050781 -3.769531 1.8125 -3.46875 C 1.582031 -3.164062 1.46875 -2.742188 1.46875 -2.203125 L 1.46875 0 L 0.71875 0 L 0.71875 -3.5 C 0.71875 -3.53125 0.703125 -3.863281 0.671875 -4.5 L 1.390625 -4.5 C 1.398438 -4.050781 1.40625 -3.804688 1.40625 -3.765625 L 1.421875 -3.765625 C 1.546875 -4.015625 1.742188 -4.21875 2.015625 -4.375 C 2.285156 -4.539062 2.585938 -4.625 2.921875 -4.625 Z M 2.921875 -4.625 "/></g></g></g></svg>