<svg xmlns="http://www.w3.org/2000/svg" xmlns:xlink="http://www.w3.org/1999/xlink" width="214" zoomAndPan="magnify" viewBox="0 0 160.5 44.999999" height="60" preserveAspectRatio="xMidYMid meet" version="1.0"><defs><clipPath id="326bddf6ce"><path d="M 133 4 L 159.253906 4 L 159.253906 42 L 133 42 Z M 133 4 " clip-rule="nonzero"/></clipPath><clipPath id="416f158b5d"><path d="M 138 41 L 149 41 L 149 44.929688 L 138 44.929688 Z M 138 41 " clip-rule="nonzero"/></clipPath><clipPath id="f4d62d3fb6"><path d="M 83 40 L 95 40 L 95 44.929688 L 83 44.929688 Z M 83 40 " clip-rule="nonzero"/></clipPath><clipPath id="317f27eb1d"><path d="M 98 40 L 110 40 L 110 44.929688 L 98 44.929688 Z M 98 40 " clip-rule="nonzero"/></clipPath><clipPath id="0b8bfe80df"><path d="M 11 38 L 24 38 L 24 44.929688 L 11 44.929688 Z M 11 38 " clip-rule="nonzero"/></clipPath><clipPath id="5a7718af34"><path d="M 26 38 L 39 38 L 39 44.929688 L 26 44.929688 Z M 26 38 " clip-rule="nonzero"/></clipPath><clipPath id="b9720f5a09"><path d="M 0 0.0703125 L 128 0.0703125 L 128 32 L 0 32 Z M 0 0.0703125 " clip-rule="nonzero"/></clipPath><clipPath id="e00054d370"><path d="M 133 4 L 159.253906 4 L 159.253906 42 L 133 42 Z M 133 4 " clip-rule="nonzero"/></clipPath><clipPath id="9267f5b6d4"><path d="M 138 41 L 149 41 L 149 44.929688 L 138 44.929688 Z M 138 41 " clip-rule="nonzero"/></clipPath><clipPath id="26a3949565"><path d="M 83 40 L 95 40 L 95 44.929688 L 83 44.929688 Z M 83 40 " clip-rule="nonzero"/></clipPath><clipPath id="92b29040ad"><path d="M 98 40 L 110 40 L 110 44.929688 L 98 44.929688 Z M 98 40 " clip-rule="nonzero"/></clipPath><clipPath id="c4ce060af0"><path d="M 11 38 L 24 38 L 24 44.929688 L 11 44.929688 Z M 11 38 " clip-rule="nonzero"/></clipPath><clipPath id="b1950836cd"><path d="M 26 38 L 39 38 L 39 44.929688 L 26 44.929688 Z M 26 38 " clip-rule="nonzero"/></clipPath><clipPath id="e56f3fbe09"><path d="M 0 0.0703125 L 128 0.0703125 L 128 32 L 0 32 Z M 0 0.0703125 " clip-rule="nonzero"/></clipPath></defs><path fill="#000000" d="M 76.53125 32.644531 L 76.53125 33.394531 L 78.03125 33.394531 C 78.40625 33.394531 78.78125 33.773438 78.78125 34.148438 L 82.160156 34.148438 L 82.722656 32.644531 C 82.910156 32.644531 76.53125 32.644531 76.53125 32.644531 Z M 76.53125 32.644531 " fill-opacity="1" fill-rule="nonzero"/><path fill="#000000" d="M 72.03125 33.394531 L 73.90625 33.394531 L 73.90625 32.644531 L 66.402344 32.644531 L 66.402344 33.394531 L 68.839844 33.394531 C 69.214844 33.394531 69.589844 33.773438 69.589844 34.148438 L 71.28125 34.148438 C 71.28125 33.773438 71.65625 33.394531 72.03125 33.394531 Z M 72.03125 33.394531 " fill-opacity="1" fill-rule="nonzero"/><path fill="#000000" d="M 62.839844 33.394531 L 65.089844 33.394531 L 65.089844 32.644531 L 58.148438 32.644531 C 58.523438 32.644531 58.898438 33.019531 58.898438 33.394531 L 58.898438 34.148438 L 62.089844 34.148438 C 62.089844 33.773438 62.277344 33.394531 62.839844 33.394531 Z M 62.839844 33.394531 " fill-opacity="1" fill-rule="nonzero"/><path fill="#000000" d="M 47.082031 32.644531 L 38.265625 32.644531 L 38.828125 34.148438 L 46.332031 34.148438 L 46.332031 33.394531 C 46.332031 33.019531 46.707031 32.644531 47.082031 32.644531 Z M 47.082031 32.644531 " fill-opacity="1" fill-rule="nonzero"/><path fill="#000000" d="M 37.140625 32.644531 L 38.265625 32.644531 L 37.890625 31.519531 L 11.816406 31.519531 L 8.816406 37.90625 L 10.503906 37.90625 C 10.691406 36.589844 11.253906 35.273438 12.378906 34.148438 C 13.503906 33.019531 15.195312 32.269531 16.882812 32.269531 C 18.570312 32.269531 20.257812 33.019531 21.382812 34.148438 C 22.320312 35.085938 23.070312 36.402344 23.257812 37.90625 L 25.699219 37.90625 C 25.886719 36.589844 26.449219 35.273438 27.574219 34.148438 C 28.699219 33.019531 30.386719 32.269531 32.074219 32.269531 C 33.765625 32.269531 35.453125 33.019531 36.578125 34.148438 C 37.515625 35.085938 38.265625 36.402344 38.453125 37.90625 L 40.140625 37.90625 L 40.140625 36.777344 L 39.203125 34.148438 L 37.515625 34.148438 Z M 37.140625 32.644531 " fill-opacity="1" fill-rule="nonzero"/><path fill="#000000" d="M 37.140625 32.644531 L 37.140625 34.148438 L 39.015625 34.148438 L 38.453125 32.644531 Z M 37.140625 32.644531 " fill-opacity="1" fill-rule="nonzero"/><path fill="#000000" d="M 84.410156 34.335938 L 82.347656 34.148438 L 81.972656 35.273438 L 83.660156 35.273438 C 83.847656 34.898438 84.035156 34.710938 84.410156 34.335938 Z M 84.410156 34.335938 " fill-opacity="1" fill-rule="nonzero"/><path fill="#000000" d="M 83.285156 31.519531 L 82.910156 32.644531 L 84.785156 32.644531 L 84.785156 33.960938 C 85.910156 33.019531 87.410156 32.457031 88.910156 32.457031 C 90.601562 32.457031 92.289062 33.207031 93.414062 34.335938 C 93.789062 34.710938 93.976562 35.085938 94.164062 35.273438 L 98.480469 35.273438 C 98.667969 34.898438 99.042969 34.523438 99.230469 34.335938 C 100.355469 33.207031 102.042969 32.457031 103.730469 32.457031 C 105.417969 32.457031 107.105469 33.207031 108.234375 34.335938 C 108.609375 34.710938 108.796875 35.085938 108.984375 35.273438 L 111.609375 35.273438 L 110.109375 31.519531 Z M 83.285156 31.519531 " fill-opacity="1" fill-rule="nonzero"/><path fill="#000000" d="M 84.785156 33.960938 L 84.785156 32.644531 L 82.910156 32.644531 L 82.347656 34.148438 L 84.597656 34.148438 C 84.597656 34.148438 84.597656 33.960938 84.785156 33.960938 Z M 84.785156 33.960938 " fill-opacity="1" fill-rule="nonzero"/><g clip-path="url(#326bddf6ce)"><path fill="#000000" d="M 158.691406 37.152344 L 158.691406 35.460938 L 158.878906 35.085938 L 158.878906 33.773438 C 158.503906 33.207031 158.503906 32.269531 158.503906 32.269531 C 158.503906 32.082031 159.066406 32.082031 159.066406 32.082031 L 159.066406 23.4375 C 159.066406 22.5 157.941406 21.9375 157.941406 21.9375 C 158.316406 19.492188 157.191406 14.046875 157.191406 14.046875 C 158.128906 13.859375 158.503906 13.105469 158.503906 13.105469 L 158.316406 11.792969 C 158.128906 10.851562 157.003906 10.851562 157.003906 10.851562 C 156.628906 7.46875 154.941406 7.09375 154.941406 7.09375 L 149.875 6.34375 L 149.875 6.71875 L 149.3125 6.71875 L 149.3125 6.34375 L 142.183594 5.402344 C 142.183594 5.402344 142.183594 5.59375 142.183594 5.78125 L 141.058594 5.402344 C 141.058594 5.402344 141.058594 5.402344 141.058594 5.214844 L 138.621094 4.839844 C 135.242188 5.78125 135.054688 8.410156 135.054688 8.410156 L 135.054688 11.226562 C 134.492188 11.605469 134.492188 12.355469 134.492188 12.355469 C 134.304688 13.480469 133.929688 29.640625 133.929688 29.640625 L 135.617188 29.640625 L 135.617188 33.207031 L 136.933594 34.148438 L 135.804688 35.839844 L 136.183594 35.839844 L 135.804688 40.722656 L 135.804688 41.472656 L 137.683594 41.472656 C 137.308594 40.722656 137.121094 39.785156 137.121094 38.84375 C 137.121094 37.152344 137.871094 35.460938 138.996094 34.335938 C 140.121094 33.207031 141.808594 32.457031 143.496094 32.457031 C 145.183594 32.457031 146.875 33.207031 148 34.335938 C 149.125 35.460938 149.875 37.152344 149.875 38.84375 C 149.875 39.785156 149.6875 40.722656 149.3125 41.472656 L 154 41.472656 L 158.128906 40.910156 C 159.066406 40.535156 159.253906 39.785156 159.253906 39.785156 L 159.253906 37.90625 C 159.066406 37.339844 158.691406 37.152344 158.691406 37.152344 Z M 143.308594 12.917969 L 143.308594 19.683594 L 139.746094 19.304688 C 138.058594 18.929688 138.058594 17.804688 138.058594 17.804688 L 138.058594 13.105469 C 138.058594 12.355469 139.183594 12.355469 139.183594 12.355469 L 142.558594 12.355469 C 143.308594 12.167969 143.308594 12.917969 143.308594 12.917969 Z M 145.375 20.058594 C 144.621094 19.871094 144.808594 19.117188 144.808594 19.117188 L 144.808594 13.671875 C 144.808594 12.355469 146.3125 12.167969 146.3125 12.167969 L 152.875 12.355469 C 154 12.355469 154.375 13.480469 154.375 13.480469 L 154.941406 21.5625 Z M 145.375 20.058594 " fill-opacity="1" fill-rule="nonzero"/></g><path fill="#000000" d="M 142.558594 5.214844 L 149.3125 5.78125 L 149.3125 5.402344 L 149.875 5.402344 L 149.875 5.78125 L 150.4375 5.78125 C 151.375 5.78125 151.9375 6.34375 151.9375 6.34375 L 152.5 6.34375 L 152.5 4.089844 L 151.9375 4.089844 C 151.5625 4.652344 150.25 4.652344 150.25 4.652344 L 141.996094 4.089844 C 141.058594 4.089844 140.871094 4.652344 140.871094 5.027344 L 141.996094 5.214844 C 142.371094 5.214844 142.558594 5.214844 142.558594 5.214844 Z M 142.558594 5.214844 " fill-opacity="1" fill-rule="nonzero"/><path fill="#000000" d="M 140.871094 5.402344 L 141.996094 5.78125 C 141.996094 5.59375 141.996094 5.59375 141.996094 5.402344 Z M 140.871094 5.402344 " fill-opacity="1" fill-rule="nonzero"/><path fill="#000000" d="M 149.3125 6.34375 L 149.875 6.34375 L 149.875 5.78125 L 149.3125 5.78125 Z M 149.3125 6.34375 " fill-opacity="1" fill-rule="nonzero"/><path fill="#000000" d="M 149.3125 6.71875 L 149.875 6.71875 L 149.875 6.34375 L 149.3125 6.34375 Z M 149.3125 6.71875 " fill-opacity="1" fill-rule="nonzero"/><path fill="#000000" d="M 149.3125 5.402344 L 149.3125 5.78125 L 149.875 5.78125 L 149.875 5.402344 Z M 149.3125 5.402344 " fill-opacity="1" fill-rule="nonzero"/><g clip-path="url(#416f158b5d)"><path fill="#000000" d="M 143.496094 41.851562 C 142.933594 41.851562 142.558594 41.664062 141.996094 41.472656 L 138.058594 41.472656 C 138.996094 43.542969 141.058594 44.855469 143.496094 44.855469 C 145.9375 44.855469 147.8125 43.542969 148.9375 41.472656 L 144.996094 41.472656 C 144.433594 41.664062 144.058594 41.851562 143.496094 41.851562 Z M 143.496094 41.851562 " fill-opacity="1" fill-rule="nonzero"/></g><path fill="#000000" d="M 143.496094 32.832031 C 140.121094 32.832031 137.496094 35.460938 137.496094 38.84375 C 137.496094 39.785156 137.683594 40.722656 138.058594 41.472656 L 141.996094 41.472656 C 141.058594 40.910156 140.308594 39.972656 140.308594 38.84375 C 140.308594 37.152344 141.621094 35.839844 143.308594 35.839844 C 144.996094 35.839844 146.3125 37.152344 146.3125 38.84375 C 146.3125 39.972656 145.75 40.910156 144.808594 41.472656 L 148.9375 41.472656 C 149.3125 40.722656 149.5 39.785156 149.5 38.84375 C 149.5 35.460938 146.875 32.832031 143.496094 32.832031 Z M 143.496094 32.832031 " fill-opacity="1" fill-rule="nonzero"/><path fill="#000000" d="M 144.996094 38.84375 C 144.996094 39.042969 144.960938 39.234375 144.882812 39.417969 C 144.808594 39.605469 144.699219 39.765625 144.558594 39.90625 C 144.417969 40.046875 144.253906 40.15625 144.070312 40.234375 C 143.886719 40.308594 143.695312 40.347656 143.496094 40.347656 C 143.296875 40.347656 143.105469 40.308594 142.921875 40.234375 C 142.738281 40.15625 142.578125 40.046875 142.4375 39.90625 C 142.296875 39.765625 142.1875 39.605469 142.109375 39.417969 C 142.035156 39.234375 141.996094 39.042969 141.996094 38.84375 C 141.996094 38.644531 142.035156 38.453125 142.109375 38.269531 C 142.1875 38.085938 142.296875 37.921875 142.4375 37.78125 C 142.578125 37.640625 142.738281 37.53125 142.921875 37.457031 C 143.105469 37.378906 143.296875 37.339844 143.496094 37.339844 C 143.695312 37.339844 143.886719 37.378906 144.070312 37.457031 C 144.253906 37.53125 144.417969 37.640625 144.558594 37.78125 C 144.699219 37.921875 144.808594 38.085938 144.882812 38.269531 C 144.960938 38.453125 144.996094 38.644531 144.996094 38.84375 Z M 144.996094 38.84375 " fill-opacity="1" fill-rule="nonzero"/><path fill="#000000" d="M 143.871094 36.589844 C 143.871094 36.695312 143.835938 36.78125 143.761719 36.855469 C 143.6875 36.929688 143.601562 36.964844 143.496094 36.964844 C 143.394531 36.964844 143.304688 36.929688 143.230469 36.855469 C 143.160156 36.78125 143.121094 36.695312 143.121094 36.589844 C 143.121094 36.484375 143.160156 36.398438 143.230469 36.324219 C 143.304688 36.25 143.394531 36.214844 143.496094 36.214844 C 143.601562 36.214844 143.6875 36.25 143.761719 36.324219 C 143.835938 36.398438 143.871094 36.484375 143.871094 36.589844 Z M 143.871094 36.589844 " fill-opacity="1" fill-rule="nonzero"/><path fill="#000000" d="M 141.808594 37.71875 C 141.808594 37.820312 141.773438 37.910156 141.699219 37.984375 C 141.625 38.054688 141.539062 38.09375 141.433594 38.09375 C 141.332031 38.09375 141.242188 38.054688 141.167969 37.984375 C 141.09375 37.910156 141.058594 37.820312 141.058594 37.71875 C 141.058594 37.613281 141.09375 37.523438 141.167969 37.453125 C 141.242188 37.378906 141.332031 37.339844 141.433594 37.339844 C 141.539062 37.339844 141.625 37.378906 141.699219 37.453125 C 141.773438 37.523438 141.808594 37.613281 141.808594 37.71875 Z M 141.808594 37.71875 " fill-opacity="1" fill-rule="nonzero"/><path fill="#000000" d="M 141.808594 39.972656 C 141.808594 40.074219 141.773438 40.164062 141.699219 40.238281 C 141.625 40.3125 141.539062 40.347656 141.433594 40.347656 C 141.332031 40.347656 141.242188 40.3125 141.167969 40.238281 C 141.09375 40.164062 141.058594 40.074219 141.058594 39.972656 C 141.058594 39.867188 141.09375 39.78125 141.167969 39.707031 C 141.242188 39.632812 141.332031 39.597656 141.433594 39.597656 C 141.539062 39.597656 141.625 39.632812 141.699219 39.707031 C 141.773438 39.78125 141.808594 39.867188 141.808594 39.972656 Z M 141.808594 39.972656 " fill-opacity="1" fill-rule="nonzero"/><path fill="#000000" d="M 143.871094 41.097656 C 143.871094 41.203125 143.835938 41.292969 143.761719 41.363281 C 143.6875 41.4375 143.601562 41.472656 143.496094 41.472656 C 143.394531 41.472656 143.304688 41.4375 143.230469 41.363281 C 143.160156 41.292969 143.121094 41.203125 143.121094 41.097656 C 143.121094 40.996094 143.160156 40.90625 143.230469 40.832031 C 143.304688 40.761719 143.394531 40.722656 143.496094 40.722656 C 143.601562 40.722656 143.6875 40.761719 143.761719 40.832031 C 143.835938 40.90625 143.871094 40.996094 143.871094 41.097656 Z M 143.871094 41.097656 " fill-opacity="1" fill-rule="nonzero"/><path fill="#000000" d="M 145.9375 39.972656 C 145.9375 40.074219 145.898438 40.164062 145.824219 40.238281 C 145.753906 40.3125 145.664062 40.347656 145.5625 40.347656 C 145.457031 40.347656 145.367188 40.3125 145.296875 40.238281 C 145.222656 40.164062 145.183594 40.074219 145.183594 39.972656 C 145.183594 39.867188 145.222656 39.78125 145.296875 39.707031 C 145.367188 39.632812 145.457031 39.597656 145.5625 39.597656 C 145.664062 39.597656 145.753906 39.632812 145.824219 39.707031 C 145.898438 39.78125 145.9375 39.867188 145.9375 39.972656 Z M 145.9375 39.972656 " fill-opacity="1" fill-rule="nonzero"/><path fill="#000000" d="M 145.9375 37.71875 C 145.9375 37.820312 145.898438 37.910156 145.824219 37.984375 C 145.753906 38.054688 145.664062 38.09375 145.5625 38.09375 C 145.457031 38.09375 145.367188 38.054688 145.296875 37.984375 C 145.222656 37.910156 145.183594 37.820312 145.183594 37.71875 C 145.183594 37.613281 145.222656 37.523438 145.296875 37.453125 C 145.367188 37.378906 145.457031 37.339844 145.5625 37.339844 C 145.664062 37.339844 145.753906 37.378906 145.824219 37.453125 C 145.898438 37.523438 145.9375 37.613281 145.9375 37.71875 Z M 145.9375 37.71875 " fill-opacity="1" fill-rule="nonzero"/><path fill="#000000" d="M 82.722656 36.964844 L 81.222656 36.964844 L 81.222656 40.910156 L 82.722656 40.910156 C 82.535156 40.347656 82.347656 39.597656 82.347656 39.03125 C 82.535156 38.09375 82.535156 37.53125 82.722656 36.964844 Z M 82.722656 36.964844 " fill-opacity="1" fill-rule="nonzero"/><path fill="#000000" d="M 81.222656 35.273438 L 81.222656 36.964844 L 81.785156 35.273438 Z M 81.222656 35.273438 " fill-opacity="1" fill-rule="nonzero"/><path fill="#000000" d="M 97.726562 37.53125 L 94.914062 37.53125 C 95.101562 37.90625 95.101562 38.46875 95.101562 38.84375 C 95.101562 39.597656 94.914062 40.160156 94.726562 40.722656 L 97.539062 40.722656 C 97.351562 40.160156 97.164062 39.40625 97.164062 38.84375 C 97.539062 38.46875 97.539062 37.90625 97.726562 37.53125 Z M 97.726562 37.53125 " fill-opacity="1" fill-rule="nonzero"/><path fill="#000000" d="M 118.550781 35.839844 L 117.800781 34.335938 L 117.046875 34.335938 L 117.046875 36.964844 L 114.046875 36.964844 L 114.046875 34.335938 L 113.109375 34.335938 L 112.546875 35.460938 L 111.796875 35.460938 L 112.359375 36.964844 L 109.921875 37.152344 C 110.109375 37.71875 110.109375 38.46875 110.109375 39.03125 C 110.109375 39.785156 109.921875 40.347656 109.734375 40.910156 L 135.429688 40.910156 L 135.429688 36.027344 L 118.550781 36.027344 Z M 118.550781 35.839844 " fill-opacity="1" fill-rule="nonzero"/><path fill="#000000" d="M 109.921875 36.964844 L 112.359375 36.777344 L 111.796875 35.273438 L 109.171875 35.273438 C 109.546875 35.839844 109.734375 36.402344 109.921875 36.964844 Z M 109.921875 36.964844 " fill-opacity="1" fill-rule="nonzero"/><path fill="#000000" d="M 94.164062 35.273438 C 94.539062 35.839844 94.914062 36.589844 95.101562 37.339844 L 97.914062 37.339844 C 98.101562 36.589844 98.289062 35.839844 98.855469 35.273438 Z M 94.164062 35.273438 " fill-opacity="1" fill-rule="nonzero"/><path fill="#000000" d="M 83.472656 35.273438 L 81.785156 35.273438 L 81.222656 36.777344 L 82.722656 36.777344 C 82.910156 36.402344 83.285156 35.839844 83.472656 35.273438 Z M 83.472656 35.273438 " fill-opacity="1" fill-rule="nonzero"/><path fill="#000000" d="M 135.617188 35.839844 L 135.617188 40.722656 L 135.996094 35.839844 Z M 135.617188 35.839844 " fill-opacity="1" fill-rule="nonzero"/><g clip-path="url(#f4d62d3fb6)"><path fill="#000000" d="M 88.910156 41.851562 C 87.972656 41.851562 87.222656 41.472656 86.660156 40.722656 L 83.285156 40.722656 C 84.035156 42.976562 86.285156 44.667969 88.910156 44.667969 C 91.539062 44.667969 93.789062 42.976562 94.539062 40.722656 L 91.164062 40.722656 C 90.601562 41.472656 89.851562 41.851562 88.910156 41.851562 Z M 88.910156 41.851562 " fill-opacity="1" fill-rule="nonzero"/></g><path fill="#000000" d="M 88.910156 32.832031 C 86.847656 32.832031 85.160156 33.773438 84.035156 35.273438 L 93.789062 35.273438 C 92.664062 33.773438 90.789062 32.832031 88.910156 32.832031 Z M 88.910156 32.832031 " fill-opacity="1" fill-rule="nonzero"/><path fill="#000000" d="M 85.910156 38.84375 C 85.910156 38.28125 86.097656 37.53125 86.472656 37.152344 L 83.285156 36.964844 C 83.097656 37.53125 82.910156 38.28125 82.910156 38.84375 C 82.910156 39.597656 83.097656 40.160156 83.285156 40.722656 L 86.660156 40.722656 C 86.097656 40.347656 85.910156 39.597656 85.910156 38.84375 Z M 85.910156 38.84375 " fill-opacity="1" fill-rule="nonzero"/><path fill="#000000" d="M 91.914062 38.84375 C 91.914062 39.597656 91.726562 40.347656 91.164062 40.722656 L 94.539062 40.722656 C 94.726562 40.160156 94.914062 39.40625 94.914062 38.84375 C 94.914062 38.28125 94.914062 37.90625 94.726562 37.53125 L 91.539062 37.339844 C 91.726562 37.71875 91.914062 38.28125 91.914062 38.84375 Z M 91.914062 38.84375 " fill-opacity="1" fill-rule="nonzero"/><path fill="#000000" d="M 83.097656 36.964844 L 86.285156 37.152344 C 86.847656 36.402344 87.785156 35.839844 88.722656 35.839844 C 89.851562 35.839844 90.789062 36.402344 91.351562 37.339844 L 94.539062 37.53125 C 94.351562 36.777344 93.976562 36.027344 93.601562 35.460938 L 83.847656 35.460938 C 83.660156 35.839844 83.285156 36.402344 83.097656 36.964844 Z M 83.097656 36.964844 " fill-opacity="1" fill-rule="nonzero"/><path fill="#000000" d="M 90.414062 38.84375 C 90.414062 39.042969 90.375 39.234375 90.296875 39.417969 C 90.222656 39.605469 90.113281 39.765625 89.972656 39.90625 C 89.832031 40.046875 89.671875 40.15625 89.484375 40.234375 C 89.300781 40.308594 89.109375 40.347656 88.910156 40.347656 C 88.714844 40.347656 88.523438 40.308594 88.335938 40.234375 C 88.152344 40.15625 87.992188 40.046875 87.851562 39.90625 C 87.710938 39.765625 87.601562 39.605469 87.527344 39.417969 C 87.449219 39.234375 87.410156 39.042969 87.410156 38.84375 C 87.410156 38.644531 87.449219 38.453125 87.527344 38.269531 C 87.601562 38.085938 87.710938 37.921875 87.851562 37.78125 C 87.992188 37.640625 88.152344 37.53125 88.335938 37.457031 C 88.523438 37.378906 88.714844 37.339844 88.910156 37.339844 C 89.109375 37.339844 89.300781 37.378906 89.484375 37.457031 C 89.671875 37.53125 89.832031 37.640625 89.972656 37.78125 C 90.113281 37.921875 90.222656 38.085938 90.296875 38.269531 C 90.375 38.453125 90.414062 38.644531 90.414062 38.84375 Z M 90.414062 38.84375 " fill-opacity="1" fill-rule="nonzero"/><path fill="#000000" d="M 89.289062 36.589844 C 89.289062 36.695312 89.25 36.78125 89.175781 36.855469 C 89.105469 36.929688 89.015625 36.964844 88.910156 36.964844 C 88.808594 36.964844 88.71875 36.929688 88.648438 36.855469 C 88.574219 36.78125 88.535156 36.695312 88.535156 36.589844 C 88.535156 36.484375 88.574219 36.398438 88.648438 36.324219 C 88.71875 36.25 88.808594 36.214844 88.910156 36.214844 C 89.015625 36.214844 89.105469 36.25 89.175781 36.324219 C 89.25 36.398438 89.289062 36.484375 89.289062 36.589844 Z M 89.289062 36.589844 " fill-opacity="1" fill-rule="nonzero"/><path fill="#000000" d="M 87.222656 37.71875 C 87.222656 37.820312 87.1875 37.910156 87.113281 37.984375 C 87.039062 38.054688 86.953125 38.09375 86.847656 38.09375 C 86.746094 38.09375 86.65625 38.054688 86.582031 37.984375 C 86.511719 37.910156 86.472656 37.820312 86.472656 37.71875 C 86.472656 37.613281 86.511719 37.523438 86.582031 37.453125 C 86.65625 37.378906 86.746094 37.339844 86.847656 37.339844 C 86.953125 37.339844 87.039062 37.378906 87.113281 37.453125 C 87.1875 37.523438 87.222656 37.613281 87.222656 37.71875 Z M 87.222656 37.71875 " fill-opacity="1" fill-rule="nonzero"/><path fill="#000000" d="M 87.222656 39.972656 C 87.222656 40.074219 87.1875 40.164062 87.113281 40.238281 C 87.039062 40.3125 86.953125 40.347656 86.847656 40.347656 C 86.746094 40.347656 86.65625 40.3125 86.582031 40.238281 C 86.511719 40.164062 86.472656 40.074219 86.472656 39.972656 C 86.472656 39.867188 86.511719 39.78125 86.582031 39.707031 C 86.65625 39.632812 86.746094 39.597656 86.847656 39.597656 C 86.953125 39.597656 87.039062 39.632812 87.113281 39.707031 C 87.1875 39.78125 87.222656 39.867188 87.222656 39.972656 Z M 87.222656 39.972656 " fill-opacity="1" fill-rule="nonzero"/><path fill="#000000" d="M 89.289062 41.097656 C 89.289062 41.203125 89.25 41.292969 89.175781 41.363281 C 89.105469 41.4375 89.015625 41.472656 88.910156 41.472656 C 88.808594 41.472656 88.71875 41.4375 88.648438 41.363281 C 88.574219 41.292969 88.535156 41.203125 88.535156 41.097656 C 88.535156 40.996094 88.574219 40.90625 88.648438 40.832031 C 88.71875 40.761719 88.808594 40.722656 88.910156 40.722656 C 89.015625 40.722656 89.105469 40.761719 89.175781 40.832031 C 89.25 40.90625 89.289062 40.996094 89.289062 41.097656 Z M 89.289062 41.097656 " fill-opacity="1" fill-rule="nonzero"/><path fill="#000000" d="M 91.164062 39.972656 C 91.164062 40.074219 91.125 40.164062 91.054688 40.238281 C 90.980469 40.3125 90.890625 40.347656 90.789062 40.347656 C 90.683594 40.347656 90.597656 40.3125 90.523438 40.238281 C 90.449219 40.164062 90.414062 40.074219 90.414062 39.972656 C 90.414062 39.867188 90.449219 39.78125 90.523438 39.707031 C 90.597656 39.632812 90.683594 39.597656 90.789062 39.597656 C 90.890625 39.597656 90.980469 39.632812 91.054688 39.707031 C 91.125 39.78125 91.164062 39.867188 91.164062 39.972656 Z M 91.164062 39.972656 " fill-opacity="1" fill-rule="nonzero"/><path fill="#000000" d="M 91.164062 37.71875 C 91.164062 37.820312 91.125 37.910156 91.054688 37.984375 C 90.980469 38.054688 90.890625 38.09375 90.789062 38.09375 C 90.683594 38.09375 90.597656 38.054688 90.523438 37.984375 C 90.449219 37.910156 90.414062 37.820312 90.414062 37.71875 C 90.414062 37.613281 90.449219 37.523438 90.523438 37.453125 C 90.597656 37.378906 90.683594 37.339844 90.789062 37.339844 C 90.890625 37.339844 90.980469 37.378906 91.054688 37.453125 C 91.125 37.523438 91.164062 37.613281 91.164062 37.71875 Z M 91.164062 37.71875 " fill-opacity="1" fill-rule="nonzero"/><g clip-path="url(#317f27eb1d)"><path fill="#000000" d="M 103.917969 41.851562 C 102.980469 41.851562 102.230469 41.472656 101.667969 40.722656 L 98.289062 40.722656 C 99.042969 42.976562 101.292969 44.667969 103.917969 44.667969 C 106.542969 44.667969 108.796875 42.976562 109.546875 40.722656 L 106.167969 40.722656 C 105.605469 41.472656 104.855469 41.851562 103.917969 41.851562 Z M 103.917969 41.851562 " fill-opacity="1" fill-rule="nonzero"/></g><path fill="#000000" d="M 103.917969 32.832031 C 101.855469 32.832031 100.167969 33.773438 99.042969 35.273438 L 108.796875 35.273438 C 107.667969 33.773438 105.980469 32.832031 103.917969 32.832031 Z M 103.917969 32.832031 " fill-opacity="1" fill-rule="nonzero"/><path fill="#000000" d="M 100.917969 38.84375 C 100.917969 38.28125 101.105469 37.71875 101.292969 37.339844 L 98.101562 37.53125 C 97.914062 37.90625 97.914062 38.46875 97.914062 38.84375 C 97.914062 39.597656 98.101562 40.160156 98.289062 40.722656 L 101.667969 40.722656 C 101.105469 40.347656 100.917969 39.597656 100.917969 38.84375 Z M 100.917969 38.84375 " fill-opacity="1" fill-rule="nonzero"/><path fill="#000000" d="M 106.917969 38.84375 C 106.917969 39.597656 106.730469 40.347656 106.167969 40.722656 L 109.546875 40.722656 C 109.734375 40.160156 109.921875 39.40625 109.921875 38.84375 C 109.921875 38.28125 109.734375 37.53125 109.546875 36.964844 L 106.355469 37.152344 C 106.730469 37.53125 106.917969 38.28125 106.917969 38.84375 Z M 106.917969 38.84375 " fill-opacity="1" fill-rule="nonzero"/><path fill="#000000" d="M 98.101562 37.53125 L 101.292969 37.339844 C 101.855469 36.402344 102.792969 35.839844 103.917969 35.839844 C 104.855469 35.839844 105.792969 36.402344 106.355469 37.152344 L 109.546875 36.964844 C 109.359375 36.402344 108.984375 35.839844 108.796875 35.273438 L 99.042969 35.273438 C 98.667969 36.027344 98.289062 36.777344 98.101562 37.53125 Z M 98.101562 37.53125 " fill-opacity="1" fill-rule="nonzero"/><path fill="#000000" d="M 105.417969 38.84375 C 105.417969 39.042969 105.378906 39.234375 105.304688 39.417969 C 105.230469 39.605469 105.121094 39.765625 104.980469 39.90625 C 104.839844 40.046875 104.675781 40.15625 104.492188 40.234375 C 104.308594 40.308594 104.117188 40.347656 103.917969 40.347656 C 103.71875 40.347656 103.527344 40.308594 103.34375 40.234375 C 103.160156 40.15625 102.996094 40.046875 102.855469 39.90625 C 102.714844 39.765625 102.609375 39.605469 102.53125 39.417969 C 102.457031 39.234375 102.417969 39.042969 102.417969 38.84375 C 102.417969 38.644531 102.457031 38.453125 102.53125 38.269531 C 102.609375 38.085938 102.714844 37.921875 102.855469 37.78125 C 102.996094 37.640625 103.160156 37.53125 103.34375 37.457031 C 103.527344 37.378906 103.71875 37.339844 103.917969 37.339844 C 104.117188 37.339844 104.308594 37.378906 104.492188 37.457031 C 104.675781 37.53125 104.839844 37.640625 104.980469 37.78125 C 105.121094 37.921875 105.230469 38.085938 105.304688 38.269531 C 105.378906 38.453125 105.417969 38.644531 105.417969 38.84375 Z M 105.417969 38.84375 " fill-opacity="1" fill-rule="nonzero"/><path fill="#000000" d="M 104.292969 36.589844 C 104.292969 36.695312 104.257812 36.78125 104.183594 36.855469 C 104.109375 36.929688 104.023438 36.964844 103.917969 36.964844 C 103.816406 36.964844 103.726562 36.929688 103.652344 36.855469 C 103.578125 36.78125 103.542969 36.695312 103.542969 36.589844 C 103.542969 36.484375 103.578125 36.398438 103.652344 36.324219 C 103.726562 36.25 103.816406 36.214844 103.917969 36.214844 C 104.023438 36.214844 104.109375 36.25 104.183594 36.324219 C 104.257812 36.398438 104.292969 36.484375 104.292969 36.589844 Z M 104.292969 36.589844 " fill-opacity="1" fill-rule="nonzero"/><path fill="#000000" d="M 102.230469 37.71875 C 102.230469 37.820312 102.195312 37.910156 102.121094 37.984375 C 102.046875 38.054688 101.957031 38.09375 101.855469 38.09375 C 101.75 38.09375 101.664062 38.054688 101.589844 37.984375 C 101.515625 37.910156 101.480469 37.820312 101.480469 37.71875 C 101.480469 37.613281 101.515625 37.523438 101.589844 37.453125 C 101.664062 37.378906 101.75 37.339844 101.855469 37.339844 C 101.957031 37.339844 102.046875 37.378906 102.121094 37.453125 C 102.195312 37.523438 102.230469 37.613281 102.230469 37.71875 Z M 102.230469 37.71875 " fill-opacity="1" fill-rule="nonzero"/><path fill="#000000" d="M 102.230469 39.972656 C 102.230469 40.074219 102.195312 40.164062 102.121094 40.238281 C 102.046875 40.3125 101.957031 40.347656 101.855469 40.347656 C 101.75 40.347656 101.664062 40.3125 101.589844 40.238281 C 101.515625 40.164062 101.480469 40.074219 101.480469 39.972656 C 101.480469 39.867188 101.515625 39.78125 101.589844 39.707031 C 101.664062 39.632812 101.75 39.597656 101.855469 39.597656 C 101.957031 39.597656 102.046875 39.632812 102.121094 39.707031 C 102.195312 39.78125 102.230469 39.867188 102.230469 39.972656 Z M 102.230469 39.972656 " fill-opacity="1" fill-rule="nonzero"/><path fill="#000000" d="M 104.292969 41.097656 C 104.292969 41.203125 104.257812 41.292969 104.183594 41.363281 C 104.109375 41.4375 104.023438 41.472656 103.917969 41.472656 C 103.816406 41.472656 103.726562 41.4375 103.652344 41.363281 C 103.578125 41.292969 103.542969 41.203125 103.542969 41.097656 C 103.542969 40.996094 103.578125 40.90625 103.652344 40.832031 C 103.726562 40.761719 103.816406 40.722656 103.917969 40.722656 C 104.023438 40.722656 104.109375 40.761719 104.183594 40.832031 C 104.257812 40.90625 104.292969 40.996094 104.292969 41.097656 Z M 104.292969 41.097656 " fill-opacity="1" fill-rule="nonzero"/><path fill="#000000" d="M 106.355469 39.972656 C 106.355469 40.074219 106.320312 40.164062 106.246094 40.238281 C 106.171875 40.3125 106.085938 40.347656 105.980469 40.347656 C 105.878906 40.347656 105.789062 40.3125 105.714844 40.238281 C 105.644531 40.164062 105.605469 40.074219 105.605469 39.972656 C 105.605469 39.867188 105.644531 39.78125 105.714844 39.707031 C 105.789062 39.632812 105.878906 39.597656 105.980469 39.597656 C 106.085938 39.597656 106.171875 39.632812 106.246094 39.707031 C 106.320312 39.78125 106.355469 39.867188 106.355469 39.972656 Z M 106.355469 39.972656 " fill-opacity="1" fill-rule="nonzero"/><path fill="#000000" d="M 106.355469 37.71875 C 106.355469 37.820312 106.320312 37.910156 106.246094 37.984375 C 106.171875 38.054688 106.085938 38.09375 105.980469 38.09375 C 105.878906 38.09375 105.789062 38.054688 105.714844 37.984375 C 105.644531 37.910156 105.605469 37.820312 105.605469 37.71875 C 105.605469 37.613281 105.644531 37.523438 105.714844 37.453125 C 105.789062 37.378906 105.878906 37.339844 105.980469 37.339844 C 106.085938 37.339844 106.171875 37.378906 106.246094 37.453125 C 106.320312 37.523438 106.355469 37.613281 106.355469 37.71875 Z M 106.355469 37.71875 " fill-opacity="1" fill-rule="nonzero"/><g clip-path="url(#0b8bfe80df)"><path fill="#000000" d="M 19.882812 38.84375 C 19.882812 40.535156 18.570312 41.851562 16.882812 41.851562 C 15.195312 41.851562 13.878906 40.535156 13.878906 38.84375 C 13.878906 38.46875 13.878906 38.28125 14.070312 38.09375 L 11.066406 38.09375 C 11.066406 38.28125 11.066406 38.65625 11.066406 38.84375 C 11.066406 42.226562 13.691406 44.855469 17.070312 44.855469 C 20.445312 44.855469 23.070312 42.226562 23.070312 38.84375 C 23.070312 38.65625 23.070312 38.28125 23.070312 38.09375 L 20.070312 38.09375 C 19.882812 38.28125 19.882812 38.46875 19.882812 38.84375 Z M 19.882812 38.84375 " fill-opacity="1" fill-rule="nonzero"/></g><path fill="#000000" d="M 16.882812 32.832031 C 13.878906 32.832031 11.441406 35.085938 10.878906 38.09375 L 13.878906 38.09375 C 14.257812 36.777344 15.382812 35.839844 16.695312 35.839844 C 18.007812 35.839844 19.320312 36.777344 19.507812 38.09375 L 22.507812 38.09375 C 22.507812 35.085938 19.882812 32.832031 16.882812 32.832031 Z M 16.882812 32.832031 " fill-opacity="1" fill-rule="nonzero"/><path fill="#000000" d="M 15.382812 38.84375 C 15.382812 39.785156 16.132812 40.347656 16.882812 40.347656 C 17.632812 40.347656 18.382812 39.597656 18.382812 38.84375 C 18.382812 38.46875 18.382812 38.28125 18.195312 38.09375 L 15.570312 38.09375 C 15.382812 38.28125 15.382812 38.46875 15.382812 38.84375 Z M 15.382812 38.84375 " fill-opacity="1" fill-rule="nonzero"/><path fill="#000000" d="M 16.882812 37.339844 C 16.320312 37.339844 15.757812 37.71875 15.570312 38.09375 L 18.195312 38.09375 C 18.007812 37.53125 17.445312 37.339844 16.882812 37.339844 Z M 16.882812 37.339844 " fill-opacity="1" fill-rule="nonzero"/><path fill="#000000" d="M 17.257812 36.589844 C 17.257812 36.695312 17.21875 36.78125 17.148438 36.855469 C 17.074219 36.929688 16.984375 36.964844 16.882812 36.964844 C 16.777344 36.964844 16.691406 36.929688 16.617188 36.855469 C 16.542969 36.78125 16.507812 36.695312 16.507812 36.589844 C 16.507812 36.484375 16.542969 36.398438 16.617188 36.324219 C 16.691406 36.25 16.777344 36.214844 16.882812 36.214844 C 16.984375 36.214844 17.074219 36.25 17.148438 36.324219 C 17.21875 36.398438 17.257812 36.484375 17.257812 36.589844 Z M 17.257812 36.589844 " fill-opacity="1" fill-rule="nonzero"/><path fill="#000000" d="M 15.382812 37.71875 C 15.382812 37.820312 15.34375 37.910156 15.273438 37.984375 C 15.199219 38.054688 15.109375 38.09375 15.007812 38.09375 C 14.902344 38.09375 14.8125 38.054688 14.742188 37.984375 C 14.667969 37.910156 14.632812 37.820312 14.632812 37.71875 C 14.632812 37.613281 14.667969 37.523438 14.742188 37.453125 C 14.8125 37.378906 14.902344 37.339844 15.007812 37.339844 C 15.109375 37.339844 15.199219 37.378906 15.273438 37.453125 C 15.34375 37.523438 15.382812 37.613281 15.382812 37.71875 Z M 15.382812 37.71875 " fill-opacity="1" fill-rule="nonzero"/><path fill="#000000" d="M 15.382812 39.972656 C 15.382812 40.074219 15.34375 40.164062 15.273438 40.238281 C 15.199219 40.3125 15.109375 40.347656 15.007812 40.347656 C 14.902344 40.347656 14.8125 40.3125 14.742188 40.238281 C 14.667969 40.164062 14.632812 40.074219 14.632812 39.972656 C 14.632812 39.867188 14.667969 39.78125 14.742188 39.707031 C 14.8125 39.632812 14.902344 39.597656 15.007812 39.597656 C 15.109375 39.597656 15.199219 39.632812 15.273438 39.707031 C 15.34375 39.78125 15.382812 39.867188 15.382812 39.972656 Z M 15.382812 39.972656 " fill-opacity="1" fill-rule="nonzero"/><path fill="#000000" d="M 17.257812 41.097656 C 17.257812 41.203125 17.21875 41.292969 17.148438 41.363281 C 17.074219 41.4375 16.984375 41.472656 16.882812 41.472656 C 16.777344 41.472656 16.691406 41.4375 16.617188 41.363281 C 16.542969 41.292969 16.507812 41.203125 16.507812 41.097656 C 16.507812 40.996094 16.542969 40.90625 16.617188 40.832031 C 16.691406 40.761719 16.777344 40.722656 16.882812 40.722656 C 16.984375 40.722656 17.074219 40.761719 17.148438 40.832031 C 17.21875 40.90625 17.257812 40.996094 17.257812 41.097656 Z M 17.257812 41.097656 " fill-opacity="1" fill-rule="nonzero"/><path fill="#000000" d="M 19.320312 39.972656 C 19.320312 40.074219 19.285156 40.164062 19.210938 40.238281 C 19.136719 40.3125 19.050781 40.347656 18.945312 40.347656 C 18.84375 40.347656 18.753906 40.3125 18.679688 40.238281 C 18.605469 40.164062 18.570312 40.074219 18.570312 39.972656 C 18.570312 39.867188 18.605469 39.78125 18.679688 39.707031 C 18.753906 39.632812 18.84375 39.597656 18.945312 39.597656 C 19.050781 39.597656 19.136719 39.632812 19.210938 39.707031 C 19.285156 39.78125 19.320312 39.867188 19.320312 39.972656 Z M 19.320312 39.972656 " fill-opacity="1" fill-rule="nonzero"/><path fill="#000000" d="M 19.320312 37.71875 C 19.320312 37.820312 19.285156 37.910156 19.210938 37.984375 C 19.136719 38.054688 19.050781 38.09375 18.945312 38.09375 C 18.84375 38.09375 18.753906 38.054688 18.679688 37.984375 C 18.605469 37.910156 18.570312 37.820312 18.570312 37.71875 C 18.570312 37.613281 18.605469 37.523438 18.679688 37.453125 C 18.753906 37.378906 18.84375 37.339844 18.945312 37.339844 C 19.050781 37.339844 19.136719 37.378906 19.210938 37.453125 C 19.285156 37.523438 19.320312 37.613281 19.320312 37.71875 Z M 19.320312 37.71875 " fill-opacity="1" fill-rule="nonzero"/><g clip-path="url(#5a7718af34)"><path fill="#000000" d="M 34.890625 38.84375 C 34.890625 40.535156 33.578125 41.851562 31.886719 41.851562 C 30.199219 41.851562 28.886719 40.535156 28.886719 38.84375 C 28.886719 38.46875 28.886719 38.28125 29.074219 38.09375 L 26.074219 38.09375 C 26.074219 38.28125 26.074219 38.65625 26.074219 38.84375 C 26.074219 42.226562 28.699219 44.855469 32.074219 44.855469 C 35.453125 44.855469 38.078125 42.226562 38.078125 38.84375 C 38.078125 38.65625 38.078125 38.28125 38.078125 38.09375 L 35.078125 38.09375 C 34.890625 38.28125 34.890625 38.46875 34.890625 38.84375 Z M 34.890625 38.84375 " fill-opacity="1" fill-rule="nonzero"/></g><path fill="#000000" d="M 31.886719 32.832031 C 28.886719 32.832031 26.261719 35.085938 25.886719 38.09375 L 28.886719 38.09375 C 29.261719 36.777344 30.386719 35.839844 31.699219 35.839844 C 33.015625 35.839844 34.328125 36.777344 34.515625 38.09375 L 37.515625 38.09375 C 37.515625 35.085938 34.890625 32.832031 31.886719 32.832031 Z M 31.886719 32.832031 " fill-opacity="1" fill-rule="nonzero"/><path fill="#000000" d="M 30.386719 38.84375 C 30.386719 39.785156 31.136719 40.347656 31.886719 40.347656 C 32.636719 40.347656 33.390625 39.597656 33.390625 38.84375 C 33.390625 38.46875 33.390625 38.28125 33.203125 38.09375 L 30.574219 38.09375 C 30.386719 38.28125 30.386719 38.46875 30.386719 38.84375 Z M 30.386719 38.84375 " fill-opacity="1" fill-rule="nonzero"/><path fill="#000000" d="M 31.886719 37.339844 C 31.324219 37.339844 30.761719 37.71875 30.574219 38.09375 L 33.203125 38.09375 C 33.015625 37.53125 32.449219 37.339844 31.886719 37.339844 Z M 31.886719 37.339844 " fill-opacity="1" fill-rule="nonzero"/><path fill="#000000" d="M 32.261719 36.589844 C 32.261719 36.695312 32.226562 36.78125 32.152344 36.855469 C 32.082031 36.929688 31.992188 36.964844 31.886719 36.964844 C 31.785156 36.964844 31.695312 36.929688 31.621094 36.855469 C 31.550781 36.78125 31.511719 36.695312 31.511719 36.589844 C 31.511719 36.484375 31.550781 36.398438 31.621094 36.324219 C 31.695312 36.25 31.785156 36.214844 31.886719 36.214844 C 31.992188 36.214844 32.082031 36.25 32.152344 36.324219 C 32.226562 36.398438 32.261719 36.484375 32.261719 36.589844 Z M 32.261719 36.589844 " fill-opacity="1" fill-rule="nonzero"/><path fill="#000000" d="M 30.386719 37.71875 C 30.386719 37.820312 30.351562 37.910156 30.277344 37.984375 C 30.203125 38.054688 30.117188 38.09375 30.011719 38.09375 C 29.910156 38.09375 29.820312 38.054688 29.746094 37.984375 C 29.675781 37.910156 29.636719 37.820312 29.636719 37.71875 C 29.636719 37.613281 29.675781 37.523438 29.746094 37.453125 C 29.820312 37.378906 29.910156 37.339844 30.011719 37.339844 C 30.117188 37.339844 30.203125 37.378906 30.277344 37.453125 C 30.351562 37.523438 30.386719 37.613281 30.386719 37.71875 Z M 30.386719 37.71875 " fill-opacity="1" fill-rule="nonzero"/><path fill="#000000" d="M 30.386719 39.972656 C 30.386719 40.074219 30.351562 40.164062 30.277344 40.238281 C 30.203125 40.3125 30.117188 40.347656 30.011719 40.347656 C 29.910156 40.347656 29.820312 40.3125 29.746094 40.238281 C 29.675781 40.164062 29.636719 40.074219 29.636719 39.972656 C 29.636719 39.867188 29.675781 39.78125 29.746094 39.707031 C 29.820312 39.632812 29.910156 39.597656 30.011719 39.597656 C 30.117188 39.597656 30.203125 39.632812 30.277344 39.707031 C 30.351562 39.78125 30.386719 39.867188 30.386719 39.972656 Z M 30.386719 39.972656 " fill-opacity="1" fill-rule="nonzero"/><path fill="#000000" d="M 32.261719 41.097656 C 32.261719 41.203125 32.226562 41.292969 32.152344 41.363281 C 32.082031 41.4375 31.992188 41.472656 31.886719 41.472656 C 31.785156 41.472656 31.695312 41.4375 31.621094 41.363281 C 31.550781 41.292969 31.511719 41.203125 31.511719 41.097656 C 31.511719 40.996094 31.550781 40.90625 31.621094 40.832031 C 31.695312 40.761719 31.785156 40.722656 31.886719 40.722656 C 31.992188 40.722656 32.082031 40.761719 32.152344 40.832031 C 32.226562 40.90625 32.261719 40.996094 32.261719 41.097656 Z M 32.261719 41.097656 " fill-opacity="1" fill-rule="nonzero"/><path fill="#000000" d="M 34.328125 39.972656 C 34.328125 40.074219 34.289062 40.164062 34.21875 40.238281 C 34.144531 40.3125 34.054688 40.347656 33.953125 40.347656 C 33.847656 40.347656 33.757812 40.3125 33.6875 40.238281 C 33.613281 40.164062 33.578125 40.074219 33.578125 39.972656 C 33.578125 39.867188 33.613281 39.78125 33.6875 39.707031 C 33.757812 39.632812 33.847656 39.597656 33.953125 39.597656 C 34.054688 39.597656 34.144531 39.632812 34.21875 39.707031 C 34.289062 39.78125 34.328125 39.867188 34.328125 39.972656 Z M 34.328125 39.972656 " fill-opacity="1" fill-rule="nonzero"/><path fill="#000000" d="M 34.328125 37.71875 C 34.328125 37.820312 34.289062 37.910156 34.21875 37.984375 C 34.144531 38.054688 34.054688 38.09375 33.953125 38.09375 C 33.847656 38.09375 33.757812 38.054688 33.6875 37.984375 C 33.613281 37.910156 33.578125 37.820312 33.578125 37.71875 C 33.578125 37.613281 33.613281 37.523438 33.6875 37.453125 C 33.757812 37.378906 33.847656 37.339844 33.953125 37.339844 C 34.054688 37.339844 34.144531 37.378906 34.21875 37.453125 C 34.289062 37.523438 34.328125 37.613281 34.328125 37.71875 Z M 34.328125 37.71875 " fill-opacity="1" fill-rule="nonzero"/><g clip-path="url(#b9720f5a09)"><path fill="#000000" d="M 11.253906 30.953125 L 37.703125 30.953125 L 37.890625 31.519531 L 50.832031 31.519531 L 50.832031 29.640625 L 53.460938 29.640625 L 53.460938 31.519531 L 65.089844 31.519531 L 65.089844 30.015625 L 66.402344 30.015625 L 66.402344 31.519531 L 73.90625 31.519531 L 73.90625 30.578125 L 76.53125 30.578125 L 76.53125 31.519531 L 83.285156 31.519531 L 83.472656 30.953125 L 110.109375 30.953125 L 110.296875 31.519531 L 114.046875 31.519531 L 114.046875 29.074219 L 117.046875 29.074219 L 117.046875 31.519531 L 127.554688 31.519531 L 127.554688 0.144531 L 0 0.144531 L 0 31.519531 L 10.878906 31.519531 Z M 11.253906 30.953125 " fill-opacity="1" fill-rule="nonzero"/></g><path fill="#000000" d="M 24.761719 30.953125 L 11.253906 30.953125 L 10.878906 31.519531 L 37.890625 31.519531 L 37.703125 30.953125 Z M 24.761719 30.953125 " fill-opacity="1" fill-rule="nonzero"/><path fill="#000000" d="M 110.109375 30.953125 L 83.472656 30.953125 L 83.285156 31.519531 L 110.296875 31.519531 Z M 110.109375 30.953125 " fill-opacity="1" fill-rule="nonzero"/><path fill="#000000" d="M 114.046875 31.519531 L 117.046875 31.519531 L 117.046875 34.148438 L 114.046875 34.148438 Z M 114.046875 31.519531 " fill-opacity="1" fill-rule="nonzero"/><path fill="#000000" d="M 114.046875 34.335938 L 117.046875 34.335938 L 117.046875 36.964844 L 114.046875 36.964844 Z M 114.046875 34.335938 " fill-opacity="1" fill-rule="nonzero"/><path fill="#000000" d="M 114.046875 29.074219 L 117.046875 29.074219 L 117.046875 31.519531 L 114.046875 31.519531 Z M 114.046875 29.074219 " fill-opacity="1" fill-rule="nonzero"/><path fill="#000000" d="M 46.332031 37.339844 C 46.332031 37.71875 46.707031 38.09375 47.082031 38.09375 L 57.960938 38.09375 C 58.335938 38.09375 58.710938 37.71875 58.710938 37.339844 L 58.710938 34.335938 L 46.332031 34.335938 Z M 46.332031 37.339844 " fill-opacity="1" fill-rule="nonzero"/><path fill="#000000" d="M 58.148438 32.644531 L 53.648438 32.644531 L 53.648438 33.773438 L 51.019531 33.773438 L 51.019531 32.644531 L 47.269531 32.644531 C 46.894531 32.644531 46.519531 33.019531 46.519531 33.394531 L 46.519531 34.148438 L 58.898438 34.148438 L 58.898438 33.394531 C 58.898438 33.019531 58.523438 32.644531 58.148438 32.644531 Z M 58.148438 32.644531 " fill-opacity="1" fill-rule="nonzero"/><path fill="#000000" d="M 66.402344 34.335938 L 62.089844 34.335938 L 62.089844 35.839844 C 62.089844 36.214844 62.464844 36.589844 62.839844 36.589844 L 68.839844 36.589844 C 69.214844 36.589844 69.589844 36.214844 69.589844 35.839844 L 69.589844 34.335938 L 66.402344 34.335938 C 66.402344 34.148438 66.402344 34.335938 66.402344 34.335938 Z M 66.402344 34.335938 " fill-opacity="1" fill-rule="nonzero"/><path fill="#000000" d="M 65.089844 33.394531 L 62.839844 33.394531 C 62.464844 33.394531 62.089844 33.773438 62.089844 34.148438 L 65.089844 34.148438 C 65.089844 34.148438 65.089844 33.394531 65.089844 33.394531 Z M 65.089844 33.394531 " fill-opacity="1" fill-rule="nonzero"/><path fill="#000000" d="M 68.839844 33.394531 L 66.402344 33.394531 L 66.402344 34.148438 L 69.589844 34.148438 C 69.589844 33.773438 69.214844 33.394531 68.839844 33.394531 Z M 68.839844 33.394531 " fill-opacity="1" fill-rule="nonzero"/><path fill="#000000" d="M 71.28125 35.839844 C 71.28125 36.214844 71.65625 36.589844 72.03125 36.589844 L 78.03125 36.589844 C 78.40625 36.589844 78.78125 36.214844 78.78125 35.839844 L 78.78125 34.335938 L 71.28125 34.335938 C 71.28125 34.148438 71.28125 35.839844 71.28125 35.839844 Z M 71.28125 35.839844 " fill-opacity="1" fill-rule="nonzero"/><path fill="#000000" d="M 78.03125 33.394531 L 76.53125 33.394531 L 76.53125 33.960938 L 73.90625 33.960938 L 73.90625 33.394531 L 72.03125 33.394531 C 71.65625 33.394531 71.28125 33.773438 71.28125 34.148438 L 78.78125 34.148438 C 78.78125 33.773438 78.59375 33.394531 78.03125 33.394531 Z M 78.03125 33.394531 " fill-opacity="1" fill-rule="nonzero"/><path fill="#000000" d="M 50.832031 31.519531 L 53.460938 31.519531 L 53.460938 32.644531 L 50.832031 32.644531 Z M 50.832031 31.519531 " fill-opacity="1" fill-rule="nonzero"/><path fill="#000000" d="M 50.832031 29.640625 L 53.460938 29.640625 L 53.460938 31.519531 L 50.832031 31.519531 Z M 50.832031 29.640625 " fill-opacity="1" fill-rule="nonzero"/><path fill="#000000" d="M 50.832031 32.644531 L 53.460938 32.644531 L 53.460938 33.773438 L 50.832031 33.773438 Z M 50.832031 32.644531 " fill-opacity="1" fill-rule="nonzero"/><path fill="#000000" d="M 65.089844 31.519531 L 66.402344 31.519531 L 66.402344 32.644531 L 65.089844 32.644531 Z M 65.089844 31.519531 " fill-opacity="1" fill-rule="nonzero"/><path fill="#000000" d="M 65.089844 32.644531 L 66.402344 32.644531 L 66.402344 33.394531 L 65.089844 33.394531 Z M 65.089844 32.644531 " fill-opacity="1" fill-rule="nonzero"/><path fill="#000000" d="M 65.089844 30.015625 L 66.402344 30.015625 L 66.402344 31.519531 L 65.089844 31.519531 Z M 65.089844 30.015625 " fill-opacity="1" fill-rule="nonzero"/><path fill="#000000" d="M 65.089844 33.394531 L 66.402344 33.394531 L 66.402344 34.148438 L 65.089844 34.148438 Z M 65.089844 33.394531 " fill-opacity="1" fill-rule="nonzero"/><path fill="#000000" d="M 73.90625 31.519531 L 76.53125 31.519531 L 76.53125 32.644531 L 73.90625 32.644531 Z M 73.90625 31.519531 " fill-opacity="1" fill-rule="nonzero"/><path fill="#000000" d="M 73.90625 32.644531 L 76.53125 32.644531 L 76.53125 33.394531 L 73.90625 33.394531 Z M 73.90625 32.644531 " fill-opacity="1" fill-rule="nonzero"/><path fill="#000000" d="M 73.90625 30.578125 L 76.53125 30.578125 L 76.53125 31.519531 L 73.90625 31.519531 Z M 73.90625 30.578125 " fill-opacity="1" fill-rule="nonzero"/><path fill="#000000" d="M 73.90625 33.394531 L 76.53125 33.394531 L 76.53125 33.960938 L 73.90625 33.960938 Z M 73.90625 33.394531 " fill-opacity="1" fill-rule="nonzero"/><path fill="#000000" d="M 8.816406 36.964844 L 10.878906 31.519531 L 3.5625 31.519531 L 3.5625 34.523438 L 4.878906 34.523438 L 5.628906 38.09375 L 8.816406 38.09375 Z M 8.816406 36.964844 " fill-opacity="1" fill-rule="nonzero"/><path fill="#000000" d="M 10.878906 31.519531 L 8.816406 36.964844 L 8.816406 38.09375 L 11.816406 31.519531 Z M 10.878906 31.519531 " fill-opacity="1" fill-rule="nonzero"/><path fill="#000000" d="M 76.53125 32.644531 L 76.53125 33.394531 L 78.03125 33.394531 C 78.40625 33.394531 78.78125 33.773438 78.78125 34.148438 L 82.160156 34.148438 L 82.722656 32.644531 C 82.910156 32.644531 76.53125 32.644531 76.53125 32.644531 Z M 76.53125 32.644531 " fill-opacity="1" fill-rule="nonzero"/><path fill="#000000" d="M 72.03125 33.394531 L 73.90625 33.394531 L 73.90625 32.644531 L 66.402344 32.644531 L 66.402344 33.394531 L 68.839844 33.394531 C 69.214844 33.394531 69.589844 33.773438 69.589844 34.148438 L 71.28125 34.148438 C 71.28125 33.773438 71.65625 33.394531 72.03125 33.394531 Z M 72.03125 33.394531 " fill-opacity="1" fill-rule="nonzero"/><path fill="#000000" d="M 62.839844 33.394531 L 65.089844 33.394531 L 65.089844 32.644531 L 58.148438 32.644531 C 58.523438 32.644531 58.898438 33.019531 58.898438 33.394531 L 58.898438 34.148438 L 62.089844 34.148438 C 62.089844 33.773438 62.277344 33.394531 62.839844 33.394531 Z M 62.839844 33.394531 " fill-opacity="1" fill-rule="nonzero"/><path fill="#000000" d="M 47.082031 32.644531 L 38.265625 32.644531 L 38.828125 34.148438 L 46.332031 34.148438 L 46.332031 33.394531 C 46.332031 33.019531 46.707031 32.644531 47.082031 32.644531 Z M 47.082031 32.644531 " fill-opacity="1" fill-rule="nonzero"/><path fill="#000000" d="M 37.140625 32.644531 L 38.265625 32.644531 L 37.890625 31.519531 L 11.816406 31.519531 L 8.816406 37.90625 L 10.503906 37.90625 C 10.691406 36.589844 11.253906 35.273438 12.378906 34.148438 C 13.503906 33.019531 15.195312 32.269531 16.882812 32.269531 C 18.570312 32.269531 20.257812 33.019531 21.382812 34.148438 C 22.320312 35.085938 23.070312 36.402344 23.257812 37.90625 L 25.699219 37.90625 C 25.886719 36.589844 26.449219 35.273438 27.574219 34.148438 C 28.699219 33.019531 30.386719 32.269531 32.074219 32.269531 C 33.765625 32.269531 35.453125 33.019531 36.578125 34.148438 C 37.515625 35.085938 38.265625 36.402344 38.453125 37.90625 L 40.140625 37.90625 L 40.140625 36.777344 L 39.203125 34.148438 L 37.515625 34.148438 Z M 37.140625 32.644531 " fill-opacity="1" fill-rule="nonzero"/><path fill="#000000" d="M 37.140625 32.644531 L 37.140625 34.148438 L 39.015625 34.148438 L 38.453125 32.644531 Z M 37.140625 32.644531 " fill-opacity="1" fill-rule="nonzero"/><path fill="#000000" d="M 84.410156 34.335938 L 82.347656 34.148438 L 81.972656 35.273438 L 83.660156 35.273438 C 83.847656 34.898438 84.035156 34.710938 84.410156 34.335938 Z M 84.410156 34.335938 " fill-opacity="1" fill-rule="nonzero"/><path fill="#000000" d="M 83.285156 31.519531 L 82.910156 32.644531 L 84.785156 32.644531 L 84.785156 33.960938 C 85.910156 33.019531 87.410156 32.457031 88.910156 32.457031 C 90.601562 32.457031 92.289062 33.207031 93.414062 34.335938 C 93.789062 34.710938 93.976562 35.085938 94.164062 35.273438 L 98.480469 35.273438 C 98.667969 34.898438 99.042969 34.523438 99.230469 34.335938 C 100.355469 33.207031 102.042969 32.457031 103.730469 32.457031 C 105.417969 32.457031 107.105469 33.207031 108.234375 34.335938 C 108.609375 34.710938 108.796875 35.085938 108.984375 35.273438 L 111.609375 35.273438 L 110.109375 31.519531 Z M 83.285156 31.519531 " fill-opacity="1" fill-rule="nonzero"/><path fill="#000000" d="M 84.785156 33.960938 L 84.785156 32.644531 L 82.910156 32.644531 L 82.347656 34.148438 L 84.597656 34.148438 C 84.597656 34.148438 84.597656 33.960938 84.785156 33.960938 Z M 84.785156 33.960938 " fill-opacity="1" fill-rule="nonzero"/><g clip-path="url(#e00054d370)"><path fill="#000000" d="M 158.691406 37.152344 L 158.691406 35.460938 L 158.878906 35.085938 L 158.878906 33.773438 C 158.503906 33.207031 158.503906 32.269531 158.503906 32.269531 C 158.503906 32.082031 159.066406 32.082031 159.066406 32.082031 L 159.066406 23.4375 C 159.066406 22.5 157.941406 21.9375 157.941406 21.9375 C 158.316406 19.492188 157.191406 14.046875 157.191406 14.046875 C 158.128906 13.859375 158.503906 13.105469 158.503906 13.105469 L 158.316406 11.792969 C 158.128906 10.851562 157.003906 10.851562 157.003906 10.851562 C 156.628906 7.46875 154.941406 7.09375 154.941406 7.09375 L 149.875 6.34375 L 149.875 6.71875 L 149.3125 6.71875 L 149.3125 6.34375 L 142.183594 5.402344 C 142.183594 5.402344 142.183594 5.59375 142.183594 5.78125 L 141.058594 5.402344 C 141.058594 5.402344 141.058594 5.402344 141.058594 5.214844 L 138.621094 4.839844 C 135.242188 5.78125 135.054688 8.410156 135.054688 8.410156 L 135.054688 11.226562 C 134.492188 11.605469 134.492188 12.355469 134.492188 12.355469 C 134.304688 13.480469 133.929688 29.640625 133.929688 29.640625 L 135.617188 29.640625 L 135.617188 33.207031 L 136.933594 34.148438 L 135.804688 35.839844 L 136.183594 35.839844 L 135.804688 40.722656 L 135.804688 41.472656 L 137.683594 41.472656 C 137.308594 40.722656 137.121094 39.785156 137.121094 38.84375 C 137.121094 37.152344 137.871094 35.460938 138.996094 34.335938 C 140.121094 33.207031 141.808594 32.457031 143.496094 32.457031 C 145.183594 32.457031 146.875 33.207031 148 34.335938 C 149.125 35.460938 149.875 37.152344 149.875 38.84375 C 149.875 39.785156 149.6875 40.722656 149.3125 41.472656 L 154 41.472656 L 158.128906 40.910156 C 159.066406 40.535156 159.253906 39.785156 159.253906 39.785156 L 159.253906 37.90625 C 159.066406 37.339844 158.691406 37.152344 158.691406 37.152344 Z M 143.308594 12.917969 L 143.308594 19.683594 L 139.746094 19.304688 C 138.058594 18.929688 138.058594 17.804688 138.058594 17.804688 L 138.058594 13.105469 C 138.058594 12.355469 139.183594 12.355469 139.183594 12.355469 L 142.558594 12.355469 C 143.308594 12.167969 143.308594 12.917969 143.308594 12.917969 Z M 145.375 20.058594 C 144.621094 19.871094 144.808594 19.117188 144.808594 19.117188 L 144.808594 13.671875 C 144.808594 12.355469 146.3125 12.167969 146.3125 12.167969 L 152.875 12.355469 C 154 12.355469 154.375 13.480469 154.375 13.480469 L 154.941406 21.5625 Z M 145.375 20.058594 " fill-opacity="1" fill-rule="nonzero"/></g><path fill="#000000" d="M 142.558594 5.214844 L 149.3125 5.78125 L 149.3125 5.402344 L 149.875 5.402344 L 149.875 5.78125 L 150.4375 5.78125 C 151.375 5.78125 151.9375 6.34375 151.9375 6.34375 L 152.5 6.34375 L 152.5 4.089844 L 151.9375 4.089844 C 151.5625 4.652344 150.25 4.652344 150.25 4.652344 L 141.996094 4.089844 C 141.058594 4.089844 140.871094 4.652344 140.871094 5.027344 L 141.996094 5.214844 C 142.371094 5.214844 142.558594 5.214844 142.558594 5.214844 Z M 142.558594 5.214844 " fill-opacity="1" fill-rule="nonzero"/><path fill="#000000" d="M 140.871094 5.402344 L 141.996094 5.78125 C 141.996094 5.59375 141.996094 5.59375 141.996094 5.402344 Z M 140.871094 5.402344 " fill-opacity="1" fill-rule="nonzero"/><path fill="#000000" d="M 149.3125 6.34375 L 149.875 6.34375 L 149.875 5.78125 L 149.3125 5.78125 Z M 149.3125 6.34375 " fill-opacity="1" fill-rule="nonzero"/><path fill="#000000" d="M 149.3125 6.71875 L 149.875 6.71875 L 149.875 6.34375 L 149.3125 6.34375 Z M 149.3125 6.71875 " fill-opacity="1" fill-rule="nonzero"/><path fill="#000000" d="M 149.3125 5.402344 L 149.3125 5.78125 L 149.875 5.78125 L 149.875 5.402344 Z M 149.3125 5.402344 " fill-opacity="1" fill-rule="nonzero"/><g clip-path="url(#9267f5b6d4)"><path fill="#000000" d="M 143.496094 41.851562 C 142.933594 41.851562 142.558594 41.664062 141.996094 41.472656 L 138.058594 41.472656 C 138.996094 43.542969 141.058594 44.855469 143.496094 44.855469 C 145.9375 44.855469 147.8125 43.542969 148.9375 41.472656 L 144.996094 41.472656 C 144.433594 41.664062 144.058594 41.851562 143.496094 41.851562 Z M 143.496094 41.851562 " fill-opacity="1" fill-rule="nonzero"/></g><path fill="#000000" d="M 143.496094 32.832031 C 140.121094 32.832031 137.496094 35.460938 137.496094 38.84375 C 137.496094 39.785156 137.683594 40.722656 138.058594 41.472656 L 141.996094 41.472656 C 141.058594 40.910156 140.308594 39.972656 140.308594 38.84375 C 140.308594 37.152344 141.621094 35.839844 143.308594 35.839844 C 144.996094 35.839844 146.3125 37.152344 146.3125 38.84375 C 146.3125 39.972656 145.75 40.910156 144.808594 41.472656 L 148.9375 41.472656 C 149.3125 40.722656 149.5 39.785156 149.5 38.84375 C 149.5 35.460938 146.875 32.832031 143.496094 32.832031 Z M 143.496094 32.832031 " fill-opacity="1" fill-rule="nonzero"/><path fill="#000000" d="M 144.996094 38.84375 C 144.996094 39.042969 144.960938 39.234375 144.882812 39.417969 C 144.808594 39.605469 144.699219 39.765625 144.558594 39.90625 C 144.417969 40.046875 144.253906 40.15625 144.070312 40.234375 C 143.886719 40.308594 143.695312 40.347656 143.496094 40.347656 C 143.296875 40.347656 143.105469 40.308594 142.921875 40.234375 C 142.738281 40.15625 142.578125 40.046875 142.4375 39.90625 C 142.296875 39.765625 142.1875 39.605469 142.109375 39.417969 C 142.035156 39.234375 141.996094 39.042969 141.996094 38.84375 C 141.996094 38.644531 142.035156 38.453125 142.109375 38.269531 C 142.1875 38.085938 142.296875 37.921875 142.4375 37.78125 C 142.578125 37.640625 142.738281 37.53125 142.921875 37.457031 C 143.105469 37.378906 143.296875 37.339844 143.496094 37.339844 C 143.695312 37.339844 143.886719 37.378906 144.070312 37.457031 C 144.253906 37.53125 144.417969 37.640625 144.558594 37.78125 C 144.699219 37.921875 144.808594 38.085938 144.882812 38.269531 C 144.960938 38.453125 144.996094 38.644531 144.996094 38.84375 Z M 144.996094 38.84375 " fill-opacity="1" fill-rule="nonzero"/><path fill="#000000" d="M 143.871094 36.589844 C 143.871094 36.695312 143.835938 36.78125 143.761719 36.855469 C 143.6875 36.929688 143.601562 36.964844 143.496094 36.964844 C 143.394531 36.964844 143.304688 36.929688 143.230469 36.855469 C 143.160156 36.78125 143.121094 36.695312 143.121094 36.589844 C 143.121094 36.484375 143.160156 36.398438 143.230469 36.324219 C 143.304688 36.25 143.394531 36.214844 143.496094 36.214844 C 143.601562 36.214844 143.6875 36.25 143.761719 36.324219 C 143.835938 36.398438 143.871094 36.484375 143.871094 36.589844 Z M 143.871094 36.589844 " fill-opacity="1" fill-rule="nonzero"/><path fill="#000000" d="M 141.808594 37.71875 C 141.808594 37.820312 141.773438 37.910156 141.699219 37.984375 C 141.625 38.054688 141.539062 38.09375 141.433594 38.09375 C 141.332031 38.09375 141.242188 38.054688 141.167969 37.984375 C 141.09375 37.910156 141.058594 37.820312 141.058594 37.71875 C 141.058594 37.613281 141.09375 37.523438 141.167969 37.453125 C 141.242188 37.378906 141.332031 37.339844 141.433594 37.339844 C 141.539062 37.339844 141.625 37.378906 141.699219 37.453125 C 141.773438 37.523438 141.808594 37.613281 141.808594 37.71875 Z M 141.808594 37.71875 " fill-opacity="1" fill-rule="nonzero"/><path fill="#000000" d="M 141.808594 39.972656 C 141.808594 40.074219 141.773438 40.164062 141.699219 40.238281 C 141.625 40.3125 141.539062 40.347656 141.433594 40.347656 C 141.332031 40.347656 141.242188 40.3125 141.167969 40.238281 C 141.09375 40.164062 141.058594 40.074219 141.058594 39.972656 C 141.058594 39.867188 141.09375 39.78125 141.167969 39.707031 C 141.242188 39.632812 141.332031 39.597656 141.433594 39.597656 C 141.539062 39.597656 141.625 39.632812 141.699219 39.707031 C 141.773438 39.78125 141.808594 39.867188 141.808594 39.972656 Z M 141.808594 39.972656 " fill-opacity="1" fill-rule="nonzero"/><path fill="#000000" d="M 143.871094 41.097656 C 143.871094 41.203125 143.835938 41.292969 143.761719 41.363281 C 143.6875 41.4375 143.601562 41.472656 143.496094 41.472656 C 143.394531 41.472656 143.304688 41.4375 143.230469 41.363281 C 143.160156 41.292969 143.121094 41.203125 143.121094 41.097656 C 143.121094 40.996094 143.160156 40.90625 143.230469 40.832031 C 143.304688 40.761719 143.394531 40.722656 143.496094 40.722656 C 143.601562 40.722656 143.6875 40.761719 143.761719 40.832031 C 143.835938 40.90625 143.871094 40.996094 143.871094 41.097656 Z M 143.871094 41.097656 " fill-opacity="1" fill-rule="nonzero"/><path fill="#000000" d="M 145.9375 39.972656 C 145.9375 40.074219 145.898438 40.164062 145.824219 40.238281 C 145.753906 40.3125 145.664062 40.347656 145.5625 40.347656 C 145.457031 40.347656 145.367188 40.3125 145.296875 40.238281 C 145.222656 40.164062 145.183594 40.074219 145.183594 39.972656 C 145.183594 39.867188 145.222656 39.78125 145.296875 39.707031 C 145.367188 39.632812 145.457031 39.597656 145.5625 39.597656 C 145.664062 39.597656 145.753906 39.632812 145.824219 39.707031 C 145.898438 39.78125 145.9375 39.867188 145.9375 39.972656 Z M 145.9375 39.972656 " fill-opacity="1" fill-rule="nonzero"/><path fill="#000000" d="M 145.9375 37.71875 C 145.9375 37.820312 145.898438 37.910156 145.824219 37.984375 C 145.753906 38.054688 145.664062 38.09375 145.5625 38.09375 C 145.457031 38.09375 145.367188 38.054688 145.296875 37.984375 C 145.222656 37.910156 145.183594 37.820312 145.183594 37.71875 C 145.183594 37.613281 145.222656 37.523438 145.296875 37.453125 C 145.367188 37.378906 145.457031 37.339844 145.5625 37.339844 C 145.664062 37.339844 145.753906 37.378906 145.824219 37.453125 C 145.898438 37.523438 145.9375 37.613281 145.9375 37.71875 Z M 145.9375 37.71875 " fill-opacity="1" fill-rule="nonzero"/><path fill="#000000" d="M 82.722656 36.964844 L 81.222656 36.964844 L 81.222656 40.910156 L 82.722656 40.910156 C 82.535156 40.347656 82.347656 39.597656 82.347656 39.03125 C 82.535156 38.09375 82.535156 37.53125 82.722656 36.964844 Z M 82.722656 36.964844 " fill-opacity="1" fill-rule="nonzero"/><path fill="#000000" d="M 81.222656 35.273438 L 81.222656 36.964844 L 81.785156 35.273438 Z M 81.222656 35.273438 " fill-opacity="1" fill-rule="nonzero"/><path fill="#000000" d="M 97.726562 37.53125 L 94.914062 37.53125 C 95.101562 37.90625 95.101562 38.46875 95.101562 38.84375 C 95.101562 39.597656 94.914062 40.160156 94.726562 40.722656 L 97.539062 40.722656 C 97.351562 40.160156 97.164062 39.40625 97.164062 38.84375 C 97.539062 38.46875 97.539062 37.90625 97.726562 37.53125 Z M 97.726562 37.53125 " fill-opacity="1" fill-rule="nonzero"/><path fill="#000000" d="M 118.550781 35.839844 L 117.800781 34.335938 L 117.046875 34.335938 L 117.046875 36.964844 L 114.046875 36.964844 L 114.046875 34.335938 L 113.109375 34.335938 L 112.546875 35.460938 L 111.796875 35.460938 L 112.359375 36.964844 L 109.921875 37.152344 C 110.109375 37.71875 110.109375 38.46875 110.109375 39.03125 C 110.109375 39.785156 109.921875 40.347656 109.734375 40.910156 L 135.429688 40.910156 L 135.429688 36.027344 L 118.550781 36.027344 Z M 118.550781 35.839844 " fill-opacity="1" fill-rule="nonzero"/><path fill="#000000" d="M 109.921875 36.964844 L 112.359375 36.777344 L 111.796875 35.273438 L 109.171875 35.273438 C 109.546875 35.839844 109.734375 36.402344 109.921875 36.964844 Z M 109.921875 36.964844 " fill-opacity="1" fill-rule="nonzero"/><path fill="#000000" d="M 94.164062 35.273438 C 94.539062 35.839844 94.914062 36.589844 95.101562 37.339844 L 97.914062 37.339844 C 98.101562 36.589844 98.289062 35.839844 98.855469 35.273438 Z M 94.164062 35.273438 " fill-opacity="1" fill-rule="nonzero"/><path fill="#000000" d="M 83.472656 35.273438 L 81.785156 35.273438 L 81.222656 36.777344 L 82.722656 36.777344 C 82.910156 36.402344 83.285156 35.839844 83.472656 35.273438 Z M 83.472656 35.273438 " fill-opacity="1" fill-rule="nonzero"/><path fill="#000000" d="M 135.617188 35.839844 L 135.617188 40.722656 L 135.996094 35.839844 Z M 135.617188 35.839844 " fill-opacity="1" fill-rule="nonzero"/><g clip-path="url(#26a3949565)"><path fill="#000000" d="M 88.910156 41.851562 C 87.972656 41.851562 87.222656 41.472656 86.660156 40.722656 L 83.285156 40.722656 C 84.035156 42.976562 86.285156 44.667969 88.910156 44.667969 C 91.539062 44.667969 93.789062 42.976562 94.539062 40.722656 L 91.164062 40.722656 C 90.601562 41.472656 89.851562 41.851562 88.910156 41.851562 Z M 88.910156 41.851562 " fill-opacity="1" fill-rule="nonzero"/></g><path fill="#000000" d="M 88.910156 32.832031 C 86.847656 32.832031 85.160156 33.773438 84.035156 35.273438 L 93.789062 35.273438 C 92.664062 33.773438 90.789062 32.832031 88.910156 32.832031 Z M 88.910156 32.832031 " fill-opacity="1" fill-rule="nonzero"/><path fill="#000000" d="M 85.910156 38.84375 C 85.910156 38.28125 86.097656 37.53125 86.472656 37.152344 L 83.285156 36.964844 C 83.097656 37.53125 82.910156 38.28125 82.910156 38.84375 C 82.910156 39.597656 83.097656 40.160156 83.285156 40.722656 L 86.660156 40.722656 C 86.097656 40.347656 85.910156 39.597656 85.910156 38.84375 Z M 85.910156 38.84375 " fill-opacity="1" fill-rule="nonzero"/><path fill="#000000" d="M 91.914062 38.84375 C 91.914062 39.597656 91.726562 40.347656 91.164062 40.722656 L 94.539062 40.722656 C 94.726562 40.160156 94.914062 39.40625 94.914062 38.84375 C 94.914062 38.28125 94.914062 37.90625 94.726562 37.53125 L 91.539062 37.339844 C 91.726562 37.71875 91.914062 38.28125 91.914062 38.84375 Z M 91.914062 38.84375 " fill-opacity="1" fill-rule="nonzero"/><path fill="#000000" d="M 83.097656 36.964844 L 86.285156 37.152344 C 86.847656 36.402344 87.785156 35.839844 88.722656 35.839844 C 89.851562 35.839844 90.789062 36.402344 91.351562 37.339844 L 94.539062 37.53125 C 94.351562 36.777344 93.976562 36.027344 93.601562 35.460938 L 83.847656 35.460938 C 83.660156 35.839844 83.285156 36.402344 83.097656 36.964844 Z M 83.097656 36.964844 " fill-opacity="1" fill-rule="nonzero"/><path fill="#000000" d="M 90.414062 38.84375 C 90.414062 39.042969 90.375 39.234375 90.296875 39.417969 C 90.222656 39.605469 90.113281 39.765625 89.972656 39.90625 C 89.832031 40.046875 89.671875 40.15625 89.484375 40.234375 C 89.300781 40.308594 89.109375 40.347656 88.910156 40.347656 C 88.714844 40.347656 88.523438 40.308594 88.335938 40.234375 C 88.152344 40.15625 87.992188 40.046875 87.851562 39.90625 C 87.710938 39.765625 87.601562 39.605469 87.527344 39.417969 C 87.449219 39.234375 87.410156 39.042969 87.410156 38.84375 C 87.410156 38.644531 87.449219 38.453125 87.527344 38.269531 C 87.601562 38.085938 87.710938 37.921875 87.851562 37.78125 C 87.992188 37.640625 88.152344 37.53125 88.335938 37.457031 C 88.523438 37.378906 88.714844 37.339844 88.910156 37.339844 C 89.109375 37.339844 89.300781 37.378906 89.484375 37.457031 C 89.671875 37.53125 89.832031 37.640625 89.972656 37.78125 C 90.113281 37.921875 90.222656 38.085938 90.296875 38.269531 C 90.375 38.453125 90.414062 38.644531 90.414062 38.84375 Z M 90.414062 38.84375 " fill-opacity="1" fill-rule="nonzero"/><path fill="#000000" d="M 89.289062 36.589844 C 89.289062 36.695312 89.25 36.78125 89.175781 36.855469 C 89.105469 36.929688 89.015625 36.964844 88.910156 36.964844 C 88.808594 36.964844 88.71875 36.929688 88.648438 36.855469 C 88.574219 36.78125 88.535156 36.695312 88.535156 36.589844 C 88.535156 36.484375 88.574219 36.398438 88.648438 36.324219 C 88.71875 36.25 88.808594 36.214844 88.910156 36.214844 C 89.015625 36.214844 89.105469 36.25 89.175781 36.324219 C 89.25 36.398438 89.289062 36.484375 89.289062 36.589844 Z M 89.289062 36.589844 " fill-opacity="1" fill-rule="nonzero"/><path fill="#000000" d="M 87.222656 37.71875 C 87.222656 37.820312 87.1875 37.910156 87.113281 37.984375 C 87.039062 38.054688 86.953125 38.09375 86.847656 38.09375 C 86.746094 38.09375 86.65625 38.054688 86.582031 37.984375 C 86.511719 37.910156 86.472656 37.820312 86.472656 37.71875 C 86.472656 37.613281 86.511719 37.523438 86.582031 37.453125 C 86.65625 37.378906 86.746094 37.339844 86.847656 37.339844 C 86.953125 37.339844 87.039062 37.378906 87.113281 37.453125 C 87.1875 37.523438 87.222656 37.613281 87.222656 37.71875 Z M 87.222656 37.71875 " fill-opacity="1" fill-rule="nonzero"/><path fill="#000000" d="M 87.222656 39.972656 C 87.222656 40.074219 87.1875 40.164062 87.113281 40.238281 C 87.039062 40.3125 86.953125 40.347656 86.847656 40.347656 C 86.746094 40.347656 86.65625 40.3125 86.582031 40.238281 C 86.511719 40.164062 86.472656 40.074219 86.472656 39.972656 C 86.472656 39.867188 86.511719 39.78125 86.582031 39.707031 C 86.65625 39.632812 86.746094 39.597656 86.847656 39.597656 C 86.953125 39.597656 87.039062 39.632812 87.113281 39.707031 C 87.1875 39.78125 87.222656 39.867188 87.222656 39.972656 Z M 87.222656 39.972656 " fill-opacity="1" fill-rule="nonzero"/><path fill="#000000" d="M 89.289062 41.097656 C 89.289062 41.203125 89.25 41.292969 89.175781 41.363281 C 89.105469 41.4375 89.015625 41.472656 88.910156 41.472656 C 88.808594 41.472656 88.71875 41.4375 88.648438 41.363281 C 88.574219 41.292969 88.535156 41.203125 88.535156 41.097656 C 88.535156 40.996094 88.574219 40.90625 88.648438 40.832031 C 88.71875 40.761719 88.808594 40.722656 88.910156 40.722656 C 89.015625 40.722656 89.105469 40.761719 89.175781 40.832031 C 89.25 40.90625 89.289062 40.996094 89.289062 41.097656 Z M 89.289062 41.097656 " fill-opacity="1" fill-rule="nonzero"/><path fill="#000000" d="M 91.164062 39.972656 C 91.164062 40.074219 91.125 40.164062 91.054688 40.238281 C 90.980469 40.3125 90.890625 40.347656 90.789062 40.347656 C 90.683594 40.347656 90.597656 40.3125 90.523438 40.238281 C 90.449219 40.164062 90.414062 40.074219 90.414062 39.972656 C 90.414062 39.867188 90.449219 39.78125 90.523438 39.707031 C 90.597656 39.632812 90.683594 39.597656 90.789062 39.597656 C 90.890625 39.597656 90.980469 39.632812 91.054688 39.707031 C 91.125 39.78125 91.164062 39.867188 91.164062 39.972656 Z M 91.164062 39.972656 " fill-opacity="1" fill-rule="nonzero"/><path fill="#000000" d="M 91.164062 37.71875 C 91.164062 37.820312 91.125 37.910156 91.054688 37.984375 C 90.980469 38.054688 90.890625 38.09375 90.789062 38.09375 C 90.683594 38.09375 90.597656 38.054688 90.523438 37.984375 C 90.449219 37.910156 90.414062 37.820312 90.414062 37.71875 C 90.414062 37.613281 90.449219 37.523438 90.523438 37.453125 C 90.597656 37.378906 90.683594 37.339844 90.789062 37.339844 C 90.890625 37.339844 90.980469 37.378906 91.054688 37.453125 C 91.125 37.523438 91.164062 37.613281 91.164062 37.71875 Z M 91.164062 37.71875 " fill-opacity="1" fill-rule="nonzero"/><g clip-path="url(#92b29040ad)"><path fill="#000000" d="M 103.917969 41.851562 C 102.980469 41.851562 102.230469 41.472656 101.667969 40.722656 L 98.289062 40.722656 C 99.042969 42.976562 101.292969 44.667969 103.917969 44.667969 C 106.542969 44.667969 108.796875 42.976562 109.546875 40.722656 L 106.167969 40.722656 C 105.605469 41.472656 104.855469 41.851562 103.917969 41.851562 Z M 103.917969 41.851562 " fill-opacity="1" fill-rule="nonzero"/></g><path fill="#000000" d="M 103.917969 32.832031 C 101.855469 32.832031 100.167969 33.773438 99.042969 35.273438 L 108.796875 35.273438 C 107.667969 33.773438 105.980469 32.832031 103.917969 32.832031 Z M 103.917969 32.832031 " fill-opacity="1" fill-rule="nonzero"/><path fill="#000000" d="M 100.917969 38.84375 C 100.917969 38.28125 101.105469 37.71875 101.292969 37.339844 L 98.101562 37.53125 C 97.914062 37.90625 97.914062 38.46875 97.914062 38.84375 C 97.914062 39.597656 98.101562 40.160156 98.289062 40.722656 L 101.667969 40.722656 C 101.105469 40.347656 100.917969 39.597656 100.917969 38.84375 Z M 100.917969 38.84375 " fill-opacity="1" fill-rule="nonzero"/><path fill="#000000" d="M 106.917969 38.84375 C 106.917969 39.597656 106.730469 40.347656 106.167969 40.722656 L 109.546875 40.722656 C 109.734375 40.160156 109.921875 39.40625 109.921875 38.84375 C 109.921875 38.28125 109.734375 37.53125 109.546875 36.964844 L 106.355469 37.152344 C 106.730469 37.53125 106.917969 38.28125 106.917969 38.84375 Z M 106.917969 38.84375 " fill-opacity="1" fill-rule="nonzero"/><path fill="#000000" d="M 98.101562 37.53125 L 101.292969 37.339844 C 101.855469 36.402344 102.792969 35.839844 103.917969 35.839844 C 104.855469 35.839844 105.792969 36.402344 106.355469 37.152344 L 109.546875 36.964844 C 109.359375 36.402344 108.984375 35.839844 108.796875 35.273438 L 99.042969 35.273438 C 98.667969 36.027344 98.289062 36.777344 98.101562 37.53125 Z M 98.101562 37.53125 " fill-opacity="1" fill-rule="nonzero"/><path fill="#000000" d="M 105.417969 38.84375 C 105.417969 39.042969 105.378906 39.234375 105.304688 39.417969 C 105.230469 39.605469 105.121094 39.765625 104.980469 39.90625 C 104.839844 40.046875 104.675781 40.15625 104.492188 40.234375 C 104.308594 40.308594 104.117188 40.347656 103.917969 40.347656 C 103.71875 40.347656 103.527344 40.308594 103.34375 40.234375 C 103.160156 40.15625 102.996094 40.046875 102.855469 39.90625 C 102.714844 39.765625 102.609375 39.605469 102.53125 39.417969 C 102.457031 39.234375 102.417969 39.042969 102.417969 38.84375 C 102.417969 38.644531 102.457031 38.453125 102.53125 38.269531 C 102.609375 38.085938 102.714844 37.921875 102.855469 37.78125 C 102.996094 37.640625 103.160156 37.53125 103.34375 37.457031 C 103.527344 37.378906 103.71875 37.339844 103.917969 37.339844 C 104.117188 37.339844 104.308594 37.378906 104.492188 37.457031 C 104.675781 37.53125 104.839844 37.640625 104.980469 37.78125 C 105.121094 37.921875 105.230469 38.085938 105.304688 38.269531 C 105.378906 38.453125 105.417969 38.644531 105.417969 38.84375 Z M 105.417969 38.84375 " fill-opacity="1" fill-rule="nonzero"/><path fill="#000000" d="M 104.292969 36.589844 C 104.292969 36.695312 104.257812 36.78125 104.183594 36.855469 C 104.109375 36.929688 104.023438 36.964844 103.917969 36.964844 C 103.816406 36.964844 103.726562 36.929688 103.652344 36.855469 C 103.578125 36.78125 103.542969 36.695312 103.542969 36.589844 C 103.542969 36.484375 103.578125 36.398438 103.652344 36.324219 C 103.726562 36.25 103.816406 36.214844 103.917969 36.214844 C 104.023438 36.214844 104.109375 36.25 104.183594 36.324219 C 104.257812 36.398438 104.292969 36.484375 104.292969 36.589844 Z M 104.292969 36.589844 " fill-opacity="1" fill-rule="nonzero"/><path fill="#000000" d="M 102.230469 37.71875 C 102.230469 37.820312 102.195312 37.910156 102.121094 37.984375 C 102.046875 38.054688 101.957031 38.09375 101.855469 38.09375 C 101.75 38.09375 101.664062 38.054688 101.589844 37.984375 C 101.515625 37.910156 101.480469 37.820312 101.480469 37.71875 C 101.480469 37.613281 101.515625 37.523438 101.589844 37.453125 C 101.664062 37.378906 101.75 37.339844 101.855469 37.339844 C 101.957031 37.339844 102.046875 37.378906 102.121094 37.453125 C 102.195312 37.523438 102.230469 37.613281 102.230469 37.71875 Z M 102.230469 37.71875 " fill-opacity="1" fill-rule="nonzero"/><path fill="#000000" d="M 102.230469 39.972656 C 102.230469 40.074219 102.195312 40.164062 102.121094 40.238281 C 102.046875 40.3125 101.957031 40.347656 101.855469 40.347656 C 101.75 40.347656 101.664062 40.3125 101.589844 40.238281 C 101.515625 40.164062 101.480469 40.074219 101.480469 39.972656 C 101.480469 39.867188 101.515625 39.78125 101.589844 39.707031 C 101.664062 39.632812 101.75 39.597656 101.855469 39.597656 C 101.957031 39.597656 102.046875 39.632812 102.121094 39.707031 C 102.195312 39.78125 102.230469 39.867188 102.230469 39.972656 Z M 102.230469 39.972656 " fill-opacity="1" fill-rule="nonzero"/><path fill="#000000" d="M 104.292969 41.097656 C 104.292969 41.203125 104.257812 41.292969 104.183594 41.363281 C 104.109375 41.4375 104.023438 41.472656 103.917969 41.472656 C 103.816406 41.472656 103.726562 41.4375 103.652344 41.363281 C 103.578125 41.292969 103.542969 41.203125 103.542969 41.097656 C 103.542969 40.996094 103.578125 40.90625 103.652344 40.832031 C 103.726562 40.761719 103.816406 40.722656 103.917969 40.722656 C 104.023438 40.722656 104.109375 40.761719 104.183594 40.832031 C 104.257812 40.90625 104.292969 40.996094 104.292969 41.097656 Z M 104.292969 41.097656 " fill-opacity="1" fill-rule="nonzero"/><path fill="#000000" d="M 106.355469 39.972656 C 106.355469 40.074219 106.320312 40.164062 106.246094 40.238281 C 106.171875 40.3125 106.085938 40.347656 105.980469 40.347656 C 105.878906 40.347656 105.789062 40.3125 105.714844 40.238281 C 105.644531 40.164062 105.605469 40.074219 105.605469 39.972656 C 105.605469 39.867188 105.644531 39.78125 105.714844 39.707031 C 105.789062 39.632812 105.878906 39.597656 105.980469 39.597656 C 106.085938 39.597656 106.171875 39.632812 106.246094 39.707031 C 106.320312 39.78125 106.355469 39.867188 106.355469 39.972656 Z M 106.355469 39.972656 " fill-opacity="1" fill-rule="nonzero"/><path fill="#000000" d="M 106.355469 37.71875 C 106.355469 37.820312 106.320312 37.910156 106.246094 37.984375 C 106.171875 38.054688 106.085938 38.09375 105.980469 38.09375 C 105.878906 38.09375 105.789062 38.054688 105.714844 37.984375 C 105.644531 37.910156 105.605469 37.820312 105.605469 37.71875 C 105.605469 37.613281 105.644531 37.523438 105.714844 37.453125 C 105.789062 37.378906 105.878906 37.339844 105.980469 37.339844 C 106.085938 37.339844 106.171875 37.378906 106.246094 37.453125 C 106.320312 37.523438 106.355469 37.613281 106.355469 37.71875 Z M 106.355469 37.71875 " fill-opacity="1" fill-rule="nonzero"/><g clip-path="url(#c4ce060af0)"><path fill="#000000" d="M 19.882812 38.84375 C 19.882812 40.535156 18.570312 41.851562 16.882812 41.851562 C 15.195312 41.851562 13.878906 40.535156 13.878906 38.84375 C 13.878906 38.46875 13.878906 38.28125 14.070312 38.09375 L 11.066406 38.09375 C 11.066406 38.28125 11.066406 38.65625 11.066406 38.84375 C 11.066406 42.226562 13.691406 44.855469 17.070312 44.855469 C 20.445312 44.855469 23.070312 42.226562 23.070312 38.84375 C 23.070312 38.65625 23.070312 38.28125 23.070312 38.09375 L 20.070312 38.09375 C 19.882812 38.28125 19.882812 38.46875 19.882812 38.84375 Z M 19.882812 38.84375 " fill-opacity="1" fill-rule="nonzero"/></g><path fill="#000000" d="M 16.882812 32.832031 C 13.878906 32.832031 11.441406 35.085938 10.878906 38.09375 L 13.878906 38.09375 C 14.257812 36.777344 15.382812 35.839844 16.695312 35.839844 C 18.007812 35.839844 19.320312 36.777344 19.507812 38.09375 L 22.507812 38.09375 C 22.507812 35.085938 19.882812 32.832031 16.882812 32.832031 Z M 16.882812 32.832031 " fill-opacity="1" fill-rule="nonzero"/><path fill="#000000" d="M 15.382812 38.84375 C 15.382812 39.785156 16.132812 40.347656 16.882812 40.347656 C 17.632812 40.347656 18.382812 39.597656 18.382812 38.84375 C 18.382812 38.46875 18.382812 38.28125 18.195312 38.09375 L 15.570312 38.09375 C 15.382812 38.28125 15.382812 38.46875 15.382812 38.84375 Z M 15.382812 38.84375 " fill-opacity="1" fill-rule="nonzero"/><path fill="#000000" d="M 16.882812 37.339844 C 16.320312 37.339844 15.757812 37.71875 15.570312 38.09375 L 18.195312 38.09375 C 18.007812 37.53125 17.445312 37.339844 16.882812 37.339844 Z M 16.882812 37.339844 " fill-opacity="1" fill-rule="nonzero"/><path fill="#000000" d="M 17.257812 36.589844 C 17.257812 36.695312 17.21875 36.78125 17.148438 36.855469 C 17.074219 36.929688 16.984375 36.964844 16.882812 36.964844 C 16.777344 36.964844 16.691406 36.929688 16.617188 36.855469 C 16.542969 36.78125 16.507812 36.695312 16.507812 36.589844 C 16.507812 36.484375 16.542969 36.398438 16.617188 36.324219 C 16.691406 36.25 16.777344 36.214844 16.882812 36.214844 C 16.984375 36.214844 17.074219 36.25 17.148438 36.324219 C 17.21875 36.398438 17.257812 36.484375 17.257812 36.589844 Z M 17.257812 36.589844 " fill-opacity="1" fill-rule="nonzero"/><path fill="#000000" d="M 15.382812 37.71875 C 15.382812 37.820312 15.34375 37.910156 15.273438 37.984375 C 15.199219 38.054688 15.109375 38.09375 15.007812 38.09375 C 14.902344 38.09375 14.8125 38.054688 14.742188 37.984375 C 14.667969 37.910156 14.632812 37.820312 14.632812 37.71875 C 14.632812 37.613281 14.667969 37.523438 14.742188 37.453125 C 14.8125 37.378906 14.902344 37.339844 15.007812 37.339844 C 15.109375 37.339844 15.199219 37.378906 15.273438 37.453125 C 15.34375 37.523438 15.382812 37.613281 15.382812 37.71875 Z M 15.382812 37.71875 " fill-opacity="1" fill-rule="nonzero"/><path fill="#000000" d="M 15.382812 39.972656 C 15.382812 40.074219 15.34375 40.164062 15.273438 40.238281 C 15.199219 40.3125 15.109375 40.347656 15.007812 40.347656 C 14.902344 40.347656 14.8125 40.3125 14.742188 40.238281 C 14.667969 40.164062 14.632812 40.074219 14.632812 39.972656 C 14.632812 39.867188 14.667969 39.78125 14.742188 39.707031 C 14.8125 39.632812 14.902344 39.597656 15.007812 39.597656 C 15.109375 39.597656 15.199219 39.632812 15.273438 39.707031 C 15.34375 39.78125 15.382812 39.867188 15.382812 39.972656 Z M 15.382812 39.972656 " fill-opacity="1" fill-rule="nonzero"/><path fill="#000000" d="M 17.257812 41.097656 C 17.257812 41.203125 17.21875 41.292969 17.148438 41.363281 C 17.074219 41.4375 16.984375 41.472656 16.882812 41.472656 C 16.777344 41.472656 16.691406 41.4375 16.617188 41.363281 C 16.542969 41.292969 16.507812 41.203125 16.507812 41.097656 C 16.507812 40.996094 16.542969 40.90625 16.617188 40.832031 C 16.691406 40.761719 16.777344 40.722656 16.882812 40.722656 C 16.984375 40.722656 17.074219 40.761719 17.148438 40.832031 C 17.21875 40.90625 17.257812 40.996094 17.257812 41.097656 Z M 17.257812 41.097656 " fill-opacity="1" fill-rule="nonzero"/><path fill="#000000" d="M 19.320312 39.972656 C 19.320312 40.074219 19.285156 40.164062 19.210938 40.238281 C 19.136719 40.3125 19.050781 40.347656 18.945312 40.347656 C 18.84375 40.347656 18.753906 40.3125 18.679688 40.238281 C 18.605469 40.164062 18.570312 40.074219 18.570312 39.972656 C 18.570312 39.867188 18.605469 39.78125 18.679688 39.707031 C 18.753906 39.632812 18.84375 39.597656 18.945312 39.597656 C 19.050781 39.597656 19.136719 39.632812 19.210938 39.707031 C 19.285156 39.78125 19.320312 39.867188 19.320312 39.972656 Z M 19.320312 39.972656 " fill-opacity="1" fill-rule="nonzero"/><path fill="#000000" d="M 19.320312 37.71875 C 19.320312 37.820312 19.285156 37.910156 19.210938 37.984375 C 19.136719 38.054688 19.050781 38.09375 18.945312 38.09375 C 18.84375 38.09375 18.753906 38.054688 18.679688 37.984375 C 18.605469 37.910156 18.570312 37.820312 18.570312 37.71875 C 18.570312 37.613281 18.605469 37.523438 18.679688 37.453125 C 18.753906 37.378906 18.84375 37.339844 18.945312 37.339844 C 19.050781 37.339844 19.136719 37.378906 19.210938 37.453125 C 19.285156 37.523438 19.320312 37.613281 19.320312 37.71875 Z M 19.320312 37.71875 " fill-opacity="1" fill-rule="nonzero"/><g clip-path="url(#b1950836cd)"><path fill="#000000" d="M 34.890625 38.84375 C 34.890625 40.535156 33.578125 41.851562 31.886719 41.851562 C 30.199219 41.851562 28.886719 40.535156 28.886719 38.84375 C 28.886719 38.46875 28.886719 38.28125 29.074219 38.09375 L 26.074219 38.09375 C 26.074219 38.28125 26.074219 38.65625 26.074219 38.84375 C 26.074219 42.226562 28.699219 44.855469 32.074219 44.855469 C 35.453125 44.855469 38.078125 42.226562 38.078125 38.84375 C 38.078125 38.65625 38.078125 38.28125 38.078125 38.09375 L 35.078125 38.09375 C 34.890625 38.28125 34.890625 38.46875 34.890625 38.84375 Z M 34.890625 38.84375 " fill-opacity="1" fill-rule="nonzero"/></g><path fill="#000000" d="M 31.886719 32.832031 C 28.886719 32.832031 26.261719 35.085938 25.886719 38.09375 L 28.886719 38.09375 C 29.261719 36.777344 30.386719 35.839844 31.699219 35.839844 C 33.015625 35.839844 34.328125 36.777344 34.515625 38.09375 L 37.515625 38.09375 C 37.515625 35.085938 34.890625 32.832031 31.886719 32.832031 Z M 31.886719 32.832031 " fill-opacity="1" fill-rule="nonzero"/><path fill="#000000" d="M 30.386719 38.84375 C 30.386719 39.785156 31.136719 40.347656 31.886719 40.347656 C 32.636719 40.347656 33.390625 39.597656 33.390625 38.84375 C 33.390625 38.46875 33.390625 38.28125 33.203125 38.09375 L 30.574219 38.09375 C 30.386719 38.28125 30.386719 38.46875 30.386719 38.84375 Z M 30.386719 38.84375 " fill-opacity="1" fill-rule="nonzero"/><path fill="#000000" d="M 31.886719 37.339844 C 31.324219 37.339844 30.761719 37.71875 30.574219 38.09375 L 33.203125 38.09375 C 33.015625 37.53125 32.449219 37.339844 31.886719 37.339844 Z M 31.886719 37.339844 " fill-opacity="1" fill-rule="nonzero"/><path fill="#000000" d="M 32.261719 36.589844 C 32.261719 36.695312 32.226562 36.78125 32.152344 36.855469 C 32.082031 36.929688 31.992188 36.964844 31.886719 36.964844 C 31.785156 36.964844 31.695312 36.929688 31.621094 36.855469 C 31.550781 36.78125 31.511719 36.695312 31.511719 36.589844 C 31.511719 36.484375 31.550781 36.398438 31.621094 36.324219 C 31.695312 36.25 31.785156 36.214844 31.886719 36.214844 C 31.992188 36.214844 32.082031 36.25 32.152344 36.324219 C 32.226562 36.398438 32.261719 36.484375 32.261719 36.589844 Z M 32.261719 36.589844 " fill-opacity="1" fill-rule="nonzero"/><path fill="#000000" d="M 30.386719 37.71875 C 30.386719 37.820312 30.351562 37.910156 30.277344 37.984375 C 30.203125 38.054688 30.117188 38.09375 30.011719 38.09375 C 29.910156 38.09375 29.820312 38.054688 29.746094 37.984375 C 29.675781 37.910156 29.636719 37.820312 29.636719 37.71875 C 29.636719 37.613281 29.675781 37.523438 29.746094 37.453125 C 29.820312 37.378906 29.910156 37.339844 30.011719 37.339844 C 30.117188 37.339844 30.203125 37.378906 30.277344 37.453125 C 30.351562 37.523438 30.386719 37.613281 30.386719 37.71875 Z M 30.386719 37.71875 " fill-opacity="1" fill-rule="nonzero"/><path fill="#000000" d="M 30.386719 39.972656 C 30.386719 40.074219 30.351562 40.164062 30.277344 40.238281 C 30.203125 40.3125 30.117188 40.347656 30.011719 40.347656 C 29.910156 40.347656 29.820312 40.3125 29.746094 40.238281 C 29.675781 40.164062 29.636719 40.074219 29.636719 39.972656 C 29.636719 39.867188 29.675781 39.78125 29.746094 39.707031 C 29.820312 39.632812 29.910156 39.597656 30.011719 39.597656 C 30.117188 39.597656 30.203125 39.632812 30.277344 39.707031 C 30.351562 39.78125 30.386719 39.867188 30.386719 39.972656 Z M 30.386719 39.972656 " fill-opacity="1" fill-rule="nonzero"/><path fill="#000000" d="M 32.261719 41.097656 C 32.261719 41.203125 32.226562 41.292969 32.152344 41.363281 C 32.082031 41.4375 31.992188 41.472656 31.886719 41.472656 C 31.785156 41.472656 31.695312 41.4375 31.621094 41.363281 C 31.550781 41.292969 31.511719 41.203125 31.511719 41.097656 C 31.511719 40.996094 31.550781 40.90625 31.621094 40.832031 C 31.695312 40.761719 31.785156 40.722656 31.886719 40.722656 C 31.992188 40.722656 32.082031 40.761719 32.152344 40.832031 C 32.226562 40.90625 32.261719 40.996094 32.261719 41.097656 Z M 32.261719 41.097656 " fill-opacity="1" fill-rule="nonzero"/><path fill="#000000" d="M 34.328125 39.972656 C 34.328125 40.074219 34.289062 40.164062 34.21875 40.238281 C 34.144531 40.3125 34.054688 40.347656 33.953125 40.347656 C 33.847656 40.347656 33.757812 40.3125 33.6875 40.238281 C 33.613281 40.164062 33.578125 40.074219 33.578125 39.972656 C 33.578125 39.867188 33.613281 39.78125 33.6875 39.707031 C 33.757812 39.632812 33.847656 39.597656 33.953125 39.597656 C 34.054688 39.597656 34.144531 39.632812 34.21875 39.707031 C 34.289062 39.78125 34.328125 39.867188 34.328125 39.972656 Z M 34.328125 39.972656 " fill-opacity="1" fill-rule="nonzero"/><path fill="#000000" d="M 34.328125 37.71875 C 34.328125 37.820312 34.289062 37.910156 34.21875 37.984375 C 34.144531 38.054688 34.054688 38.09375 33.953125 38.09375 C 33.847656 38.09375 33.757812 38.054688 33.6875 37.984375 C 33.613281 37.910156 33.578125 37.820312 33.578125 37.71875 C 33.578125 37.613281 33.613281 37.523438 33.6875 37.453125 C 33.757812 37.378906 33.847656 37.339844 33.953125 37.339844 C 34.054688 37.339844 34.144531 37.378906 34.21875 37.453125 C 34.289062 37.523438 34.328125 37.613281 34.328125 37.71875 Z M 34.328125 37.71875 " fill-opacity="1" fill-rule="nonzero"/><g clip-path="url(#e56f3fbe09)"><path fill="#000000" d="M 11.253906 30.953125 L 37.703125 30.953125 L 37.890625 31.519531 L 50.832031 31.519531 L 50.832031 29.640625 L 53.460938 29.640625 L 53.460938 31.519531 L 65.089844 31.519531 L 65.089844 30.015625 L 66.402344 30.015625 L 66.402344 31.519531 L 73.90625 31.519531 L 73.90625 30.578125 L 76.53125 30.578125 L 76.53125 31.519531 L 83.285156 31.519531 L 83.472656 30.953125 L 110.109375 30.953125 L 110.296875 31.519531 L 114.046875 31.519531 L 114.046875 29.074219 L 117.046875 29.074219 L 117.046875 31.519531 L 127.554688 31.519531 L 127.554688 0.144531 L 0 0.144531 L 0 31.519531 L 10.878906 31.519531 Z M 11.253906 30.953125 " fill-opacity="1" fill-rule="nonzero"/></g><path fill="#000000" d="M 24.761719 30.953125 L 11.253906 30.953125 L 10.878906 31.519531 L 37.890625 31.519531 L 37.703125 30.953125 Z M 24.761719 30.953125 " fill-opacity="1" fill-rule="nonzero"/><path fill="#000000" d="M 110.109375 30.953125 L 83.472656 30.953125 L 83.285156 31.519531 L 110.296875 31.519531 Z M 110.109375 30.953125 " fill-opacity="1" fill-rule="nonzero"/><path fill="#000000" d="M 114.046875 31.519531 L 117.046875 31.519531 L 117.046875 34.148438 L 114.046875 34.148438 Z M 114.046875 31.519531 " fill-opacity="1" fill-rule="nonzero"/><path fill="#000000" d="M 114.046875 34.335938 L 117.046875 34.335938 L 117.046875 36.964844 L 114.046875 36.964844 Z M 114.046875 34.335938 " fill-opacity="1" fill-rule="nonzero"/><path fill="#000000" d="M 114.046875 29.074219 L 117.046875 29.074219 L 117.046875 31.519531 L 114.046875 31.519531 Z M 114.046875 29.074219 " fill-opacity="1" fill-rule="nonzero"/><path fill="#000000" d="M 46.332031 37.339844 C 46.332031 37.71875 46.707031 38.09375 47.082031 38.09375 L 57.960938 38.09375 C 58.335938 38.09375 58.710938 37.71875 58.710938 37.339844 L 58.710938 34.335938 L 46.332031 34.335938 Z M 46.332031 37.339844 " fill-opacity="1" fill-rule="nonzero"/><path fill="#000000" d="M 58.148438 32.644531 L 53.648438 32.644531 L 53.648438 33.773438 L 51.019531 33.773438 L 51.019531 32.644531 L 47.269531 32.644531 C 46.894531 32.644531 46.519531 33.019531 46.519531 33.394531 L 46.519531 34.148438 L 58.898438 34.148438 L 58.898438 33.394531 C 58.898438 33.019531 58.523438 32.644531 58.148438 32.644531 Z M 58.148438 32.644531 " fill-opacity="1" fill-rule="nonzero"/><path fill="#000000" d="M 66.402344 34.335938 L 62.089844 34.335938 L 62.089844 35.839844 C 62.089844 36.214844 62.464844 36.589844 62.839844 36.589844 L 68.839844 36.589844 C 69.214844 36.589844 69.589844 36.214844 69.589844 35.839844 L 69.589844 34.335938 L 66.402344 34.335938 C 66.402344 34.148438 66.402344 34.335938 66.402344 34.335938 Z M 66.402344 34.335938 " fill-opacity="1" fill-rule="nonzero"/><path fill="#000000" d="M 65.089844 33.394531 L 62.839844 33.394531 C 62.464844 33.394531 62.089844 33.773438 62.089844 34.148438 L 65.089844 34.148438 C 65.089844 34.148438 65.089844 33.394531 65.089844 33.394531 Z M 65.089844 33.394531 " fill-opacity="1" fill-rule="nonzero"/><path fill="#000000" d="M 68.839844 33.394531 L 66.402344 33.394531 L 66.402344 34.148438 L 69.589844 34.148438 C 69.589844 33.773438 69.214844 33.394531 68.839844 33.394531 Z M 68.839844 33.394531 " fill-opacity="1" fill-rule="nonzero"/><path fill="#000000" d="M 71.28125 35.839844 C 71.28125 36.214844 71.65625 36.589844 72.03125 36.589844 L 78.03125 36.589844 C 78.40625 36.589844 78.78125 36.214844 78.78125 35.839844 L 78.78125 34.335938 L 71.28125 34.335938 C 71.28125 34.148438 71.28125 35.839844 71.28125 35.839844 Z M 71.28125 35.839844 " fill-opacity="1" fill-rule="nonzero"/><path fill="#000000" d="M 78.03125 33.394531 L 76.53125 33.394531 L 76.53125 33.960938 L 73.90625 33.960938 L 73.90625 33.394531 L 72.03125 33.394531 C 71.65625 33.394531 71.28125 33.773438 71.28125 34.148438 L 78.78125 34.148438 C 78.78125 33.773438 78.59375 33.394531 78.03125 33.394531 Z M 78.03125 33.394531 " fill-opacity="1" fill-rule="nonzero"/><path fill="#000000" d="M 50.832031 31.519531 L 53.460938 31.519531 L 53.460938 32.644531 L 50.832031 32.644531 Z M 50.832031 31.519531 " fill-opacity="1" fill-rule="nonzero"/><path fill="#000000" d="M 50.832031 29.640625 L 53.460938 29.640625 L 53.460938 31.519531 L 50.832031 31.519531 Z M 50.832031 29.640625 " fill-opacity="1" fill-rule="nonzero"/><path fill="#000000" d="M 50.832031 32.644531 L 53.460938 32.644531 L 53.460938 33.773438 L 50.832031 33.773438 Z M 50.832031 32.644531 " fill-opacity="1" fill-rule="nonzero"/><path fill="#000000" d="M 65.089844 31.519531 L 66.402344 31.519531 L 66.402344 32.644531 L 65.089844 32.644531 Z M 65.089844 31.519531 " fill-opacity="1" fill-rule="nonzero"/><path fill="#000000" d="M 65.089844 32.644531 L 66.402344 32.644531 L 66.402344 33.394531 L 65.089844 33.394531 Z M 65.089844 32.644531 " fill-opacity="1" fill-rule="nonzero"/><path fill="#000000" d="M 65.089844 30.015625 L 66.402344 30.015625 L 66.402344 31.519531 L 65.089844 31.519531 Z M 65.089844 30.015625 " fill-opacity="1" fill-rule="nonzero"/><path fill="#000000" d="M 65.089844 33.394531 L 66.402344 33.394531 L 66.402344 34.148438 L 65.089844 34.148438 Z M 65.089844 33.394531 " fill-opacity="1" fill-rule="nonzero"/><path fill="#000000" d="M 73.90625 31.519531 L 76.53125 31.519531 L 76.53125 32.644531 L 73.90625 32.644531 Z M 73.90625 31.519531 " fill-opacity="1" fill-rule="nonzero"/><path fill="#000000" d="M 73.90625 32.644531 L 76.53125 32.644531 L 76.53125 33.394531 L 73.90625 33.394531 Z M 73.90625 32.644531 " fill-opacity="1" fill-rule="nonzero"/><path fill="#000000" d="M 73.90625 30.578125 L 76.53125 30.578125 L 76.53125 31.519531 L 73.90625 31.519531 Z M 73.90625 30.578125 " fill-opacity="1" fill-rule="nonzero"/><path fill="#000000" d="M 73.90625 33.394531 L 76.53125 33.394531 L 76.53125 33.960938 L 73.90625 33.960938 Z M 73.90625 33.394531 " fill-opacity="1" fill-rule="nonzero"/><path fill="#000000" d="M 8.816406 36.964844 L 10.878906 31.519531 L 3.5625 31.519531 L 3.5625 34.523438 L 4.878906 34.523438 L 5.628906 38.09375 L 8.816406 38.09375 Z M 8.816406 36.964844 " fill-opacity="1" fill-rule="nonzero"/><path fill="#000000" d="M 10.878906 31.519531 L 8.816406 36.964844 L 8.816406 38.09375 L 11.816406 31.519531 Z M 10.878906 31.519531 " fill-opacity="1" fill-rule="nonzero"/></svg>