<svg xmlns="http://www.w3.org/2000/svg" xmlns:xlink="http://www.w3.org/1999/xlink" width="231" zoomAndPan="magnify" viewBox="0 0 173.25 44.999999" height="60" preserveAspectRatio="xMidYMid meet" version="1.0"><defs><clipPath id="b9b8595ba5"><path d="M 0 3 L 172 3 L 172 44.902344 L 0 44.902344 Z M 0 3 " clip-rule="nonzero"/></clipPath><clipPath id="8a77e3c8c0"><path d="M 43 0.0976562 L 47 0.0976562 L 47 10 L 43 10 Z M 43 0.0976562 " clip-rule="nonzero"/></clipPath><clipPath id="a5fa96115d"><path d="M 0 3 L 172 3 L 172 44.902344 L 0 44.902344 Z M 0 3 " clip-rule="nonzero"/></clipPath><clipPath id="d23cbb1af1"><path d="M 43 0.0976562 L 47 0.0976562 L 47 10 L 43 10 Z M 43 0.0976562 " clip-rule="nonzero"/></clipPath></defs><path fill="#000000" d="M 47.828125 6.628906 L 46.609375 6.628906 L 46.878906 5.976562 L 48.109375 5.976562 Z M 45.3125 6.628906 L 45.554688 5.976562 L 46.609375 5.976562 L 46.371094 6.628906 Z M 49.367188 5.976562 L 49.554688 5.480469 L 43.65625 5.480469 L 43.65625 7.125 L 48.910156 7.125 L 49.113281 6.628906 L 48.054688 6.628906 L 48.335938 5.976562 L 49.367188 5.976562 " fill-opacity="1" fill-rule="nonzero"/><path fill="#000000" d="M 47.132812 10.382812 L 45.914062 10.382812 L 46.183594 9.730469 L 47.414062 9.730469 Z M 44.617188 10.382812 L 44.859375 9.730469 L 45.914062 9.730469 L 45.675781 10.382812 Z M 48.671875 9.730469 L 48.871094 9.222656 L 42.542969 9.222656 L 42.542969 10.878906 L 48.214844 10.878906 L 48.417969 10.382812 L 47.371094 10.382812 L 47.640625 9.730469 L 48.671875 9.730469 " fill-opacity="1" fill-rule="nonzero"/><path fill="#000000" d="M 39.683594 17.304688 L 48.429688 17.304688 L 48.429688 15.824219 L 39.683594 15.824219 L 39.683594 17.304688 " fill-opacity="1" fill-rule="nonzero"/><path fill="#000000" d="M 39.683594 23.652344 L 48.429688 23.652344 L 48.429688 22.183594 L 39.683594 22.183594 L 39.683594 23.652344 " fill-opacity="1" fill-rule="nonzero"/><path fill="#000000" d="M 158.003906 37.867188 C 158.042969 37.867188 158.070312 37.800781 158.085938 37.734375 L 157.644531 36.425781 L 157 36.691406 L 156.800781 37.8125 C 157.1875 37.707031 157.921875 37.878906 158.003906 37.867188 " fill-opacity="1" fill-rule="nonzero"/><g clip-path="url(#b9b8595ba5)"><path fill="#000000" d="M 164.050781 21.929688 L 163.742188 21.929688 L 163.796875 21.835938 C 163.808594 21.808594 163.78125 21.808594 163.78125 21.78125 L 164.050781 21.78125 Z M 164.050781 22.621094 L 163.433594 22.621094 C 163.40625 22.621094 163.40625 22.664062 163.378906 22.675781 L 163.582031 22.277344 L 164.050781 22.277344 Z M 164.050781 23.304688 L 163.460938 23.304688 C 163.367188 23.304688 163.285156 23.382812 163.285156 23.476562 C 163.285156 23.570312 163.367188 23.652344 163.460938 23.652344 L 164.050781 23.652344 L 164.050781 24 L 163.433594 24 C 163.339844 24 163.261719 24.078125 163.261719 24.171875 C 163.261719 24.265625 163.339844 24.347656 163.433594 24.347656 L 164.050781 24.347656 L 164.050781 24.695312 L 163.460938 24.695312 C 163.367188 24.695312 163.285156 24.773438 163.285156 24.867188 C 163.285156 24.960938 163.367188 25.042969 163.460938 25.042969 L 164.050781 25.042969 L 164.050781 25.386719 L 163.433594 25.386719 C 163.339844 25.386719 163.261719 25.46875 163.261719 25.5625 C 163.261719 25.65625 163.339844 25.734375 163.433594 25.734375 L 164.050781 25.734375 L 164.050781 26.070312 L 163.460938 26.070312 C 163.367188 26.070312 163.285156 26.148438 163.285156 26.257812 C 163.285156 26.351562 163.367188 26.417969 163.460938 26.417969 L 164.050781 26.417969 L 164.050781 26.765625 L 163.433594 26.765625 C 163.339844 26.765625 163.261719 26.84375 163.261719 26.9375 C 163.261719 27.03125 163.339844 27.113281 163.433594 27.113281 L 164.050781 27.113281 L 164.050781 27.460938 L 163.460938 27.460938 C 163.367188 27.460938 163.285156 27.539062 163.285156 27.632812 C 163.285156 27.726562 163.367188 27.808594 163.460938 27.808594 L 164.050781 27.808594 L 164.050781 28.152344 L 163.433594 28.152344 C 163.339844 28.152344 163.261719 28.234375 163.261719 28.328125 C 163.261719 28.421875 163.339844 28.5 163.433594 28.5 L 164.050781 28.5 L 164.050781 28.847656 L 163.460938 28.847656 C 163.433594 28.847656 163.433594 28.890625 163.40625 28.902344 L 161.011719 27.5 L 163.300781 22.824219 C 163.328125 22.890625 163.367188 22.957031 163.433594 22.957031 L 164.050781 22.957031 Z M 164.050781 29.277344 L 163.886719 29.195312 L 164.050781 29.195312 Z M 159.101562 38.28125 C 158.578125 38.789062 157.828125 38.910156 157.269531 38.910156 C 156.855469 38.910156 156.53125 38.84375 156.507812 38.828125 L 156.398438 38.816406 L 156.828125 36.542969 L 159.59375 35.394531 L 159.609375 35.515625 C 159.863281 36.785156 159.6875 37.707031 159.101562 38.28125 Z M 154.179688 39.285156 L 151.984375 39.285156 L 151.984375 38.523438 L 154.179688 38.523438 Z M 154.179688 40.378906 L 151.984375 40.378906 L 151.984375 39.617188 L 154.179688 39.617188 Z M 151.25 26.269531 L 150.902344 26.269531 L 150.902344 23.144531 L 151.25 23.144531 Z M 151.25 29.890625 L 150.902344 29.890625 L 150.902344 26.765625 L 151.25 26.765625 Z M 150.125 26.269531 L 149.777344 26.269531 L 149.777344 23.144531 L 150.125 23.144531 Z M 150.125 29.890625 L 149.777344 29.890625 L 149.777344 26.765625 L 150.125 26.765625 Z M 148.988281 26.269531 L 148.640625 26.269531 L 148.640625 23.144531 L 148.988281 23.144531 Z M 148.988281 29.890625 L 148.640625 29.890625 L 148.640625 26.765625 L 148.988281 26.765625 Z M 147.851562 26.269531 L 147.519531 26.269531 L 147.519531 23.144531 L 147.851562 23.144531 Z M 147.851562 29.890625 L 147.519531 29.890625 L 147.519531 26.765625 L 147.851562 26.765625 Z M 152.039062 26.765625 L 152.386719 26.765625 L 152.386719 29.890625 L 152.039062 29.890625 Z M 152.039062 23.144531 L 152.386719 23.144531 L 152.386719 26.269531 L 152.039062 26.269531 Z M 153.164062 26.765625 L 153.511719 26.765625 L 153.511719 29.890625 L 153.164062 29.890625 Z M 153.164062 23.144531 L 153.511719 23.144531 L 153.511719 26.269531 L 153.164062 26.269531 Z M 146.433594 32.175781 L 143.640625 32.175781 L 143.640625 31.199219 L 146.433594 31.199219 Z M 143.414062 26.765625 L 143.761719 26.765625 L 143.761719 29.890625 L 143.414062 29.890625 Z M 143.023438 32.175781 L 140.230469 32.175781 L 140.230469 31.199219 L 143.023438 31.199219 Z M 140.015625 26.765625 L 140.363281 26.765625 L 140.363281 29.890625 L 140.015625 29.890625 Z M 140.015625 23.144531 L 140.363281 23.144531 L 140.363281 26.269531 L 140.015625 26.269531 Z M 140.015625 19.417969 L 140.363281 19.417969 L 140.363281 22.542969 L 140.015625 22.542969 Z M 141.152344 26.765625 L 141.5 26.765625 L 141.5 29.890625 L 141.152344 29.890625 Z M 141.152344 23.144531 L 141.5 23.144531 L 141.5 26.269531 L 141.152344 26.269531 Z M 141.152344 19.417969 L 141.5 19.417969 L 141.5 22.542969 L 141.152344 22.542969 Z M 142.277344 26.765625 L 142.625 26.765625 L 142.625 29.890625 L 142.277344 29.890625 Z M 142.277344 23.144531 L 142.625 23.144531 L 142.625 26.269531 L 142.277344 26.269531 Z M 142.277344 19.417969 L 142.625 19.417969 L 142.625 22.542969 L 142.277344 22.542969 Z M 143.414062 23.144531 L 143.761719 23.144531 L 143.761719 26.269531 L 143.414062 26.269531 Z M 143.414062 19.417969 L 143.761719 19.417969 L 143.761719 22.542969 L 143.414062 22.542969 Z M 144.550781 26.765625 L 144.898438 26.765625 L 144.898438 29.890625 L 144.550781 29.890625 Z M 144.550781 23.144531 L 144.898438 23.144531 L 144.898438 26.269531 L 144.550781 26.269531 Z M 144.550781 19.417969 L 144.898438 19.417969 L 144.898438 22.542969 L 144.550781 22.542969 Z M 145.671875 26.765625 L 146.019531 26.765625 L 146.019531 29.890625 L 145.671875 29.890625 Z M 145.671875 23.144531 L 146.019531 23.144531 L 146.019531 26.269531 L 145.671875 26.269531 Z M 145.671875 19.417969 L 146.019531 19.417969 L 146.019531 22.542969 L 145.671875 22.542969 Z M 138.53125 25.109375 L 138.183594 25.109375 L 138.183594 21.980469 L 138.53125 21.980469 Z M 138.53125 28.835938 L 138.183594 28.835938 L 138.183594 25.710938 L 138.53125 25.710938 Z M 138.53125 32.457031 L 138.183594 32.457031 L 138.183594 29.328125 L 138.53125 29.328125 Z M 137.40625 25.109375 L 137.058594 25.109375 L 137.058594 21.980469 L 137.40625 21.980469 Z M 137.40625 28.835938 L 137.058594 28.835938 L 137.058594 25.710938 L 137.40625 25.710938 Z M 137.40625 32.457031 L 137.058594 32.457031 L 137.058594 29.328125 L 137.40625 29.328125 Z M 136.269531 25.109375 L 135.921875 25.109375 L 135.921875 21.980469 L 136.269531 21.980469 Z M 136.269531 28.835938 L 135.921875 28.835938 L 135.921875 25.710938 L 136.269531 25.710938 Z M 136.269531 32.457031 L 135.921875 32.457031 L 135.921875 29.328125 L 136.269531 29.328125 Z M 135.148438 25.109375 L 134.800781 25.109375 L 134.800781 21.980469 L 135.148438 21.980469 Z M 135.148438 28.835938 L 134.800781 28.835938 L 134.800781 25.710938 L 135.148438 25.710938 Z M 135.148438 32.457031 L 134.800781 32.457031 L 134.800781 29.328125 L 135.148438 29.328125 Z M 134.011719 25.109375 L 133.664062 25.109375 L 133.664062 21.980469 L 134.011719 21.980469 Z M 134.011719 28.835938 L 133.664062 28.835938 L 133.664062 25.710938 L 134.011719 25.710938 Z M 134.011719 32.457031 L 133.664062 32.457031 L 133.664062 29.328125 L 134.011719 29.328125 Z M 132.875 25.109375 L 132.527344 25.109375 L 132.527344 21.980469 L 132.875 21.980469 Z M 132.875 28.835938 L 132.527344 28.835938 L 132.527344 25.710938 L 132.875 25.710938 Z M 132.875 32.457031 L 132.527344 32.457031 L 132.527344 29.328125 L 132.875 29.328125 Z M 131.054688 28.890625 L 130.707031 28.890625 L 130.707031 25.761719 L 131.054688 25.761719 Z M 131.054688 32.507812 L 130.707031 32.507812 L 130.707031 29.382812 L 131.054688 29.382812 Z M 129.917969 28.890625 L 129.570312 28.890625 L 129.570312 25.761719 L 129.917969 25.761719 Z M 129.917969 32.507812 L 129.570312 32.507812 L 129.570312 29.382812 L 129.917969 29.382812 Z M 128.78125 28.890625 L 128.433594 28.890625 L 128.433594 25.761719 L 128.78125 25.761719 Z M 128.78125 32.507812 L 128.433594 32.507812 L 128.433594 29.382812 L 128.78125 29.382812 Z M 127.65625 28.890625 L 127.308594 28.890625 L 127.308594 25.761719 L 127.65625 25.761719 Z M 127.65625 32.507812 L 127.308594 32.507812 L 127.308594 29.382812 L 127.65625 29.382812 Z M 126.519531 28.890625 L 126.171875 28.890625 L 126.171875 25.761719 L 126.519531 25.761719 Z M 126.519531 32.507812 L 126.171875 32.507812 L 126.171875 29.382812 L 126.519531 29.382812 Z M 125.382812 28.890625 L 125.050781 28.890625 L 125.050781 25.761719 L 125.382812 25.761719 Z M 125.382812 32.507812 L 125.050781 32.507812 L 125.050781 29.382812 L 125.382812 29.382812 Z M 123.566406 25.214844 L 123.21875 25.214844 L 123.21875 22.089844 L 123.566406 22.089844 Z M 123.566406 28.941406 L 123.21875 28.941406 L 123.21875 25.816406 L 123.566406 25.816406 Z M 123.566406 32.5625 L 123.21875 32.5625 L 123.21875 29.4375 L 123.566406 29.4375 Z M 122.429688 25.214844 L 122.082031 25.214844 L 122.082031 22.089844 L 122.429688 22.089844 Z M 122.429688 28.941406 L 122.082031 28.941406 L 122.082031 25.816406 L 122.429688 25.816406 Z M 122.429688 32.5625 L 122.082031 32.5625 L 122.082031 29.4375 L 122.429688 29.4375 Z M 121.292969 25.214844 L 120.957031 25.214844 L 120.957031 22.089844 L 121.292969 22.089844 Z M 121.292969 28.941406 L 120.957031 28.941406 L 120.957031 25.816406 L 121.292969 25.816406 Z M 121.292969 32.5625 L 120.957031 32.5625 L 120.957031 29.4375 L 121.292969 29.4375 Z M 120.167969 25.214844 L 119.820312 25.214844 L 119.820312 22.089844 L 120.167969 22.089844 Z M 120.167969 28.941406 L 119.820312 28.941406 L 119.820312 25.816406 L 120.167969 25.816406 Z M 120.167969 32.5625 L 119.820312 32.5625 L 119.820312 29.4375 L 120.167969 29.4375 Z M 119.03125 25.214844 L 118.683594 25.214844 L 118.683594 22.089844 L 119.03125 22.089844 Z M 119.03125 28.941406 L 118.683594 28.941406 L 118.683594 25.816406 L 119.03125 25.816406 Z M 119.03125 32.5625 L 118.683594 32.5625 L 118.683594 29.4375 L 119.03125 29.4375 Z M 117.910156 25.214844 L 117.558594 25.214844 L 117.558594 22.089844 L 117.910156 22.089844 Z M 117.910156 28.941406 L 117.558594 28.941406 L 117.558594 25.816406 L 117.910156 25.816406 Z M 117.910156 32.5625 L 117.558594 32.5625 L 117.558594 29.4375 L 117.910156 29.4375 Z M 116.167969 17.972656 L 115.820312 17.972656 L 115.820312 14.832031 L 116.167969 14.832031 Z M 116.167969 21.59375 L 115.820312 21.59375 L 115.820312 18.453125 L 116.167969 18.453125 Z M 116.167969 25.28125 L 115.820312 25.28125 L 115.820312 22.15625 L 116.167969 22.15625 Z M 116.167969 29.007812 L 115.820312 29.007812 L 115.820312 25.882812 L 116.167969 25.882812 Z M 116.167969 32.628906 L 115.820312 32.628906 L 115.820312 29.503906 L 116.167969 29.503906 Z M 115.03125 17.972656 L 114.683594 17.972656 L 114.683594 14.832031 L 115.03125 14.832031 Z M 115.03125 21.59375 L 114.683594 21.59375 L 114.683594 18.453125 L 115.03125 18.453125 Z M 115.03125 25.28125 L 114.683594 25.28125 L 114.683594 22.15625 L 115.03125 22.15625 Z M 115.03125 29.007812 L 114.683594 29.007812 L 114.683594 25.882812 L 115.03125 25.882812 Z M 115.03125 32.628906 L 114.683594 32.628906 L 114.683594 29.503906 L 115.03125 29.503906 Z M 113.910156 17.972656 L 113.5625 17.972656 L 113.5625 14.832031 L 113.910156 14.832031 Z M 113.910156 21.59375 L 113.5625 21.59375 L 113.5625 18.453125 L 113.910156 18.453125 Z M 113.910156 25.28125 L 113.5625 25.28125 L 113.5625 22.15625 L 113.910156 22.15625 Z M 113.910156 29.007812 L 113.5625 29.007812 L 113.5625 25.882812 L 113.910156 25.882812 Z M 113.910156 32.628906 L 113.5625 32.628906 L 113.5625 29.503906 L 113.910156 29.503906 Z M 112.773438 17.972656 L 112.425781 17.972656 L 112.425781 14.832031 L 112.773438 14.832031 Z M 112.773438 21.59375 L 112.425781 21.59375 L 112.425781 18.453125 L 112.773438 18.453125 Z M 112.773438 25.28125 L 112.425781 25.28125 L 112.425781 22.15625 L 112.773438 22.15625 Z M 112.773438 29.007812 L 112.425781 29.007812 L 112.425781 25.882812 L 112.773438 25.882812 Z M 112.773438 32.628906 L 112.425781 32.628906 L 112.425781 29.503906 L 112.773438 29.503906 Z M 111.636719 17.972656 L 111.300781 17.972656 L 111.300781 14.832031 L 111.636719 14.832031 Z M 111.636719 21.59375 L 111.300781 21.59375 L 111.300781 18.453125 L 111.636719 18.453125 Z M 111.636719 25.28125 L 111.300781 25.28125 L 111.300781 22.15625 L 111.636719 22.15625 Z M 111.636719 29.007812 L 111.300781 29.007812 L 111.300781 25.882812 L 111.636719 25.882812 Z M 111.636719 32.628906 L 111.300781 32.628906 L 111.300781 29.503906 L 111.636719 29.503906 Z M 110.511719 17.972656 L 110.164062 17.972656 L 110.164062 14.832031 L 110.511719 14.832031 Z M 110.511719 21.59375 L 110.164062 21.59375 L 110.164062 18.453125 L 110.511719 18.453125 Z M 110.511719 25.28125 L 110.164062 25.28125 L 110.164062 22.15625 L 110.511719 22.15625 Z M 110.511719 29.007812 L 110.164062 29.007812 L 110.164062 25.882812 L 110.511719 25.882812 Z M 110.511719 32.628906 L 110.164062 32.628906 L 110.164062 29.503906 L 110.511719 29.503906 Z M 108.386719 17.53125 L 108.039062 17.53125 L 108.039062 14.40625 L 108.386719 14.40625 Z M 108.386719 21.367188 L 108.039062 21.367188 L 108.039062 18.242188 L 108.386719 18.242188 Z M 108.386719 25.203125 L 108.039062 25.203125 L 108.039062 22.074219 L 108.386719 22.074219 Z M 108.386719 28.929688 L 108.039062 28.929688 L 108.039062 25.800781 L 108.386719 25.800781 Z M 108.386719 32.789062 L 108.039062 32.789062 L 108.039062 29.664062 L 108.386719 29.664062 Z M 107.25 17.53125 L 106.902344 17.53125 L 106.902344 14.40625 L 107.25 14.40625 Z M 107.25 21.367188 L 106.902344 21.367188 L 106.902344 18.242188 L 107.25 18.242188 Z M 107.25 25.203125 L 106.902344 25.203125 L 106.902344 22.074219 L 107.25 22.074219 Z M 107.25 28.929688 L 106.902344 28.929688 L 106.902344 25.800781 L 107.25 25.800781 Z M 107.25 32.789062 L 106.902344 32.789062 L 106.902344 29.664062 L 107.25 29.664062 Z M 106.113281 17.53125 L 105.777344 17.53125 L 105.777344 14.40625 L 106.113281 14.40625 Z M 106.113281 21.367188 L 105.777344 21.367188 L 105.777344 18.242188 L 106.113281 18.242188 Z M 106.113281 25.203125 L 105.777344 25.203125 L 105.777344 22.074219 L 106.113281 22.074219 Z M 106.113281 28.929688 L 105.777344 28.929688 L 105.777344 25.800781 L 106.113281 25.800781 Z M 106.113281 32.789062 L 105.777344 32.789062 L 105.777344 29.664062 L 106.113281 29.664062 Z M 104.988281 17.53125 L 104.640625 17.53125 L 104.640625 14.40625 L 104.988281 14.40625 Z M 104.988281 21.367188 L 104.640625 21.367188 L 104.640625 18.242188 L 104.988281 18.242188 Z M 104.988281 25.203125 L 104.640625 25.203125 L 104.640625 22.074219 L 104.988281 22.074219 Z M 104.988281 28.929688 L 104.640625 28.929688 L 104.640625 25.800781 L 104.988281 25.800781 Z M 104.988281 32.789062 L 104.640625 32.789062 L 104.640625 29.664062 L 104.988281 29.664062 Z M 103.851562 17.53125 L 103.503906 17.53125 L 103.503906 14.40625 L 103.851562 14.40625 Z M 103.851562 21.367188 L 103.503906 21.367188 L 103.503906 18.242188 L 103.851562 18.242188 Z M 103.851562 25.203125 L 103.503906 25.203125 L 103.503906 22.074219 L 103.851562 22.074219 Z M 103.851562 28.929688 L 103.503906 28.929688 L 103.503906 25.800781 L 103.851562 25.800781 Z M 103.851562 32.789062 L 103.503906 32.789062 L 103.503906 29.664062 L 103.851562 29.664062 Z M 102.730469 17.53125 L 102.378906 17.53125 L 102.378906 14.40625 L 102.730469 14.40625 Z M 102.730469 21.367188 L 102.378906 21.367188 L 102.378906 18.242188 L 102.730469 18.242188 Z M 102.730469 25.203125 L 102.378906 25.203125 L 102.378906 22.074219 L 102.730469 22.074219 Z M 102.730469 28.929688 L 102.378906 28.929688 L 102.378906 25.800781 L 102.730469 25.800781 Z M 102.730469 32.789062 L 102.378906 32.789062 L 102.378906 29.664062 L 102.730469 29.664062 Z M 101.539062 17.53125 L 101.191406 17.53125 L 101.191406 14.40625 L 101.539062 14.40625 Z M 101.539062 21.367188 L 101.191406 21.367188 L 101.191406 18.242188 L 101.539062 18.242188 Z M 101.539062 25.203125 L 101.191406 25.203125 L 101.191406 22.074219 L 101.539062 22.074219 Z M 101.539062 28.929688 L 101.191406 28.929688 L 101.191406 25.800781 L 101.539062 25.800781 Z M 101.539062 32.789062 L 101.191406 32.789062 L 101.191406 29.664062 L 101.539062 29.664062 Z M 100.402344 17.53125 L 100.054688 17.53125 L 100.054688 14.40625 L 100.402344 14.40625 Z M 100.402344 21.367188 L 100.054688 21.367188 L 100.054688 18.242188 L 100.402344 18.242188 Z M 100.402344 25.203125 L 100.054688 25.203125 L 100.054688 22.074219 L 100.402344 22.074219 Z M 100.402344 28.929688 L 100.054688 28.929688 L 100.054688 25.800781 L 100.402344 25.800781 Z M 100.402344 32.789062 L 100.054688 32.789062 L 100.054688 29.664062 L 100.402344 29.664062 Z M 99.265625 17.53125 L 98.929688 17.53125 L 98.929688 14.40625 L 99.265625 14.40625 Z M 99.265625 21.367188 L 98.929688 21.367188 L 98.929688 18.242188 L 99.265625 18.242188 Z M 99.265625 25.203125 L 98.929688 25.203125 L 98.929688 22.074219 L 99.265625 22.074219 Z M 99.265625 28.929688 L 98.929688 28.929688 L 98.929688 25.800781 L 99.265625 25.800781 Z M 99.265625 32.789062 L 98.929688 32.789062 L 98.929688 29.664062 L 99.265625 29.664062 Z M 98.140625 17.53125 L 97.792969 17.53125 L 97.792969 14.40625 L 98.140625 14.40625 Z M 98.140625 21.367188 L 97.792969 21.367188 L 97.792969 18.242188 L 98.140625 18.242188 Z M 98.140625 25.203125 L 97.792969 25.203125 L 97.792969 22.074219 L 98.140625 22.074219 Z M 98.140625 28.929688 L 97.792969 28.929688 L 97.792969 25.800781 L 98.140625 25.800781 Z M 98.140625 32.789062 L 97.792969 32.789062 L 97.792969 29.664062 L 98.140625 29.664062 Z M 97.003906 17.53125 L 96.65625 17.53125 L 96.65625 14.40625 L 97.003906 14.40625 Z M 97.003906 21.367188 L 96.65625 21.367188 L 96.65625 18.242188 L 97.003906 18.242188 Z M 97.003906 25.203125 L 96.65625 25.203125 L 96.65625 22.074219 L 97.003906 22.074219 Z M 97.003906 28.929688 L 96.65625 28.929688 L 96.65625 25.800781 L 97.003906 25.800781 Z M 97.003906 32.789062 L 96.65625 32.789062 L 96.65625 29.664062 L 97.003906 29.664062 Z M 95.867188 17.53125 L 95.535156 17.53125 L 95.535156 14.40625 L 95.867188 14.40625 Z M 95.867188 21.367188 L 95.535156 21.367188 L 95.535156 18.242188 L 95.867188 18.242188 Z M 95.867188 25.203125 L 95.535156 25.203125 L 95.535156 22.074219 L 95.867188 22.074219 Z M 95.867188 28.929688 L 95.535156 28.929688 L 95.535156 25.800781 L 95.867188 25.800781 Z M 95.867188 32.789062 L 95.535156 32.789062 L 95.535156 29.664062 L 95.867188 29.664062 Z M 94.007812 21.367188 L 93.660156 21.367188 L 93.660156 18.242188 L 94.007812 18.242188 Z M 94.007812 25.203125 L 93.660156 25.203125 L 93.660156 22.074219 L 94.007812 22.074219 Z M 94.007812 28.929688 L 93.660156 28.929688 L 93.660156 25.800781 L 94.007812 25.800781 Z M 94.007812 32.789062 L 93.660156 32.789062 L 93.660156 29.664062 L 94.007812 29.664062 Z M 92.886719 21.367188 L 92.539062 21.367188 L 92.539062 18.242188 L 92.886719 18.242188 Z M 92.886719 25.203125 L 92.539062 25.203125 L 92.539062 22.074219 L 92.886719 22.074219 Z M 92.886719 28.929688 L 92.539062 28.929688 L 92.539062 25.800781 L 92.886719 25.800781 Z M 92.886719 32.789062 L 92.539062 32.789062 L 92.539062 29.664062 L 92.886719 29.664062 Z M 91.75 21.367188 L 91.402344 21.367188 L 91.402344 18.242188 L 91.75 18.242188 Z M 91.75 25.203125 L 91.402344 25.203125 L 91.402344 22.074219 L 91.75 22.074219 Z M 91.75 28.929688 L 91.402344 28.929688 L 91.402344 25.800781 L 91.75 25.800781 Z M 91.75 32.789062 L 91.402344 32.789062 L 91.402344 29.664062 L 91.75 29.664062 Z M 90.625 21.367188 L 90.277344 21.367188 L 90.277344 18.242188 L 90.625 18.242188 Z M 90.625 25.203125 L 90.277344 25.203125 L 90.277344 22.074219 L 90.625 22.074219 Z M 90.625 28.929688 L 90.277344 28.929688 L 90.277344 25.800781 L 90.625 25.800781 Z M 90.625 32.789062 L 90.277344 32.789062 L 90.277344 29.664062 L 90.625 29.664062 Z M 89.488281 21.367188 L 89.140625 21.367188 L 89.140625 18.242188 L 89.488281 18.242188 Z M 89.488281 25.203125 L 89.140625 25.203125 L 89.140625 22.074219 L 89.488281 22.074219 Z M 89.488281 28.929688 L 89.140625 28.929688 L 89.140625 25.800781 L 89.488281 25.800781 Z M 89.488281 32.789062 L 89.140625 32.789062 L 89.140625 29.664062 L 89.488281 29.664062 Z M 88.351562 21.367188 L 88.015625 21.367188 L 88.015625 18.242188 L 88.351562 18.242188 Z M 88.351562 25.203125 L 88.015625 25.203125 L 88.015625 22.074219 L 88.351562 22.074219 Z M 88.351562 28.929688 L 88.015625 28.929688 L 88.015625 25.800781 L 88.351562 25.800781 Z M 88.351562 32.789062 L 88.015625 32.789062 L 88.015625 29.664062 L 88.351562 29.664062 Z M 87.160156 21.367188 L 86.8125 21.367188 L 86.8125 18.242188 L 87.160156 18.242188 Z M 87.160156 25.203125 L 86.8125 25.203125 L 86.8125 22.074219 L 87.160156 22.074219 Z M 87.160156 28.929688 L 86.8125 28.929688 L 86.8125 25.800781 L 87.160156 25.800781 Z M 87.160156 32.789062 L 86.8125 32.789062 L 86.8125 29.664062 L 87.160156 29.664062 Z M 86.039062 21.367188 L 85.691406 21.367188 L 85.691406 18.242188 L 86.039062 18.242188 Z M 86.039062 25.203125 L 85.691406 25.203125 L 85.691406 22.074219 L 86.039062 22.074219 Z M 86.039062 28.929688 L 85.691406 28.929688 L 85.691406 25.800781 L 86.039062 25.800781 Z M 86.039062 32.789062 L 85.691406 32.789062 L 85.691406 29.664062 L 86.039062 29.664062 Z M 84.902344 21.367188 L 84.554688 21.367188 L 84.554688 18.242188 L 84.902344 18.242188 Z M 84.902344 25.203125 L 84.554688 25.203125 L 84.554688 22.074219 L 84.902344 22.074219 Z M 84.902344 28.929688 L 84.554688 28.929688 L 84.554688 25.800781 L 84.902344 25.800781 Z M 84.902344 32.789062 L 84.554688 32.789062 L 84.554688 29.664062 L 84.902344 29.664062 Z M 83.777344 21.367188 L 83.417969 21.367188 L 83.417969 18.242188 L 83.777344 18.242188 Z M 83.777344 25.203125 L 83.417969 25.203125 L 83.417969 22.074219 L 83.777344 22.074219 Z M 83.777344 28.929688 L 83.417969 28.929688 L 83.417969 25.800781 L 83.777344 25.800781 Z M 83.777344 32.789062 L 83.417969 32.789062 L 83.417969 29.664062 L 83.777344 29.664062 Z M 82.640625 21.367188 L 82.292969 21.367188 L 82.292969 18.242188 L 82.640625 18.242188 Z M 82.640625 25.203125 L 82.292969 25.203125 L 82.292969 22.074219 L 82.640625 22.074219 Z M 82.640625 28.929688 L 82.292969 28.929688 L 82.292969 25.800781 L 82.640625 25.800781 Z M 82.640625 32.789062 L 82.292969 32.789062 L 82.292969 29.664062 L 82.640625 29.664062 Z M 81.503906 21.367188 L 81.15625 21.367188 L 81.15625 18.242188 L 81.503906 18.242188 Z M 81.503906 25.203125 L 81.15625 25.203125 L 81.15625 22.074219 L 81.503906 22.074219 Z M 81.503906 28.929688 L 81.15625 28.929688 L 81.15625 25.800781 L 81.503906 25.800781 Z M 81.503906 32.789062 L 81.15625 32.789062 L 81.15625 29.664062 L 81.503906 29.664062 Z M 79.644531 17.558594 L 79.296875 17.558594 L 79.296875 14.433594 L 79.644531 14.433594 Z M 79.644531 21.394531 L 79.296875 21.394531 L 79.296875 18.265625 L 79.644531 18.265625 Z M 79.644531 25.226562 L 79.296875 25.226562 L 79.296875 22.101562 L 79.644531 22.101562 Z M 79.644531 28.957031 L 79.296875 28.957031 L 79.296875 25.828125 L 79.644531 25.828125 Z M 79.644531 32.832031 L 79.296875 32.832031 L 79.296875 29.691406 L 79.644531 29.691406 Z M 78.507812 17.558594 L 78.171875 17.558594 L 78.171875 14.433594 L 78.507812 14.433594 Z M 78.507812 21.394531 L 78.171875 21.394531 L 78.171875 18.265625 L 78.507812 18.265625 Z M 78.507812 25.226562 L 78.171875 25.226562 L 78.171875 22.101562 L 78.507812 22.101562 Z M 78.507812 28.957031 L 78.171875 28.957031 L 78.171875 25.828125 L 78.507812 25.828125 Z M 78.507812 32.832031 L 78.171875 32.832031 L 78.171875 29.691406 L 78.507812 29.691406 Z M 77.382812 17.558594 L 77.035156 17.558594 L 77.035156 14.433594 L 77.382812 14.433594 Z M 77.382812 21.394531 L 77.035156 21.394531 L 77.035156 18.265625 L 77.382812 18.265625 Z M 77.382812 25.226562 L 77.035156 25.226562 L 77.035156 22.101562 L 77.382812 22.101562 Z M 77.382812 28.957031 L 77.035156 28.957031 L 77.035156 25.828125 L 77.382812 25.828125 Z M 77.382812 32.832031 L 77.035156 32.832031 L 77.035156 29.691406 L 77.382812 29.691406 Z M 76.246094 17.558594 L 75.898438 17.558594 L 75.898438 14.433594 L 76.246094 14.433594 Z M 76.246094 21.394531 L 75.898438 21.394531 L 75.898438 18.265625 L 76.246094 18.265625 Z M 76.246094 25.226562 L 75.898438 25.226562 L 75.898438 22.101562 L 76.246094 22.101562 Z M 76.246094 28.957031 L 75.898438 28.957031 L 75.898438 25.828125 L 76.246094 25.828125 Z M 76.246094 32.832031 L 75.898438 32.832031 L 75.898438 29.691406 L 76.246094 29.691406 Z M 75.125 17.558594 L 74.777344 17.558594 L 74.777344 14.433594 L 75.125 14.433594 Z M 75.125 21.394531 L 74.777344 21.394531 L 74.777344 18.265625 L 75.125 18.265625 Z M 75.125 25.226562 L 74.777344 25.226562 L 74.777344 22.101562 L 75.125 22.101562 Z M 75.125 28.957031 L 74.777344 28.957031 L 74.777344 25.828125 L 75.125 25.828125 Z M 75.125 32.832031 L 74.777344 32.832031 L 74.777344 29.691406 L 75.125 29.691406 Z M 73.988281 17.558594 L 73.640625 17.558594 L 73.640625 14.433594 L 73.988281 14.433594 Z M 73.988281 21.394531 L 73.640625 21.394531 L 73.640625 18.265625 L 73.988281 18.265625 Z M 73.988281 25.226562 L 73.640625 25.226562 L 73.640625 22.101562 L 73.988281 22.101562 Z M 73.988281 28.957031 L 73.640625 28.957031 L 73.640625 25.828125 L 73.988281 25.828125 Z M 73.988281 32.832031 L 73.640625 32.832031 L 73.640625 29.691406 L 73.988281 29.691406 Z M 72.796875 17.558594 L 72.449219 17.558594 L 72.449219 14.433594 L 72.796875 14.433594 Z M 72.796875 21.394531 L 72.449219 21.394531 L 72.449219 18.265625 L 72.796875 18.265625 Z M 72.796875 25.226562 L 72.449219 25.226562 L 72.449219 22.101562 L 72.796875 22.101562 Z M 72.796875 28.957031 L 72.449219 28.957031 L 72.449219 25.828125 L 72.796875 25.828125 Z M 72.796875 32.832031 L 72.449219 32.832031 L 72.449219 29.691406 L 72.796875 29.691406 Z M 71.660156 17.558594 L 71.3125 17.558594 L 71.3125 14.433594 L 71.660156 14.433594 Z M 71.660156 21.394531 L 71.3125 21.394531 L 71.3125 18.265625 L 71.660156 18.265625 Z M 71.660156 25.226562 L 71.3125 25.226562 L 71.3125 22.101562 L 71.660156 22.101562 Z M 71.660156 28.957031 L 71.3125 28.957031 L 71.3125 25.828125 L 71.660156 25.828125 Z M 71.660156 32.832031 L 71.3125 32.832031 L 71.3125 29.691406 L 71.660156 29.691406 Z M 70.535156 17.558594 L 70.1875 17.558594 L 70.1875 14.433594 L 70.535156 14.433594 Z M 70.535156 21.394531 L 70.1875 21.394531 L 70.1875 18.265625 L 70.535156 18.265625 Z M 70.535156 25.226562 L 70.1875 25.226562 L 70.1875 22.101562 L 70.535156 22.101562 Z M 70.535156 28.957031 L 70.1875 28.957031 L 70.1875 25.828125 L 70.535156 25.828125 Z M 70.535156 32.832031 L 70.1875 32.832031 L 70.1875 29.691406 L 70.535156 29.691406 Z M 69.398438 17.558594 L 69.050781 17.558594 L 69.050781 14.433594 L 69.398438 14.433594 Z M 69.398438 21.394531 L 69.050781 21.394531 L 69.050781 18.265625 L 69.398438 18.265625 Z M 69.398438 25.226562 L 69.050781 25.226562 L 69.050781 22.101562 L 69.398438 22.101562 Z M 69.398438 28.957031 L 69.050781 28.957031 L 69.050781 25.828125 L 69.398438 25.828125 Z M 69.398438 32.832031 L 69.050781 32.832031 L 69.050781 29.691406 L 69.398438 29.691406 Z M 68.261719 17.558594 L 67.929688 17.558594 L 67.929688 14.433594 L 68.261719 14.433594 Z M 68.261719 21.394531 L 67.929688 21.394531 L 67.929688 18.265625 L 68.261719 18.265625 Z M 68.261719 25.226562 L 67.929688 25.226562 L 67.929688 22.101562 L 68.261719 22.101562 Z M 68.261719 28.957031 L 67.929688 28.957031 L 67.929688 25.828125 L 68.261719 25.828125 Z M 68.261719 32.832031 L 67.929688 32.832031 L 67.929688 29.691406 L 68.261719 29.691406 Z M 67.140625 17.558594 L 66.792969 17.558594 L 66.792969 14.433594 L 67.140625 14.433594 Z M 67.140625 21.394531 L 66.792969 21.394531 L 66.792969 18.265625 L 67.140625 18.265625 Z M 67.140625 25.226562 L 66.792969 25.226562 L 66.792969 22.101562 L 67.140625 22.101562 Z M 67.140625 28.957031 L 66.792969 28.957031 L 66.792969 25.828125 L 67.140625 25.828125 Z M 67.140625 32.832031 L 66.792969 32.832031 L 66.792969 29.691406 L 67.140625 29.691406 Z M 65.28125 21.394531 L 64.933594 21.394531 L 64.933594 18.265625 L 65.28125 18.265625 Z M 65.28125 25.226562 L 64.933594 25.226562 L 64.933594 22.101562 L 65.28125 22.101562 Z M 65.28125 28.957031 L 64.933594 28.957031 L 64.933594 25.828125 L 65.28125 25.828125 Z M 65.28125 32.832031 L 64.933594 32.832031 L 64.933594 29.691406 L 65.28125 29.691406 Z M 64.144531 21.394531 L 63.796875 21.394531 L 63.796875 18.265625 L 64.144531 18.265625 Z M 64.144531 25.226562 L 63.796875 25.226562 L 63.796875 22.101562 L 64.144531 22.101562 Z M 64.144531 28.957031 L 63.796875 28.957031 L 63.796875 25.828125 L 64.144531 25.828125 Z M 64.144531 32.832031 L 63.796875 32.832031 L 63.796875 29.691406 L 64.144531 29.691406 Z M 63.019531 21.394531 L 62.671875 21.394531 L 62.671875 18.265625 L 63.019531 18.265625 Z M 63.019531 25.226562 L 62.671875 25.226562 L 62.671875 22.101562 L 63.019531 22.101562 Z M 63.019531 28.957031 L 62.671875 28.957031 L 62.671875 25.828125 L 63.019531 25.828125 Z M 63.019531 32.832031 L 62.671875 32.832031 L 62.671875 29.691406 L 63.019531 29.691406 Z M 61.882812 21.394531 L 61.535156 21.394531 L 61.535156 18.265625 L 61.882812 18.265625 Z M 61.882812 25.226562 L 61.535156 25.226562 L 61.535156 22.101562 L 61.882812 22.101562 Z M 61.882812 28.957031 L 61.535156 28.957031 L 61.535156 25.828125 L 61.882812 25.828125 Z M 61.882812 32.832031 L 61.535156 32.832031 L 61.535156 29.691406 L 61.882812 29.691406 Z M 60.746094 21.394531 L 60.414062 21.394531 L 60.414062 18.265625 L 60.746094 18.265625 Z M 60.746094 25.226562 L 60.414062 25.226562 L 60.414062 22.101562 L 60.746094 22.101562 Z M 60.746094 28.957031 L 60.414062 28.957031 L 60.414062 25.828125 L 60.746094 25.828125 Z M 60.746094 32.832031 L 60.414062 32.832031 L 60.414062 29.691406 L 60.746094 29.691406 Z M 59.625 21.394531 L 59.277344 21.394531 L 59.277344 18.265625 L 59.625 18.265625 Z M 59.625 25.226562 L 59.277344 25.226562 L 59.277344 22.101562 L 59.625 22.101562 Z M 59.625 28.957031 L 59.277344 28.957031 L 59.277344 25.828125 L 59.625 25.828125 Z M 59.625 32.832031 L 59.277344 32.832031 L 59.277344 29.691406 L 59.625 29.691406 Z M 58.433594 21.394531 L 58.085938 21.394531 L 58.085938 18.265625 L 58.433594 18.265625 Z M 58.433594 25.226562 L 58.085938 25.226562 L 58.085938 22.101562 L 58.433594 22.101562 Z M 58.433594 28.957031 L 58.085938 28.957031 L 58.085938 25.828125 L 58.433594 25.828125 Z M 58.433594 32.832031 L 58.085938 32.832031 L 58.085938 29.691406 L 58.433594 29.691406 Z M 57.296875 21.394531 L 56.949219 21.394531 L 56.949219 18.265625 L 57.296875 18.265625 Z M 57.296875 25.226562 L 56.949219 25.226562 L 56.949219 22.101562 L 57.296875 22.101562 Z M 57.296875 28.957031 L 56.949219 28.957031 L 56.949219 25.828125 L 57.296875 25.828125 Z M 57.296875 32.832031 L 56.949219 32.832031 L 56.949219 29.691406 L 57.296875 29.691406 Z M 56.171875 21.394531 L 55.8125 21.394531 L 55.8125 18.265625 L 56.171875 18.265625 Z M 56.171875 25.226562 L 55.8125 25.226562 L 55.8125 22.101562 L 56.171875 22.101562 Z M 56.171875 28.957031 L 55.8125 28.957031 L 55.8125 25.828125 L 56.171875 25.828125 Z M 56.171875 32.832031 L 55.8125 32.832031 L 55.8125 29.691406 L 56.171875 29.691406 Z M 55.035156 21.394531 L 54.6875 21.394531 L 54.6875 18.265625 L 55.035156 18.265625 Z M 55.035156 25.226562 L 54.6875 25.226562 L 54.6875 22.101562 L 55.035156 22.101562 Z M 55.035156 28.957031 L 54.6875 28.957031 L 54.6875 25.828125 L 55.035156 25.828125 Z M 55.035156 32.832031 L 54.6875 32.832031 L 54.6875 29.691406 L 55.035156 29.691406 Z M 53.898438 21.394531 L 53.550781 21.394531 L 53.550781 18.265625 L 53.898438 18.265625 Z M 53.898438 25.226562 L 53.550781 25.226562 L 53.550781 22.101562 L 53.898438 22.101562 Z M 53.898438 28.957031 L 53.550781 28.957031 L 53.550781 25.828125 L 53.898438 25.828125 Z M 53.898438 32.832031 L 53.550781 32.832031 L 53.550781 29.691406 L 53.898438 29.691406 Z M 52.777344 21.394531 L 52.429688 21.394531 L 52.429688 18.265625 L 52.777344 18.265625 Z M 52.777344 25.226562 L 52.429688 25.226562 L 52.429688 22.101562 L 52.777344 22.101562 Z M 52.777344 28.957031 L 52.429688 28.957031 L 52.429688 25.828125 L 52.777344 25.828125 Z M 52.777344 32.832031 L 52.429688 32.832031 L 52.429688 29.691406 L 52.777344 29.691406 Z M 38.640625 32.722656 L 38.183594 32.722656 L 38.183594 22.917969 L 34.132812 22.917969 L 34.132812 22.675781 L 38.183594 22.675781 L 38.183594 15.476562 L 38.640625 15.476562 Z M 32.179688 17.253906 L 31.832031 17.253906 L 31.832031 14.125 L 32.179688 14.125 Z M 32.179688 21.085938 L 31.832031 21.085938 L 31.832031 17.960938 L 32.179688 17.960938 Z M 32.179688 24.921875 L 31.832031 24.921875 L 31.832031 21.792969 L 32.179688 21.792969 Z M 32.179688 28.648438 L 31.832031 28.648438 L 31.832031 25.523438 L 32.179688 25.523438 Z M 32.179688 32.507812 L 31.832031 32.507812 L 31.832031 29.382812 L 32.179688 29.382812 Z M 31.054688 17.253906 L 30.707031 17.253906 L 30.707031 14.125 L 31.054688 14.125 Z M 31.054688 21.085938 L 30.707031 21.085938 L 30.707031 17.960938 L 31.054688 17.960938 Z M 31.054688 24.921875 L 30.707031 24.921875 L 30.707031 21.792969 L 31.054688 21.792969 Z M 31.054688 28.648438 L 30.707031 28.648438 L 30.707031 25.523438 L 31.054688 25.523438 Z M 31.054688 32.507812 L 30.707031 32.507812 L 30.707031 29.382812 L 31.054688 29.382812 Z M 29.917969 17.253906 L 29.570312 17.253906 L 29.570312 14.125 L 29.917969 14.125 Z M 29.917969 21.085938 L 29.570312 21.085938 L 29.570312 17.960938 L 29.917969 17.960938 Z M 29.917969 24.921875 L 29.570312 24.921875 L 29.570312 21.792969 L 29.917969 21.792969 Z M 29.917969 28.648438 L 29.570312 28.648438 L 29.570312 25.523438 L 29.917969 25.523438 Z M 29.917969 32.507812 L 29.570312 32.507812 L 29.570312 29.382812 L 29.917969 29.382812 Z M 28.78125 17.253906 L 28.433594 17.253906 L 28.433594 14.125 L 28.78125 14.125 Z M 28.78125 21.085938 L 28.433594 21.085938 L 28.433594 17.960938 L 28.78125 17.960938 Z M 28.78125 24.921875 L 28.433594 24.921875 L 28.433594 21.792969 L 28.78125 21.792969 Z M 28.78125 28.648438 L 28.433594 28.648438 L 28.433594 25.523438 L 28.78125 25.523438 Z M 28.78125 32.507812 L 28.433594 32.507812 L 28.433594 29.382812 L 28.78125 29.382812 Z M 27.660156 17.253906 L 27.3125 17.253906 L 27.3125 14.125 L 27.660156 14.125 Z M 27.660156 21.085938 L 27.3125 21.085938 L 27.3125 17.960938 L 27.660156 17.960938 Z M 27.660156 24.921875 L 27.3125 24.921875 L 27.3125 21.792969 L 27.660156 21.792969 Z M 27.660156 28.648438 L 27.3125 28.648438 L 27.3125 25.523438 L 27.660156 25.523438 Z M 27.660156 32.507812 L 27.3125 32.507812 L 27.3125 29.382812 L 27.660156 29.382812 Z M 26.523438 17.253906 L 26.175781 17.253906 L 26.175781 14.125 L 26.523438 14.125 Z M 26.523438 21.085938 L 26.175781 21.085938 L 26.175781 17.960938 L 26.523438 17.960938 Z M 26.523438 24.921875 L 26.175781 24.921875 L 26.175781 21.792969 L 26.523438 21.792969 Z M 26.523438 28.648438 L 26.175781 28.648438 L 26.175781 25.523438 L 26.523438 25.523438 Z M 26.523438 32.507812 L 26.175781 32.507812 L 26.175781 29.382812 L 26.523438 29.382812 Z M 25.332031 17.253906 L 24.984375 17.253906 L 24.984375 14.125 L 25.332031 14.125 Z M 25.332031 21.085938 L 24.984375 21.085938 L 24.984375 17.960938 L 25.332031 17.960938 Z M 25.332031 24.921875 L 24.984375 24.921875 L 24.984375 21.792969 L 25.332031 21.792969 Z M 25.332031 28.648438 L 24.984375 28.648438 L 24.984375 25.523438 L 25.332031 25.523438 Z M 25.332031 32.507812 L 24.984375 32.507812 L 24.984375 29.382812 L 25.332031 29.382812 Z M 24.195312 17.253906 L 23.859375 17.253906 L 23.859375 14.125 L 24.195312 14.125 Z M 24.195312 21.085938 L 23.859375 21.085938 L 23.859375 17.960938 L 24.195312 17.960938 Z M 24.195312 24.921875 L 23.859375 24.921875 L 23.859375 21.792969 L 24.195312 21.792969 Z M 24.195312 28.648438 L 23.859375 28.648438 L 23.859375 25.523438 L 24.195312 25.523438 Z M 24.195312 32.507812 L 23.859375 32.507812 L 23.859375 29.382812 L 24.195312 29.382812 Z M 23.070312 17.253906 L 22.722656 17.253906 L 22.722656 14.125 L 23.070312 14.125 Z M 23.070312 21.085938 L 22.722656 21.085938 L 22.722656 17.960938 L 23.070312 17.960938 Z M 23.070312 24.921875 L 22.722656 24.921875 L 22.722656 21.792969 L 23.070312 21.792969 Z M 23.070312 28.648438 L 22.722656 28.648438 L 22.722656 25.523438 L 23.070312 25.523438 Z M 23.070312 32.507812 L 22.722656 32.507812 L 22.722656 29.382812 L 23.070312 29.382812 Z M 21.933594 17.253906 L 21.585938 17.253906 L 21.585938 14.125 L 21.933594 14.125 Z M 21.933594 21.085938 L 21.585938 21.085938 L 21.585938 17.960938 L 21.933594 17.960938 Z M 21.933594 24.921875 L 21.585938 24.921875 L 21.585938 21.792969 L 21.933594 21.792969 Z M 21.933594 28.648438 L 21.585938 28.648438 L 21.585938 25.523438 L 21.933594 25.523438 Z M 21.933594 32.507812 L 21.585938 32.507812 L 21.585938 29.382812 L 21.933594 29.382812 Z M 20.8125 17.253906 L 20.464844 17.253906 L 20.464844 14.125 L 20.8125 14.125 Z M 20.8125 21.085938 L 20.464844 21.085938 L 20.464844 17.960938 L 20.8125 17.960938 Z M 20.8125 24.921875 L 20.464844 24.921875 L 20.464844 21.792969 L 20.8125 21.792969 Z M 20.8125 28.648438 L 20.464844 28.648438 L 20.464844 25.523438 L 20.8125 25.523438 Z M 20.8125 32.507812 L 20.464844 32.507812 L 20.464844 29.382812 L 20.8125 29.382812 Z M 19.675781 17.253906 L 19.328125 17.253906 L 19.328125 14.125 L 19.675781 14.125 Z M 19.675781 21.085938 L 19.328125 21.085938 L 19.328125 17.960938 L 19.675781 17.960938 Z M 19.675781 24.921875 L 19.328125 24.921875 L 19.328125 21.792969 L 19.675781 21.792969 Z M 19.675781 28.648438 L 19.328125 28.648438 L 19.328125 25.523438 L 19.675781 25.523438 Z M 19.675781 32.507812 L 19.328125 32.507812 L 19.328125 29.382812 L 19.675781 29.382812 Z M 17.84375 17.878906 L 17.496094 17.878906 L 17.496094 14.738281 L 17.84375 14.738281 Z M 17.84375 21.488281 L 17.496094 21.488281 L 17.496094 18.359375 L 17.84375 18.359375 Z M 17.84375 25.214844 L 17.496094 25.214844 L 17.496094 22.089844 L 17.84375 22.089844 Z M 17.84375 28.941406 L 17.496094 28.941406 L 17.496094 25.816406 L 17.84375 25.816406 Z M 17.84375 32.5625 L 17.496094 32.5625 L 17.496094 29.4375 L 17.84375 29.4375 Z M 16.71875 17.878906 L 16.371094 17.878906 L 16.371094 14.738281 L 16.71875 14.738281 Z M 16.71875 21.488281 L 16.371094 21.488281 L 16.371094 18.359375 L 16.71875 18.359375 Z M 16.71875 25.214844 L 16.371094 25.214844 L 16.371094 22.089844 L 16.71875 22.089844 Z M 16.71875 28.941406 L 16.371094 28.941406 L 16.371094 25.816406 L 16.71875 25.816406 Z M 16.71875 32.5625 L 16.371094 32.5625 L 16.371094 29.4375 L 16.71875 29.4375 Z M 15.582031 17.878906 L 15.234375 17.878906 L 15.234375 14.738281 L 15.582031 14.738281 Z M 15.582031 21.488281 L 15.234375 21.488281 L 15.234375 18.359375 L 15.582031 18.359375 Z M 15.582031 25.214844 L 15.234375 25.214844 L 15.234375 22.089844 L 15.582031 22.089844 Z M 15.582031 28.941406 L 15.234375 28.941406 L 15.234375 25.816406 L 15.582031 25.816406 Z M 15.582031 32.5625 L 15.234375 32.5625 L 15.234375 29.4375 L 15.582031 29.4375 Z M 14.445312 17.878906 L 14.097656 17.878906 L 14.097656 14.738281 L 14.445312 14.738281 Z M 14.445312 21.488281 L 14.097656 21.488281 L 14.097656 18.359375 L 14.445312 18.359375 Z M 14.445312 25.214844 L 14.097656 25.214844 L 14.097656 22.089844 L 14.445312 22.089844 Z M 14.445312 28.941406 L 14.097656 28.941406 L 14.097656 25.816406 L 14.445312 25.816406 Z M 14.445312 32.5625 L 14.097656 32.5625 L 14.097656 29.4375 L 14.445312 29.4375 Z M 13.324219 17.878906 L 12.976562 17.878906 L 12.976562 14.738281 L 13.324219 14.738281 Z M 13.324219 21.488281 L 12.976562 21.488281 L 12.976562 18.359375 L 13.324219 18.359375 Z M 13.324219 25.214844 L 12.976562 25.214844 L 12.976562 22.089844 L 13.324219 22.089844 Z M 13.324219 28.941406 L 12.976562 28.941406 L 12.976562 25.816406 L 13.324219 25.816406 Z M 13.324219 32.5625 L 12.976562 32.5625 L 12.976562 29.4375 L 13.324219 29.4375 Z M 12.1875 17.878906 L 11.835938 17.878906 L 11.835938 14.738281 L 12.1875 14.738281 Z M 12.1875 21.488281 L 11.835938 21.488281 L 11.835938 18.359375 L 12.1875 18.359375 Z M 12.1875 25.214844 L 11.835938 25.214844 L 11.835938 22.089844 L 12.1875 22.089844 Z M 12.1875 28.941406 L 11.835938 28.941406 L 11.835938 25.816406 L 12.1875 25.816406 Z M 12.1875 32.5625 L 11.835938 32.5625 L 11.835938 29.4375 L 12.1875 29.4375 Z M 10.351562 21.433594 L 10.003906 21.433594 L 10.003906 18.308594 L 10.351562 18.308594 Z M 10.351562 25.160156 L 10.003906 25.160156 L 10.003906 22.035156 L 10.351562 22.035156 Z M 10.351562 28.890625 L 10.003906 28.890625 L 10.003906 25.761719 L 10.351562 25.761719 Z M 10.351562 32.507812 L 10.003906 32.507812 L 10.003906 29.382812 L 10.351562 29.382812 Z M 9.230469 21.433594 L 8.882812 21.433594 L 8.882812 18.308594 L 9.230469 18.308594 Z M 9.230469 25.160156 L 8.882812 25.160156 L 8.882812 22.035156 L 9.230469 22.035156 Z M 9.230469 28.890625 L 8.882812 28.890625 L 8.882812 25.761719 L 9.230469 25.761719 Z M 9.230469 32.507812 L 8.882812 32.507812 L 8.882812 29.382812 L 9.230469 29.382812 Z M 8.09375 21.433594 L 7.746094 21.433594 L 7.746094 18.308594 L 8.09375 18.308594 Z M 8.09375 25.160156 L 7.746094 25.160156 L 7.746094 22.035156 L 8.09375 22.035156 Z M 8.09375 28.890625 L 7.746094 28.890625 L 7.746094 25.761719 L 8.09375 25.761719 Z M 8.09375 32.507812 L 7.746094 32.507812 L 7.746094 29.382812 L 8.09375 29.382812 Z M 6.96875 21.433594 L 6.621094 21.433594 L 6.621094 18.308594 L 6.96875 18.308594 Z M 6.96875 25.160156 L 6.621094 25.160156 L 6.621094 22.035156 L 6.96875 22.035156 Z M 6.96875 28.890625 L 6.621094 28.890625 L 6.621094 25.761719 L 6.96875 25.761719 Z M 6.96875 32.507812 L 6.621094 32.507812 L 6.621094 29.382812 L 6.96875 29.382812 Z M 5.832031 21.433594 L 5.484375 21.433594 L 5.484375 18.308594 L 5.832031 18.308594 Z M 5.832031 25.160156 L 5.484375 25.160156 L 5.484375 22.035156 L 5.832031 22.035156 Z M 5.832031 28.890625 L 5.484375 28.890625 L 5.484375 25.761719 L 5.832031 25.761719 Z M 5.832031 32.507812 L 5.484375 32.507812 L 5.484375 29.382812 L 5.832031 29.382812 Z M 4.695312 21.433594 L 4.347656 21.433594 L 4.347656 18.308594 L 4.695312 18.308594 Z M 4.695312 25.160156 L 4.347656 25.160156 L 4.347656 22.035156 L 4.695312 22.035156 Z M 4.695312 28.890625 L 4.347656 28.890625 L 4.347656 25.761719 L 4.695312 25.761719 Z M 4.695312 32.507812 L 4.347656 32.507812 L 4.347656 29.382812 L 4.695312 29.382812 Z M 41.382812 13.738281 L 41.902344 13.738281 L 41.902344 14.539062 L 41.382812 14.539062 Z M 42.035156 12.136719 L 42.558594 12.136719 L 42.558594 12.9375 L 42.035156 12.9375 Z M 43.242188 13.710938 L 43.761719 13.710938 L 43.761719 14.511719 L 43.242188 14.511719 Z M 43.882812 12.109375 L 44.417969 12.109375 L 44.417969 12.910156 L 43.882812 12.910156 Z M 41.113281 20.152344 L 41.648438 20.152344 L 41.648438 20.953125 L 41.113281 20.953125 Z M 41.113281 18.519531 L 41.648438 18.519531 L 41.648438 19.324219 L 41.113281 19.324219 Z M 43.242188 20.042969 L 43.761719 20.042969 L 43.761719 20.847656 L 43.242188 20.847656 Z M 43.242188 18.402344 L 43.761719 18.402344 L 43.761719 19.203125 L 43.242188 19.203125 Z M 45.167969 20.042969 L 45.703125 20.042969 L 45.703125 20.847656 L 45.167969 20.847656 Z M 45.167969 18.402344 L 45.703125 18.402344 L 45.703125 19.203125 L 45.167969 19.203125 Z M 165.332031 21.78125 L 165.601562 21.78125 C 165.601562 21.808594 165.574219 21.808594 165.585938 21.835938 L 169.4375 29.675781 L 165.332031 29.742188 Z M 171.847656 29.636719 L 169.667969 29.664062 L 165.800781 21.78125 L 165.921875 21.78125 L 165.921875 20.164062 L 165.667969 20.164062 C 165.90625 19.925781 166.042969 19.601562 166.042969 19.242188 C 166.042969 18.496094 165.441406 17.878906 164.691406 17.878906 C 163.941406 17.878906 163.328125 18.496094 163.328125 19.242188 C 163.328125 19.601562 163.472656 19.925781 163.714844 20.164062 L 163.460938 20.164062 L 163.460938 21.78125 L 163.582031 21.78125 L 163.515625 21.929688 L 163.460938 21.929688 C 163.367188 21.929688 163.285156 22.007812 163.285156 22.101562 C 163.285156 22.15625 163.355469 22.15625 163.378906 22.195312 L 160.824219 27.394531 L 158.875 26.257812 L 158.875 25.9375 L 157.667969 25.9375 L 157.667969 29.863281 L 154.257812 29.929688 L 154.257812 22.796875 L 146.769531 22.796875 L 146.769531 30.050781 L 146.769531 19.054688 L 139.28125 19.054688 L 139.28125 21.632812 L 131.789062 21.632812 L 131.789062 25.414062 L 124.300781 25.414062 L 124.300781 21.742188 L 116.90625 21.742188 L 116.90625 14.484375 L 109.429688 14.484375 L 109.429688 32.722656 L 109.160156 32.722656 L 109.160156 14.058594 L 94.785156 14.058594 L 94.785156 17.894531 L 80.421875 17.894531 L 80.421875 14.085938 L 66.058594 14.085938 L 66.058594 17.921875 L 51.679688 17.921875 L 51.679688 32.722656 L 47.8125 32.722656 L 47.8125 23.851562 L 39.46875 23.851562 L 39.46875 21.980469 L 47.8125 21.980469 L 47.8125 17.492188 L 39.46875 17.492188 L 39.46875 15.636719 L 39.683594 15.636719 L 39.683594 9.730469 L 40.125 9.730469 L 40.125 15.636719 L 47.8125 15.636719 L 47.8125 11.078125 L 42.332031 11.078125 L 42.332031 11.050781 L 40.339844 11.050781 L 40.339844 10.851562 L 42.332031 10.851562 L 42.332031 9.035156 L 42.542969 9.035156 L 42.542969 3.128906 L 41.246094 3.128906 L 37.917969 11.105469 L 36.929688 11.105469 L 36.273438 6.390625 L 31.589844 7.042969 L 30.375 11.105469 L 29.210938 11.105469 L 29.078125 13.765625 L 18.59375 13.765625 L 18.59375 14.394531 L 11.101562 14.394531 L 11.101562 17.960938 L 3.613281 17.960938 L 3.613281 32.722656 L 3.039062 32.722656 L 3.039062 26.816406 L 2.476562 26.816406 L 1.621094 32.722656 L 0.65625 32.722656 L 5.632812 44.679688 L 165.652344 44.679688 L 164.492188 41.085938 L 171.847656 29.636719 " fill-opacity="1" fill-rule="nonzero"/></g><g clip-path="url(#8a77e3c8c0)"><path fill="#000000" d="M 46.4375 7.324219 L 43.441406 7.324219 L 43.441406 5.28125 L 46.304688 5.28125 L 45.582031 3.410156 L 45.285156 2.636719 L 46.222656 -0.0234375 L 45.460938 -0.0234375 L 44.175781 3.128906 L 43 3.128906 L 43 9.035156 L 46.25 9.035156 L 46.4375 7.324219 " fill-opacity="1" fill-rule="nonzero"/></g><path fill="#000000" d="M 157.855469 36.332031 L 158.296875 37.652344 C 158.363281 37.679688 158.433594 37.707031 158.457031 37.695312 C 158.527344 37.640625 159.035156 36.839844 159.394531 36.746094 L 159.433594 36.839844 L 159.195312 37.027344 C 159.195312 37.027344 158.710938 38.148438 158.40625 38.214844 C 158.136719 38.386719 157.015625 37.90625 157.015625 37.90625 L 156.773438 37.921875 L 156.640625 38.65625 C 157 38.710938 158.246094 38.84375 158.953125 38.132812 C 159.476562 37.625 159.621094 36.8125 159.433594 35.691406 L 157.855469 36.332031 " fill-opacity="1" fill-rule="nonzero"/><path fill="#000000" d="M 47.828125 6.628906 L 46.609375 6.628906 L 46.878906 5.976562 L 48.109375 5.976562 Z M 45.3125 6.628906 L 45.554688 5.976562 L 46.609375 5.976562 L 46.371094 6.628906 Z M 49.367188 5.976562 L 49.554688 5.480469 L 43.65625 5.480469 L 43.65625 7.125 L 48.910156 7.125 L 49.113281 6.628906 L 48.054688 6.628906 L 48.335938 5.976562 L 49.367188 5.976562 " fill-opacity="1" fill-rule="nonzero"/><path fill="#000000" d="M 47.132812 10.382812 L 45.914062 10.382812 L 46.183594 9.730469 L 47.414062 9.730469 Z M 44.617188 10.382812 L 44.859375 9.730469 L 45.914062 9.730469 L 45.675781 10.382812 Z M 48.671875 9.730469 L 48.871094 9.222656 L 42.542969 9.222656 L 42.542969 10.878906 L 48.214844 10.878906 L 48.417969 10.382812 L 47.371094 10.382812 L 47.640625 9.730469 L 48.671875 9.730469 " fill-opacity="1" fill-rule="nonzero"/><path fill="#000000" d="M 39.683594 17.304688 L 48.429688 17.304688 L 48.429688 15.824219 L 39.683594 15.824219 L 39.683594 17.304688 " fill-opacity="1" fill-rule="nonzero"/><path fill="#000000" d="M 39.683594 23.652344 L 48.429688 23.652344 L 48.429688 22.183594 L 39.683594 22.183594 L 39.683594 23.652344 " fill-opacity="1" fill-rule="nonzero"/><path fill="#000000" d="M 158.003906 37.867188 C 158.042969 37.867188 158.070312 37.800781 158.085938 37.734375 L 157.644531 36.425781 L 157 36.691406 L 156.800781 37.8125 C 157.1875 37.707031 157.921875 37.878906 158.003906 37.867188 " fill-opacity="1" fill-rule="nonzero"/><g clip-path="url(#a5fa96115d)"><path fill="#000000" d="M 164.050781 21.929688 L 163.742188 21.929688 L 163.796875 21.835938 C 163.808594 21.808594 163.78125 21.808594 163.78125 21.78125 L 164.050781 21.78125 Z M 164.050781 22.621094 L 163.433594 22.621094 C 163.40625 22.621094 163.40625 22.664062 163.378906 22.675781 L 163.582031 22.277344 L 164.050781 22.277344 Z M 164.050781 23.304688 L 163.460938 23.304688 C 163.367188 23.304688 163.285156 23.382812 163.285156 23.476562 C 163.285156 23.570312 163.367188 23.652344 163.460938 23.652344 L 164.050781 23.652344 L 164.050781 24 L 163.433594 24 C 163.339844 24 163.261719 24.078125 163.261719 24.171875 C 163.261719 24.265625 163.339844 24.347656 163.433594 24.347656 L 164.050781 24.347656 L 164.050781 24.695312 L 163.460938 24.695312 C 163.367188 24.695312 163.285156 24.773438 163.285156 24.867188 C 163.285156 24.960938 163.367188 25.042969 163.460938 25.042969 L 164.050781 25.042969 L 164.050781 25.386719 L 163.433594 25.386719 C 163.339844 25.386719 163.261719 25.46875 163.261719 25.5625 C 163.261719 25.65625 163.339844 25.734375 163.433594 25.734375 L 164.050781 25.734375 L 164.050781 26.070312 L 163.460938 26.070312 C 163.367188 26.070312 163.285156 26.148438 163.285156 26.257812 C 163.285156 26.351562 163.367188 26.417969 163.460938 26.417969 L 164.050781 26.417969 L 164.050781 26.765625 L 163.433594 26.765625 C 163.339844 26.765625 163.261719 26.84375 163.261719 26.9375 C 163.261719 27.03125 163.339844 27.113281 163.433594 27.113281 L 164.050781 27.113281 L 164.050781 27.460938 L 163.460938 27.460938 C 163.367188 27.460938 163.285156 27.539062 163.285156 27.632812 C 163.285156 27.726562 163.367188 27.808594 163.460938 27.808594 L 164.050781 27.808594 L 164.050781 28.152344 L 163.433594 28.152344 C 163.339844 28.152344 163.261719 28.234375 163.261719 28.328125 C 163.261719 28.421875 163.339844 28.5 163.433594 28.5 L 164.050781 28.5 L 164.050781 28.847656 L 163.460938 28.847656 C 163.433594 28.847656 163.433594 28.890625 163.40625 28.902344 L 161.011719 27.5 L 163.300781 22.824219 C 163.328125 22.890625 163.367188 22.957031 163.433594 22.957031 L 164.050781 22.957031 Z M 164.050781 29.277344 L 163.886719 29.195312 L 164.050781 29.195312 Z M 159.101562 38.28125 C 158.578125 38.789062 157.828125 38.910156 157.269531 38.910156 C 156.855469 38.910156 156.53125 38.84375 156.507812 38.828125 L 156.398438 38.816406 L 156.828125 36.542969 L 159.59375 35.394531 L 159.609375 35.515625 C 159.863281 36.785156 159.6875 37.707031 159.101562 38.28125 Z M 154.179688 39.285156 L 151.984375 39.285156 L 151.984375 38.523438 L 154.179688 38.523438 Z M 154.179688 40.378906 L 151.984375 40.378906 L 151.984375 39.617188 L 154.179688 39.617188 Z M 151.25 26.269531 L 150.902344 26.269531 L 150.902344 23.144531 L 151.25 23.144531 Z M 151.25 29.890625 L 150.902344 29.890625 L 150.902344 26.765625 L 151.25 26.765625 Z M 150.125 26.269531 L 149.777344 26.269531 L 149.777344 23.144531 L 150.125 23.144531 Z M 150.125 29.890625 L 149.777344 29.890625 L 149.777344 26.765625 L 150.125 26.765625 Z M 148.988281 26.269531 L 148.640625 26.269531 L 148.640625 23.144531 L 148.988281 23.144531 Z M 148.988281 29.890625 L 148.640625 29.890625 L 148.640625 26.765625 L 148.988281 26.765625 Z M 147.851562 26.269531 L 147.519531 26.269531 L 147.519531 23.144531 L 147.851562 23.144531 Z M 147.851562 29.890625 L 147.519531 29.890625 L 147.519531 26.765625 L 147.851562 26.765625 Z M 152.039062 26.765625 L 152.386719 26.765625 L 152.386719 29.890625 L 152.039062 29.890625 Z M 152.039062 23.144531 L 152.386719 23.144531 L 152.386719 26.269531 L 152.039062 26.269531 Z M 153.164062 26.765625 L 153.511719 26.765625 L 153.511719 29.890625 L 153.164062 29.890625 Z M 153.164062 23.144531 L 153.511719 23.144531 L 153.511719 26.269531 L 153.164062 26.269531 Z M 146.433594 32.175781 L 143.640625 32.175781 L 143.640625 31.199219 L 146.433594 31.199219 Z M 143.414062 26.765625 L 143.761719 26.765625 L 143.761719 29.890625 L 143.414062 29.890625 Z M 143.023438 32.175781 L 140.230469 32.175781 L 140.230469 31.199219 L 143.023438 31.199219 Z M 140.015625 26.765625 L 140.363281 26.765625 L 140.363281 29.890625 L 140.015625 29.890625 Z M 140.015625 23.144531 L 140.363281 23.144531 L 140.363281 26.269531 L 140.015625 26.269531 Z M 140.015625 19.417969 L 140.363281 19.417969 L 140.363281 22.542969 L 140.015625 22.542969 Z M 141.152344 26.765625 L 141.5 26.765625 L 141.5 29.890625 L 141.152344 29.890625 Z M 141.152344 23.144531 L 141.5 23.144531 L 141.5 26.269531 L 141.152344 26.269531 Z M 141.152344 19.417969 L 141.5 19.417969 L 141.5 22.542969 L 141.152344 22.542969 Z M 142.277344 26.765625 L 142.625 26.765625 L 142.625 29.890625 L 142.277344 29.890625 Z M 142.277344 23.144531 L 142.625 23.144531 L 142.625 26.269531 L 142.277344 26.269531 Z M 142.277344 19.417969 L 142.625 19.417969 L 142.625 22.542969 L 142.277344 22.542969 Z M 143.414062 23.144531 L 143.761719 23.144531 L 143.761719 26.269531 L 143.414062 26.269531 Z M 143.414062 19.417969 L 143.761719 19.417969 L 143.761719 22.542969 L 143.414062 22.542969 Z M 144.550781 26.765625 L 144.898438 26.765625 L 144.898438 29.890625 L 144.550781 29.890625 Z M 144.550781 23.144531 L 144.898438 23.144531 L 144.898438 26.269531 L 144.550781 26.269531 Z M 144.550781 19.417969 L 144.898438 19.417969 L 144.898438 22.542969 L 144.550781 22.542969 Z M 145.671875 26.765625 L 146.019531 26.765625 L 146.019531 29.890625 L 145.671875 29.890625 Z M 145.671875 23.144531 L 146.019531 23.144531 L 146.019531 26.269531 L 145.671875 26.269531 Z M 145.671875 19.417969 L 146.019531 19.417969 L 146.019531 22.542969 L 145.671875 22.542969 Z M 138.53125 25.109375 L 138.183594 25.109375 L 138.183594 21.980469 L 138.53125 21.980469 Z M 138.53125 28.835938 L 138.183594 28.835938 L 138.183594 25.710938 L 138.53125 25.710938 Z M 138.53125 32.457031 L 138.183594 32.457031 L 138.183594 29.328125 L 138.53125 29.328125 Z M 137.40625 25.109375 L 137.058594 25.109375 L 137.058594 21.980469 L 137.40625 21.980469 Z M 137.40625 28.835938 L 137.058594 28.835938 L 137.058594 25.710938 L 137.40625 25.710938 Z M 137.40625 32.457031 L 137.058594 32.457031 L 137.058594 29.328125 L 137.40625 29.328125 Z M 136.269531 25.109375 L 135.921875 25.109375 L 135.921875 21.980469 L 136.269531 21.980469 Z M 136.269531 28.835938 L 135.921875 28.835938 L 135.921875 25.710938 L 136.269531 25.710938 Z M 136.269531 32.457031 L 135.921875 32.457031 L 135.921875 29.328125 L 136.269531 29.328125 Z M 135.148438 25.109375 L 134.800781 25.109375 L 134.800781 21.980469 L 135.148438 21.980469 Z M 135.148438 28.835938 L 134.800781 28.835938 L 134.800781 25.710938 L 135.148438 25.710938 Z M 135.148438 32.457031 L 134.800781 32.457031 L 134.800781 29.328125 L 135.148438 29.328125 Z M 134.011719 25.109375 L 133.664062 25.109375 L 133.664062 21.980469 L 134.011719 21.980469 Z M 134.011719 28.835938 L 133.664062 28.835938 L 133.664062 25.710938 L 134.011719 25.710938 Z M 134.011719 32.457031 L 133.664062 32.457031 L 133.664062 29.328125 L 134.011719 29.328125 Z M 132.875 25.109375 L 132.527344 25.109375 L 132.527344 21.980469 L 132.875 21.980469 Z M 132.875 28.835938 L 132.527344 28.835938 L 132.527344 25.710938 L 132.875 25.710938 Z M 132.875 32.457031 L 132.527344 32.457031 L 132.527344 29.328125 L 132.875 29.328125 Z M 131.054688 28.890625 L 130.707031 28.890625 L 130.707031 25.761719 L 131.054688 25.761719 Z M 131.054688 32.507812 L 130.707031 32.507812 L 130.707031 29.382812 L 131.054688 29.382812 Z M 129.917969 28.890625 L 129.570312 28.890625 L 129.570312 25.761719 L 129.917969 25.761719 Z M 129.917969 32.507812 L 129.570312 32.507812 L 129.570312 29.382812 L 129.917969 29.382812 Z M 128.78125 28.890625 L 128.433594 28.890625 L 128.433594 25.761719 L 128.78125 25.761719 Z M 128.78125 32.507812 L 128.433594 32.507812 L 128.433594 29.382812 L 128.78125 29.382812 Z M 127.65625 28.890625 L 127.308594 28.890625 L 127.308594 25.761719 L 127.65625 25.761719 Z M 127.65625 32.507812 L 127.308594 32.507812 L 127.308594 29.382812 L 127.65625 29.382812 Z M 126.519531 28.890625 L 126.171875 28.890625 L 126.171875 25.761719 L 126.519531 25.761719 Z M 126.519531 32.507812 L 126.171875 32.507812 L 126.171875 29.382812 L 126.519531 29.382812 Z M 125.382812 28.890625 L 125.050781 28.890625 L 125.050781 25.761719 L 125.382812 25.761719 Z M 125.382812 32.507812 L 125.050781 32.507812 L 125.050781 29.382812 L 125.382812 29.382812 Z M 123.566406 25.214844 L 123.21875 25.214844 L 123.21875 22.089844 L 123.566406 22.089844 Z M 123.566406 28.941406 L 123.21875 28.941406 L 123.21875 25.816406 L 123.566406 25.816406 Z M 123.566406 32.5625 L 123.21875 32.5625 L 123.21875 29.4375 L 123.566406 29.4375 Z M 122.429688 25.214844 L 122.082031 25.214844 L 122.082031 22.089844 L 122.429688 22.089844 Z M 122.429688 28.941406 L 122.082031 28.941406 L 122.082031 25.816406 L 122.429688 25.816406 Z M 122.429688 32.5625 L 122.082031 32.5625 L 122.082031 29.4375 L 122.429688 29.4375 Z M 121.292969 25.214844 L 120.957031 25.214844 L 120.957031 22.089844 L 121.292969 22.089844 Z M 121.292969 28.941406 L 120.957031 28.941406 L 120.957031 25.816406 L 121.292969 25.816406 Z M 121.292969 32.5625 L 120.957031 32.5625 L 120.957031 29.4375 L 121.292969 29.4375 Z M 120.167969 25.214844 L 119.820312 25.214844 L 119.820312 22.089844 L 120.167969 22.089844 Z M 120.167969 28.941406 L 119.820312 28.941406 L 119.820312 25.816406 L 120.167969 25.816406 Z M 120.167969 32.5625 L 119.820312 32.5625 L 119.820312 29.4375 L 120.167969 29.4375 Z M 119.03125 25.214844 L 118.683594 25.214844 L 118.683594 22.089844 L 119.03125 22.089844 Z M 119.03125 28.941406 L 118.683594 28.941406 L 118.683594 25.816406 L 119.03125 25.816406 Z M 119.03125 32.5625 L 118.683594 32.5625 L 118.683594 29.4375 L 119.03125 29.4375 Z M 117.910156 25.214844 L 117.558594 25.214844 L 117.558594 22.089844 L 117.910156 22.089844 Z M 117.910156 28.941406 L 117.558594 28.941406 L 117.558594 25.816406 L 117.910156 25.816406 Z M 117.910156 32.5625 L 117.558594 32.5625 L 117.558594 29.4375 L 117.910156 29.4375 Z M 116.167969 17.972656 L 115.820312 17.972656 L 115.820312 14.832031 L 116.167969 14.832031 Z M 116.167969 21.59375 L 115.820312 21.59375 L 115.820312 18.453125 L 116.167969 18.453125 Z M 116.167969 25.28125 L 115.820312 25.28125 L 115.820312 22.15625 L 116.167969 22.15625 Z M 116.167969 29.007812 L 115.820312 29.007812 L 115.820312 25.882812 L 116.167969 25.882812 Z M 116.167969 32.628906 L 115.820312 32.628906 L 115.820312 29.503906 L 116.167969 29.503906 Z M 115.03125 17.972656 L 114.683594 17.972656 L 114.683594 14.832031 L 115.03125 14.832031 Z M 115.03125 21.59375 L 114.683594 21.59375 L 114.683594 18.453125 L 115.03125 18.453125 Z M 115.03125 25.28125 L 114.683594 25.28125 L 114.683594 22.15625 L 115.03125 22.15625 Z M 115.03125 29.007812 L 114.683594 29.007812 L 114.683594 25.882812 L 115.03125 25.882812 Z M 115.03125 32.628906 L 114.683594 32.628906 L 114.683594 29.503906 L 115.03125 29.503906 Z M 113.910156 17.972656 L 113.5625 17.972656 L 113.5625 14.832031 L 113.910156 14.832031 Z M 113.910156 21.59375 L 113.5625 21.59375 L 113.5625 18.453125 L 113.910156 18.453125 Z M 113.910156 25.28125 L 113.5625 25.28125 L 113.5625 22.15625 L 113.910156 22.15625 Z M 113.910156 29.007812 L 113.5625 29.007812 L 113.5625 25.882812 L 113.910156 25.882812 Z M 113.910156 32.628906 L 113.5625 32.628906 L 113.5625 29.503906 L 113.910156 29.503906 Z M 112.773438 17.972656 L 112.425781 17.972656 L 112.425781 14.832031 L 112.773438 14.832031 Z M 112.773438 21.59375 L 112.425781 21.59375 L 112.425781 18.453125 L 112.773438 18.453125 Z M 112.773438 25.28125 L 112.425781 25.28125 L 112.425781 22.15625 L 112.773438 22.15625 Z M 112.773438 29.007812 L 112.425781 29.007812 L 112.425781 25.882812 L 112.773438 25.882812 Z M 112.773438 32.628906 L 112.425781 32.628906 L 112.425781 29.503906 L 112.773438 29.503906 Z M 111.636719 17.972656 L 111.300781 17.972656 L 111.300781 14.832031 L 111.636719 14.832031 Z M 111.636719 21.59375 L 111.300781 21.59375 L 111.300781 18.453125 L 111.636719 18.453125 Z M 111.636719 25.28125 L 111.300781 25.28125 L 111.300781 22.15625 L 111.636719 22.15625 Z M 111.636719 29.007812 L 111.300781 29.007812 L 111.300781 25.882812 L 111.636719 25.882812 Z M 111.636719 32.628906 L 111.300781 32.628906 L 111.300781 29.503906 L 111.636719 29.503906 Z M 110.511719 17.972656 L 110.164062 17.972656 L 110.164062 14.832031 L 110.511719 14.832031 Z M 110.511719 21.59375 L 110.164062 21.59375 L 110.164062 18.453125 L 110.511719 18.453125 Z M 110.511719 25.28125 L 110.164062 25.28125 L 110.164062 22.15625 L 110.511719 22.15625 Z M 110.511719 29.007812 L 110.164062 29.007812 L 110.164062 25.882812 L 110.511719 25.882812 Z M 110.511719 32.628906 L 110.164062 32.628906 L 110.164062 29.503906 L 110.511719 29.503906 Z M 108.386719 17.53125 L 108.039062 17.53125 L 108.039062 14.40625 L 108.386719 14.40625 Z M 108.386719 21.367188 L 108.039062 21.367188 L 108.039062 18.242188 L 108.386719 18.242188 Z M 108.386719 25.203125 L 108.039062 25.203125 L 108.039062 22.074219 L 108.386719 22.074219 Z M 108.386719 28.929688 L 108.039062 28.929688 L 108.039062 25.800781 L 108.386719 25.800781 Z M 108.386719 32.789062 L 108.039062 32.789062 L 108.039062 29.664062 L 108.386719 29.664062 Z M 107.25 17.53125 L 106.902344 17.53125 L 106.902344 14.40625 L 107.25 14.40625 Z M 107.25 21.367188 L 106.902344 21.367188 L 106.902344 18.242188 L 107.25 18.242188 Z M 107.25 25.203125 L 106.902344 25.203125 L 106.902344 22.074219 L 107.25 22.074219 Z M 107.25 28.929688 L 106.902344 28.929688 L 106.902344 25.800781 L 107.25 25.800781 Z M 107.25 32.789062 L 106.902344 32.789062 L 106.902344 29.664062 L 107.25 29.664062 Z M 106.113281 17.53125 L 105.777344 17.53125 L 105.777344 14.40625 L 106.113281 14.40625 Z M 106.113281 21.367188 L 105.777344 21.367188 L 105.777344 18.242188 L 106.113281 18.242188 Z M 106.113281 25.203125 L 105.777344 25.203125 L 105.777344 22.074219 L 106.113281 22.074219 Z M 106.113281 28.929688 L 105.777344 28.929688 L 105.777344 25.800781 L 106.113281 25.800781 Z M 106.113281 32.789062 L 105.777344 32.789062 L 105.777344 29.664062 L 106.113281 29.664062 Z M 104.988281 17.53125 L 104.640625 17.53125 L 104.640625 14.40625 L 104.988281 14.40625 Z M 104.988281 21.367188 L 104.640625 21.367188 L 104.640625 18.242188 L 104.988281 18.242188 Z M 104.988281 25.203125 L 104.640625 25.203125 L 104.640625 22.074219 L 104.988281 22.074219 Z M 104.988281 28.929688 L 104.640625 28.929688 L 104.640625 25.800781 L 104.988281 25.800781 Z M 104.988281 32.789062 L 104.640625 32.789062 L 104.640625 29.664062 L 104.988281 29.664062 Z M 103.851562 17.53125 L 103.503906 17.53125 L 103.503906 14.40625 L 103.851562 14.40625 Z M 103.851562 21.367188 L 103.503906 21.367188 L 103.503906 18.242188 L 103.851562 18.242188 Z M 103.851562 25.203125 L 103.503906 25.203125 L 103.503906 22.074219 L 103.851562 22.074219 Z M 103.851562 28.929688 L 103.503906 28.929688 L 103.503906 25.800781 L 103.851562 25.800781 Z M 103.851562 32.789062 L 103.503906 32.789062 L 103.503906 29.664062 L 103.851562 29.664062 Z M 102.730469 17.53125 L 102.378906 17.53125 L 102.378906 14.40625 L 102.730469 14.40625 Z M 102.730469 21.367188 L 102.378906 21.367188 L 102.378906 18.242188 L 102.730469 18.242188 Z M 102.730469 25.203125 L 102.378906 25.203125 L 102.378906 22.074219 L 102.730469 22.074219 Z M 102.730469 28.929688 L 102.378906 28.929688 L 102.378906 25.800781 L 102.730469 25.800781 Z M 102.730469 32.789062 L 102.378906 32.789062 L 102.378906 29.664062 L 102.730469 29.664062 Z M 101.539062 17.53125 L 101.191406 17.53125 L 101.191406 14.40625 L 101.539062 14.40625 Z M 101.539062 21.367188 L 101.191406 21.367188 L 101.191406 18.242188 L 101.539062 18.242188 Z M 101.539062 25.203125 L 101.191406 25.203125 L 101.191406 22.074219 L 101.539062 22.074219 Z M 101.539062 28.929688 L 101.191406 28.929688 L 101.191406 25.800781 L 101.539062 25.800781 Z M 101.539062 32.789062 L 101.191406 32.789062 L 101.191406 29.664062 L 101.539062 29.664062 Z M 100.402344 17.53125 L 100.054688 17.53125 L 100.054688 14.40625 L 100.402344 14.40625 Z M 100.402344 21.367188 L 100.054688 21.367188 L 100.054688 18.242188 L 100.402344 18.242188 Z M 100.402344 25.203125 L 100.054688 25.203125 L 100.054688 22.074219 L 100.402344 22.074219 Z M 100.402344 28.929688 L 100.054688 28.929688 L 100.054688 25.800781 L 100.402344 25.800781 Z M 100.402344 32.789062 L 100.054688 32.789062 L 100.054688 29.664062 L 100.402344 29.664062 Z M 99.265625 17.53125 L 98.929688 17.53125 L 98.929688 14.40625 L 99.265625 14.40625 Z M 99.265625 21.367188 L 98.929688 21.367188 L 98.929688 18.242188 L 99.265625 18.242188 Z M 99.265625 25.203125 L 98.929688 25.203125 L 98.929688 22.074219 L 99.265625 22.074219 Z M 99.265625 28.929688 L 98.929688 28.929688 L 98.929688 25.800781 L 99.265625 25.800781 Z M 99.265625 32.789062 L 98.929688 32.789062 L 98.929688 29.664062 L 99.265625 29.664062 Z M 98.140625 17.53125 L 97.792969 17.53125 L 97.792969 14.40625 L 98.140625 14.40625 Z M 98.140625 21.367188 L 97.792969 21.367188 L 97.792969 18.242188 L 98.140625 18.242188 Z M 98.140625 25.203125 L 97.792969 25.203125 L 97.792969 22.074219 L 98.140625 22.074219 Z M 98.140625 28.929688 L 97.792969 28.929688 L 97.792969 25.800781 L 98.140625 25.800781 Z M 98.140625 32.789062 L 97.792969 32.789062 L 97.792969 29.664062 L 98.140625 29.664062 Z M 97.003906 17.53125 L 96.65625 17.53125 L 96.65625 14.40625 L 97.003906 14.40625 Z M 97.003906 21.367188 L 96.65625 21.367188 L 96.65625 18.242188 L 97.003906 18.242188 Z M 97.003906 25.203125 L 96.65625 25.203125 L 96.65625 22.074219 L 97.003906 22.074219 Z M 97.003906 28.929688 L 96.65625 28.929688 L 96.65625 25.800781 L 97.003906 25.800781 Z M 97.003906 32.789062 L 96.65625 32.789062 L 96.65625 29.664062 L 97.003906 29.664062 Z M 95.867188 17.53125 L 95.535156 17.53125 L 95.535156 14.40625 L 95.867188 14.40625 Z M 95.867188 21.367188 L 95.535156 21.367188 L 95.535156 18.242188 L 95.867188 18.242188 Z M 95.867188 25.203125 L 95.535156 25.203125 L 95.535156 22.074219 L 95.867188 22.074219 Z M 95.867188 28.929688 L 95.535156 28.929688 L 95.535156 25.800781 L 95.867188 25.800781 Z M 95.867188 32.789062 L 95.535156 32.789062 L 95.535156 29.664062 L 95.867188 29.664062 Z M 94.007812 21.367188 L 93.660156 21.367188 L 93.660156 18.242188 L 94.007812 18.242188 Z M 94.007812 25.203125 L 93.660156 25.203125 L 93.660156 22.074219 L 94.007812 22.074219 Z M 94.007812 28.929688 L 93.660156 28.929688 L 93.660156 25.800781 L 94.007812 25.800781 Z M 94.007812 32.789062 L 93.660156 32.789062 L 93.660156 29.664062 L 94.007812 29.664062 Z M 92.886719 21.367188 L 92.539062 21.367188 L 92.539062 18.242188 L 92.886719 18.242188 Z M 92.886719 25.203125 L 92.539062 25.203125 L 92.539062 22.074219 L 92.886719 22.074219 Z M 92.886719 28.929688 L 92.539062 28.929688 L 92.539062 25.800781 L 92.886719 25.800781 Z M 92.886719 32.789062 L 92.539062 32.789062 L 92.539062 29.664062 L 92.886719 29.664062 Z M 91.75 21.367188 L 91.402344 21.367188 L 91.402344 18.242188 L 91.75 18.242188 Z M 91.75 25.203125 L 91.402344 25.203125 L 91.402344 22.074219 L 91.75 22.074219 Z M 91.75 28.929688 L 91.402344 28.929688 L 91.402344 25.800781 L 91.75 25.800781 Z M 91.75 32.789062 L 91.402344 32.789062 L 91.402344 29.664062 L 91.75 29.664062 Z M 90.625 21.367188 L 90.277344 21.367188 L 90.277344 18.242188 L 90.625 18.242188 Z M 90.625 25.203125 L 90.277344 25.203125 L 90.277344 22.074219 L 90.625 22.074219 Z M 90.625 28.929688 L 90.277344 28.929688 L 90.277344 25.800781 L 90.625 25.800781 Z M 90.625 32.789062 L 90.277344 32.789062 L 90.277344 29.664062 L 90.625 29.664062 Z M 89.488281 21.367188 L 89.140625 21.367188 L 89.140625 18.242188 L 89.488281 18.242188 Z M 89.488281 25.203125 L 89.140625 25.203125 L 89.140625 22.074219 L 89.488281 22.074219 Z M 89.488281 28.929688 L 89.140625 28.929688 L 89.140625 25.800781 L 89.488281 25.800781 Z M 89.488281 32.789062 L 89.140625 32.789062 L 89.140625 29.664062 L 89.488281 29.664062 Z M 88.351562 21.367188 L 88.015625 21.367188 L 88.015625 18.242188 L 88.351562 18.242188 Z M 88.351562 25.203125 L 88.015625 25.203125 L 88.015625 22.074219 L 88.351562 22.074219 Z M 88.351562 28.929688 L 88.015625 28.929688 L 88.015625 25.800781 L 88.351562 25.800781 Z M 88.351562 32.789062 L 88.015625 32.789062 L 88.015625 29.664062 L 88.351562 29.664062 Z M 87.160156 21.367188 L 86.8125 21.367188 L 86.8125 18.242188 L 87.160156 18.242188 Z M 87.160156 25.203125 L 86.8125 25.203125 L 86.8125 22.074219 L 87.160156 22.074219 Z M 87.160156 28.929688 L 86.8125 28.929688 L 86.8125 25.800781 L 87.160156 25.800781 Z M 87.160156 32.789062 L 86.8125 32.789062 L 86.8125 29.664062 L 87.160156 29.664062 Z M 86.039062 21.367188 L 85.691406 21.367188 L 85.691406 18.242188 L 86.039062 18.242188 Z M 86.039062 25.203125 L 85.691406 25.203125 L 85.691406 22.074219 L 86.039062 22.074219 Z M 86.039062 28.929688 L 85.691406 28.929688 L 85.691406 25.800781 L 86.039062 25.800781 Z M 86.039062 32.789062 L 85.691406 32.789062 L 85.691406 29.664062 L 86.039062 29.664062 Z M 84.902344 21.367188 L 84.554688 21.367188 L 84.554688 18.242188 L 84.902344 18.242188 Z M 84.902344 25.203125 L 84.554688 25.203125 L 84.554688 22.074219 L 84.902344 22.074219 Z M 84.902344 28.929688 L 84.554688 28.929688 L 84.554688 25.800781 L 84.902344 25.800781 Z M 84.902344 32.789062 L 84.554688 32.789062 L 84.554688 29.664062 L 84.902344 29.664062 Z M 83.777344 21.367188 L 83.417969 21.367188 L 83.417969 18.242188 L 83.777344 18.242188 Z M 83.777344 25.203125 L 83.417969 25.203125 L 83.417969 22.074219 L 83.777344 22.074219 Z M 83.777344 28.929688 L 83.417969 28.929688 L 83.417969 25.800781 L 83.777344 25.800781 Z M 83.777344 32.789062 L 83.417969 32.789062 L 83.417969 29.664062 L 83.777344 29.664062 Z M 82.640625 21.367188 L 82.292969 21.367188 L 82.292969 18.242188 L 82.640625 18.242188 Z M 82.640625 25.203125 L 82.292969 25.203125 L 82.292969 22.074219 L 82.640625 22.074219 Z M 82.640625 28.929688 L 82.292969 28.929688 L 82.292969 25.800781 L 82.640625 25.800781 Z M 82.640625 32.789062 L 82.292969 32.789062 L 82.292969 29.664062 L 82.640625 29.664062 Z M 81.503906 21.367188 L 81.15625 21.367188 L 81.15625 18.242188 L 81.503906 18.242188 Z M 81.503906 25.203125 L 81.15625 25.203125 L 81.15625 22.074219 L 81.503906 22.074219 Z M 81.503906 28.929688 L 81.15625 28.929688 L 81.15625 25.800781 L 81.503906 25.800781 Z M 81.503906 32.789062 L 81.15625 32.789062 L 81.15625 29.664062 L 81.503906 29.664062 Z M 79.644531 17.558594 L 79.296875 17.558594 L 79.296875 14.433594 L 79.644531 14.433594 Z M 79.644531 21.394531 L 79.296875 21.394531 L 79.296875 18.265625 L 79.644531 18.265625 Z M 79.644531 25.226562 L 79.296875 25.226562 L 79.296875 22.101562 L 79.644531 22.101562 Z M 79.644531 28.957031 L 79.296875 28.957031 L 79.296875 25.828125 L 79.644531 25.828125 Z M 79.644531 32.832031 L 79.296875 32.832031 L 79.296875 29.691406 L 79.644531 29.691406 Z M 78.507812 17.558594 L 78.171875 17.558594 L 78.171875 14.433594 L 78.507812 14.433594 Z M 78.507812 21.394531 L 78.171875 21.394531 L 78.171875 18.265625 L 78.507812 18.265625 Z M 78.507812 25.226562 L 78.171875 25.226562 L 78.171875 22.101562 L 78.507812 22.101562 Z M 78.507812 28.957031 L 78.171875 28.957031 L 78.171875 25.828125 L 78.507812 25.828125 Z M 78.507812 32.832031 L 78.171875 32.832031 L 78.171875 29.691406 L 78.507812 29.691406 Z M 77.382812 17.558594 L 77.035156 17.558594 L 77.035156 14.433594 L 77.382812 14.433594 Z M 77.382812 21.394531 L 77.035156 21.394531 L 77.035156 18.265625 L 77.382812 18.265625 Z M 77.382812 25.226562 L 77.035156 25.226562 L 77.035156 22.101562 L 77.382812 22.101562 Z M 77.382812 28.957031 L 77.035156 28.957031 L 77.035156 25.828125 L 77.382812 25.828125 Z M 77.382812 32.832031 L 77.035156 32.832031 L 77.035156 29.691406 L 77.382812 29.691406 Z M 76.246094 17.558594 L 75.898438 17.558594 L 75.898438 14.433594 L 76.246094 14.433594 Z M 76.246094 21.394531 L 75.898438 21.394531 L 75.898438 18.265625 L 76.246094 18.265625 Z M 76.246094 25.226562 L 75.898438 25.226562 L 75.898438 22.101562 L 76.246094 22.101562 Z M 76.246094 28.957031 L 75.898438 28.957031 L 75.898438 25.828125 L 76.246094 25.828125 Z M 76.246094 32.832031 L 75.898438 32.832031 L 75.898438 29.691406 L 76.246094 29.691406 Z M 75.125 17.558594 L 74.777344 17.558594 L 74.777344 14.433594 L 75.125 14.433594 Z M 75.125 21.394531 L 74.777344 21.394531 L 74.777344 18.265625 L 75.125 18.265625 Z M 75.125 25.226562 L 74.777344 25.226562 L 74.777344 22.101562 L 75.125 22.101562 Z M 75.125 28.957031 L 74.777344 28.957031 L 74.777344 25.828125 L 75.125 25.828125 Z M 75.125 32.832031 L 74.777344 32.832031 L 74.777344 29.691406 L 75.125 29.691406 Z M 73.988281 17.558594 L 73.640625 17.558594 L 73.640625 14.433594 L 73.988281 14.433594 Z M 73.988281 21.394531 L 73.640625 21.394531 L 73.640625 18.265625 L 73.988281 18.265625 Z M 73.988281 25.226562 L 73.640625 25.226562 L 73.640625 22.101562 L 73.988281 22.101562 Z M 73.988281 28.957031 L 73.640625 28.957031 L 73.640625 25.828125 L 73.988281 25.828125 Z M 73.988281 32.832031 L 73.640625 32.832031 L 73.640625 29.691406 L 73.988281 29.691406 Z M 72.796875 17.558594 L 72.449219 17.558594 L 72.449219 14.433594 L 72.796875 14.433594 Z M 72.796875 21.394531 L 72.449219 21.394531 L 72.449219 18.265625 L 72.796875 18.265625 Z M 72.796875 25.226562 L 72.449219 25.226562 L 72.449219 22.101562 L 72.796875 22.101562 Z M 72.796875 28.957031 L 72.449219 28.957031 L 72.449219 25.828125 L 72.796875 25.828125 Z M 72.796875 32.832031 L 72.449219 32.832031 L 72.449219 29.691406 L 72.796875 29.691406 Z M 71.660156 17.558594 L 71.3125 17.558594 L 71.3125 14.433594 L 71.660156 14.433594 Z M 71.660156 21.394531 L 71.3125 21.394531 L 71.3125 18.265625 L 71.660156 18.265625 Z M 71.660156 25.226562 L 71.3125 25.226562 L 71.3125 22.101562 L 71.660156 22.101562 Z M 71.660156 28.957031 L 71.3125 28.957031 L 71.3125 25.828125 L 71.660156 25.828125 Z M 71.660156 32.832031 L 71.3125 32.832031 L 71.3125 29.691406 L 71.660156 29.691406 Z M 70.535156 17.558594 L 70.1875 17.558594 L 70.1875 14.433594 L 70.535156 14.433594 Z M 70.535156 21.394531 L 70.1875 21.394531 L 70.1875 18.265625 L 70.535156 18.265625 Z M 70.535156 25.226562 L 70.1875 25.226562 L 70.1875 22.101562 L 70.535156 22.101562 Z M 70.535156 28.957031 L 70.1875 28.957031 L 70.1875 25.828125 L 70.535156 25.828125 Z M 70.535156 32.832031 L 70.1875 32.832031 L 70.1875 29.691406 L 70.535156 29.691406 Z M 69.398438 17.558594 L 69.050781 17.558594 L 69.050781 14.433594 L 69.398438 14.433594 Z M 69.398438 21.394531 L 69.050781 21.394531 L 69.050781 18.265625 L 69.398438 18.265625 Z M 69.398438 25.226562 L 69.050781 25.226562 L 69.050781 22.101562 L 69.398438 22.101562 Z M 69.398438 28.957031 L 69.050781 28.957031 L 69.050781 25.828125 L 69.398438 25.828125 Z M 69.398438 32.832031 L 69.050781 32.832031 L 69.050781 29.691406 L 69.398438 29.691406 Z M 68.261719 17.558594 L 67.929688 17.558594 L 67.929688 14.433594 L 68.261719 14.433594 Z M 68.261719 21.394531 L 67.929688 21.394531 L 67.929688 18.265625 L 68.261719 18.265625 Z M 68.261719 25.226562 L 67.929688 25.226562 L 67.929688 22.101562 L 68.261719 22.101562 Z M 68.261719 28.957031 L 67.929688 28.957031 L 67.929688 25.828125 L 68.261719 25.828125 Z M 68.261719 32.832031 L 67.929688 32.832031 L 67.929688 29.691406 L 68.261719 29.691406 Z M 67.140625 17.558594 L 66.792969 17.558594 L 66.792969 14.433594 L 67.140625 14.433594 Z M 67.140625 21.394531 L 66.792969 21.394531 L 66.792969 18.265625 L 67.140625 18.265625 Z M 67.140625 25.226562 L 66.792969 25.226562 L 66.792969 22.101562 L 67.140625 22.101562 Z M 67.140625 28.957031 L 66.792969 28.957031 L 66.792969 25.828125 L 67.140625 25.828125 Z M 67.140625 32.832031 L 66.792969 32.832031 L 66.792969 29.691406 L 67.140625 29.691406 Z M 65.28125 21.394531 L 64.933594 21.394531 L 64.933594 18.265625 L 65.28125 18.265625 Z M 65.28125 25.226562 L 64.933594 25.226562 L 64.933594 22.101562 L 65.28125 22.101562 Z M 65.28125 28.957031 L 64.933594 28.957031 L 64.933594 25.828125 L 65.28125 25.828125 Z M 65.28125 32.832031 L 64.933594 32.832031 L 64.933594 29.691406 L 65.28125 29.691406 Z M 64.144531 21.394531 L 63.796875 21.394531 L 63.796875 18.265625 L 64.144531 18.265625 Z M 64.144531 25.226562 L 63.796875 25.226562 L 63.796875 22.101562 L 64.144531 22.101562 Z M 64.144531 28.957031 L 63.796875 28.957031 L 63.796875 25.828125 L 64.144531 25.828125 Z M 64.144531 32.832031 L 63.796875 32.832031 L 63.796875 29.691406 L 64.144531 29.691406 Z M 63.019531 21.394531 L 62.671875 21.394531 L 62.671875 18.265625 L 63.019531 18.265625 Z M 63.019531 25.226562 L 62.671875 25.226562 L 62.671875 22.101562 L 63.019531 22.101562 Z M 63.019531 28.957031 L 62.671875 28.957031 L 62.671875 25.828125 L 63.019531 25.828125 Z M 63.019531 32.832031 L 62.671875 32.832031 L 62.671875 29.691406 L 63.019531 29.691406 Z M 61.882812 21.394531 L 61.535156 21.394531 L 61.535156 18.265625 L 61.882812 18.265625 Z M 61.882812 25.226562 L 61.535156 25.226562 L 61.535156 22.101562 L 61.882812 22.101562 Z M 61.882812 28.957031 L 61.535156 28.957031 L 61.535156 25.828125 L 61.882812 25.828125 Z M 61.882812 32.832031 L 61.535156 32.832031 L 61.535156 29.691406 L 61.882812 29.691406 Z M 60.746094 21.394531 L 60.414062 21.394531 L 60.414062 18.265625 L 60.746094 18.265625 Z M 60.746094 25.226562 L 60.414062 25.226562 L 60.414062 22.101562 L 60.746094 22.101562 Z M 60.746094 28.957031 L 60.414062 28.957031 L 60.414062 25.828125 L 60.746094 25.828125 Z M 60.746094 32.832031 L 60.414062 32.832031 L 60.414062 29.691406 L 60.746094 29.691406 Z M 59.625 21.394531 L 59.277344 21.394531 L 59.277344 18.265625 L 59.625 18.265625 Z M 59.625 25.226562 L 59.277344 25.226562 L 59.277344 22.101562 L 59.625 22.101562 Z M 59.625 28.957031 L 59.277344 28.957031 L 59.277344 25.828125 L 59.625 25.828125 Z M 59.625 32.832031 L 59.277344 32.832031 L 59.277344 29.691406 L 59.625 29.691406 Z M 58.433594 21.394531 L 58.085938 21.394531 L 58.085938 18.265625 L 58.433594 18.265625 Z M 58.433594 25.226562 L 58.085938 25.226562 L 58.085938 22.101562 L 58.433594 22.101562 Z M 58.433594 28.957031 L 58.085938 28.957031 L 58.085938 25.828125 L 58.433594 25.828125 Z M 58.433594 32.832031 L 58.085938 32.832031 L 58.085938 29.691406 L 58.433594 29.691406 Z M 57.296875 21.394531 L 56.949219 21.394531 L 56.949219 18.265625 L 57.296875 18.265625 Z M 57.296875 25.226562 L 56.949219 25.226562 L 56.949219 22.101562 L 57.296875 22.101562 Z M 57.296875 28.957031 L 56.949219 28.957031 L 56.949219 25.828125 L 57.296875 25.828125 Z M 57.296875 32.832031 L 56.949219 32.832031 L 56.949219 29.691406 L 57.296875 29.691406 Z M 56.171875 21.394531 L 55.8125 21.394531 L 55.8125 18.265625 L 56.171875 18.265625 Z M 56.171875 25.226562 L 55.8125 25.226562 L 55.8125 22.101562 L 56.171875 22.101562 Z M 56.171875 28.957031 L 55.8125 28.957031 L 55.8125 25.828125 L 56.171875 25.828125 Z M 56.171875 32.832031 L 55.8125 32.832031 L 55.8125 29.691406 L 56.171875 29.691406 Z M 55.035156 21.394531 L 54.6875 21.394531 L 54.6875 18.265625 L 55.035156 18.265625 Z M 55.035156 25.226562 L 54.6875 25.226562 L 54.6875 22.101562 L 55.035156 22.101562 Z M 55.035156 28.957031 L 54.6875 28.957031 L 54.6875 25.828125 L 55.035156 25.828125 Z M 55.035156 32.832031 L 54.6875 32.832031 L 54.6875 29.691406 L 55.035156 29.691406 Z M 53.898438 21.394531 L 53.550781 21.394531 L 53.550781 18.265625 L 53.898438 18.265625 Z M 53.898438 25.226562 L 53.550781 25.226562 L 53.550781 22.101562 L 53.898438 22.101562 Z M 53.898438 28.957031 L 53.550781 28.957031 L 53.550781 25.828125 L 53.898438 25.828125 Z M 53.898438 32.832031 L 53.550781 32.832031 L 53.550781 29.691406 L 53.898438 29.691406 Z M 52.777344 21.394531 L 52.429688 21.394531 L 52.429688 18.265625 L 52.777344 18.265625 Z M 52.777344 25.226562 L 52.429688 25.226562 L 52.429688 22.101562 L 52.777344 22.101562 Z M 52.777344 28.957031 L 52.429688 28.957031 L 52.429688 25.828125 L 52.777344 25.828125 Z M 52.777344 32.832031 L 52.429688 32.832031 L 52.429688 29.691406 L 52.777344 29.691406 Z M 38.640625 32.722656 L 38.183594 32.722656 L 38.183594 22.917969 L 34.132812 22.917969 L 34.132812 22.675781 L 38.183594 22.675781 L 38.183594 15.476562 L 38.640625 15.476562 Z M 32.179688 17.253906 L 31.832031 17.253906 L 31.832031 14.125 L 32.179688 14.125 Z M 32.179688 21.085938 L 31.832031 21.085938 L 31.832031 17.960938 L 32.179688 17.960938 Z M 32.179688 24.921875 L 31.832031 24.921875 L 31.832031 21.792969 L 32.179688 21.792969 Z M 32.179688 28.648438 L 31.832031 28.648438 L 31.832031 25.523438 L 32.179688 25.523438 Z M 32.179688 32.507812 L 31.832031 32.507812 L 31.832031 29.382812 L 32.179688 29.382812 Z M 31.054688 17.253906 L 30.707031 17.253906 L 30.707031 14.125 L 31.054688 14.125 Z M 31.054688 21.085938 L 30.707031 21.085938 L 30.707031 17.960938 L 31.054688 17.960938 Z M 31.054688 24.921875 L 30.707031 24.921875 L 30.707031 21.792969 L 31.054688 21.792969 Z M 31.054688 28.648438 L 30.707031 28.648438 L 30.707031 25.523438 L 31.054688 25.523438 Z M 31.054688 32.507812 L 30.707031 32.507812 L 30.707031 29.382812 L 31.054688 29.382812 Z M 29.917969 17.253906 L 29.570312 17.253906 L 29.570312 14.125 L 29.917969 14.125 Z M 29.917969 21.085938 L 29.570312 21.085938 L 29.570312 17.960938 L 29.917969 17.960938 Z M 29.917969 24.921875 L 29.570312 24.921875 L 29.570312 21.792969 L 29.917969 21.792969 Z M 29.917969 28.648438 L 29.570312 28.648438 L 29.570312 25.523438 L 29.917969 25.523438 Z M 29.917969 32.507812 L 29.570312 32.507812 L 29.570312 29.382812 L 29.917969 29.382812 Z M 28.78125 17.253906 L 28.433594 17.253906 L 28.433594 14.125 L 28.78125 14.125 Z M 28.78125 21.085938 L 28.433594 21.085938 L 28.433594 17.960938 L 28.78125 17.960938 Z M 28.78125 24.921875 L 28.433594 24.921875 L 28.433594 21.792969 L 28.78125 21.792969 Z M 28.78125 28.648438 L 28.433594 28.648438 L 28.433594 25.523438 L 28.78125 25.523438 Z M 28.78125 32.507812 L 28.433594 32.507812 L 28.433594 29.382812 L 28.78125 29.382812 Z M 27.660156 17.253906 L 27.3125 17.253906 L 27.3125 14.125 L 27.660156 14.125 Z M 27.660156 21.085938 L 27.3125 21.085938 L 27.3125 17.960938 L 27.660156 17.960938 Z M 27.660156 24.921875 L 27.3125 24.921875 L 27.3125 21.792969 L 27.660156 21.792969 Z M 27.660156 28.648438 L 27.3125 28.648438 L 27.3125 25.523438 L 27.660156 25.523438 Z M 27.660156 32.507812 L 27.3125 32.507812 L 27.3125 29.382812 L 27.660156 29.382812 Z M 26.523438 17.253906 L 26.175781 17.253906 L 26.175781 14.125 L 26.523438 14.125 Z M 26.523438 21.085938 L 26.175781 21.085938 L 26.175781 17.960938 L 26.523438 17.960938 Z M 26.523438 24.921875 L 26.175781 24.921875 L 26.175781 21.792969 L 26.523438 21.792969 Z M 26.523438 28.648438 L 26.175781 28.648438 L 26.175781 25.523438 L 26.523438 25.523438 Z M 26.523438 32.507812 L 26.175781 32.507812 L 26.175781 29.382812 L 26.523438 29.382812 Z M 25.332031 17.253906 L 24.984375 17.253906 L 24.984375 14.125 L 25.332031 14.125 Z M 25.332031 21.085938 L 24.984375 21.085938 L 24.984375 17.960938 L 25.332031 17.960938 Z M 25.332031 24.921875 L 24.984375 24.921875 L 24.984375 21.792969 L 25.332031 21.792969 Z M 25.332031 28.648438 L 24.984375 28.648438 L 24.984375 25.523438 L 25.332031 25.523438 Z M 25.332031 32.507812 L 24.984375 32.507812 L 24.984375 29.382812 L 25.332031 29.382812 Z M 24.195312 17.253906 L 23.859375 17.253906 L 23.859375 14.125 L 24.195312 14.125 Z M 24.195312 21.085938 L 23.859375 21.085938 L 23.859375 17.960938 L 24.195312 17.960938 Z M 24.195312 24.921875 L 23.859375 24.921875 L 23.859375 21.792969 L 24.195312 21.792969 Z M 24.195312 28.648438 L 23.859375 28.648438 L 23.859375 25.523438 L 24.195312 25.523438 Z M 24.195312 32.507812 L 23.859375 32.507812 L 23.859375 29.382812 L 24.195312 29.382812 Z M 23.070312 17.253906 L 22.722656 17.253906 L 22.722656 14.125 L 23.070312 14.125 Z M 23.070312 21.085938 L 22.722656 21.085938 L 22.722656 17.960938 L 23.070312 17.960938 Z M 23.070312 24.921875 L 22.722656 24.921875 L 22.722656 21.792969 L 23.070312 21.792969 Z M 23.070312 28.648438 L 22.722656 28.648438 L 22.722656 25.523438 L 23.070312 25.523438 Z M 23.070312 32.507812 L 22.722656 32.507812 L 22.722656 29.382812 L 23.070312 29.382812 Z M 21.933594 17.253906 L 21.585938 17.253906 L 21.585938 14.125 L 21.933594 14.125 Z M 21.933594 21.085938 L 21.585938 21.085938 L 21.585938 17.960938 L 21.933594 17.960938 Z M 21.933594 24.921875 L 21.585938 24.921875 L 21.585938 21.792969 L 21.933594 21.792969 Z M 21.933594 28.648438 L 21.585938 28.648438 L 21.585938 25.523438 L 21.933594 25.523438 Z M 21.933594 32.507812 L 21.585938 32.507812 L 21.585938 29.382812 L 21.933594 29.382812 Z M 20.8125 17.253906 L 20.464844 17.253906 L 20.464844 14.125 L 20.8125 14.125 Z M 20.8125 21.085938 L 20.464844 21.085938 L 20.464844 17.960938 L 20.8125 17.960938 Z M 20.8125 24.921875 L 20.464844 24.921875 L 20.464844 21.792969 L 20.8125 21.792969 Z M 20.8125 28.648438 L 20.464844 28.648438 L 20.464844 25.523438 L 20.8125 25.523438 Z M 20.8125 32.507812 L 20.464844 32.507812 L 20.464844 29.382812 L 20.8125 29.382812 Z M 19.675781 17.253906 L 19.328125 17.253906 L 19.328125 14.125 L 19.675781 14.125 Z M 19.675781 21.085938 L 19.328125 21.085938 L 19.328125 17.960938 L 19.675781 17.960938 Z M 19.675781 24.921875 L 19.328125 24.921875 L 19.328125 21.792969 L 19.675781 21.792969 Z M 19.675781 28.648438 L 19.328125 28.648438 L 19.328125 25.523438 L 19.675781 25.523438 Z M 19.675781 32.507812 L 19.328125 32.507812 L 19.328125 29.382812 L 19.675781 29.382812 Z M 17.84375 17.878906 L 17.496094 17.878906 L 17.496094 14.738281 L 17.84375 14.738281 Z M 17.84375 21.488281 L 17.496094 21.488281 L 17.496094 18.359375 L 17.84375 18.359375 Z M 17.84375 25.214844 L 17.496094 25.214844 L 17.496094 22.089844 L 17.84375 22.089844 Z M 17.84375 28.941406 L 17.496094 28.941406 L 17.496094 25.816406 L 17.84375 25.816406 Z M 17.84375 32.5625 L 17.496094 32.5625 L 17.496094 29.4375 L 17.84375 29.4375 Z M 16.71875 17.878906 L 16.371094 17.878906 L 16.371094 14.738281 L 16.71875 14.738281 Z M 16.71875 21.488281 L 16.371094 21.488281 L 16.371094 18.359375 L 16.71875 18.359375 Z M 16.71875 25.214844 L 16.371094 25.214844 L 16.371094 22.089844 L 16.71875 22.089844 Z M 16.71875 28.941406 L 16.371094 28.941406 L 16.371094 25.816406 L 16.71875 25.816406 Z M 16.71875 32.5625 L 16.371094 32.5625 L 16.371094 29.4375 L 16.71875 29.4375 Z M 15.582031 17.878906 L 15.234375 17.878906 L 15.234375 14.738281 L 15.582031 14.738281 Z M 15.582031 21.488281 L 15.234375 21.488281 L 15.234375 18.359375 L 15.582031 18.359375 Z M 15.582031 25.214844 L 15.234375 25.214844 L 15.234375 22.089844 L 15.582031 22.089844 Z M 15.582031 28.941406 L 15.234375 28.941406 L 15.234375 25.816406 L 15.582031 25.816406 Z M 15.582031 32.5625 L 15.234375 32.5625 L 15.234375 29.4375 L 15.582031 29.4375 Z M 14.445312 17.878906 L 14.097656 17.878906 L 14.097656 14.738281 L 14.445312 14.738281 Z M 14.445312 21.488281 L 14.097656 21.488281 L 14.097656 18.359375 L 14.445312 18.359375 Z M 14.445312 25.214844 L 14.097656 25.214844 L 14.097656 22.089844 L 14.445312 22.089844 Z M 14.445312 28.941406 L 14.097656 28.941406 L 14.097656 25.816406 L 14.445312 25.816406 Z M 14.445312 32.5625 L 14.097656 32.5625 L 14.097656 29.4375 L 14.445312 29.4375 Z M 13.324219 17.878906 L 12.976562 17.878906 L 12.976562 14.738281 L 13.324219 14.738281 Z M 13.324219 21.488281 L 12.976562 21.488281 L 12.976562 18.359375 L 13.324219 18.359375 Z M 13.324219 25.214844 L 12.976562 25.214844 L 12.976562 22.089844 L 13.324219 22.089844 Z M 13.324219 28.941406 L 12.976562 28.941406 L 12.976562 25.816406 L 13.324219 25.816406 Z M 13.324219 32.5625 L 12.976562 32.5625 L 12.976562 29.4375 L 13.324219 29.4375 Z M 12.1875 17.878906 L 11.835938 17.878906 L 11.835938 14.738281 L 12.1875 14.738281 Z M 12.1875 21.488281 L 11.835938 21.488281 L 11.835938 18.359375 L 12.1875 18.359375 Z M 12.1875 25.214844 L 11.835938 25.214844 L 11.835938 22.089844 L 12.1875 22.089844 Z M 12.1875 28.941406 L 11.835938 28.941406 L 11.835938 25.816406 L 12.1875 25.816406 Z M 12.1875 32.5625 L 11.835938 32.5625 L 11.835938 29.4375 L 12.1875 29.4375 Z M 10.351562 21.433594 L 10.003906 21.433594 L 10.003906 18.308594 L 10.351562 18.308594 Z M 10.351562 25.160156 L 10.003906 25.160156 L 10.003906 22.035156 L 10.351562 22.035156 Z M 10.351562 28.890625 L 10.003906 28.890625 L 10.003906 25.761719 L 10.351562 25.761719 Z M 10.351562 32.507812 L 10.003906 32.507812 L 10.003906 29.382812 L 10.351562 29.382812 Z M 9.230469 21.433594 L 8.882812 21.433594 L 8.882812 18.308594 L 9.230469 18.308594 Z M 9.230469 25.160156 L 8.882812 25.160156 L 8.882812 22.035156 L 9.230469 22.035156 Z M 9.230469 28.890625 L 8.882812 28.890625 L 8.882812 25.761719 L 9.230469 25.761719 Z M 9.230469 32.507812 L 8.882812 32.507812 L 8.882812 29.382812 L 9.230469 29.382812 Z M 8.09375 21.433594 L 7.746094 21.433594 L 7.746094 18.308594 L 8.09375 18.308594 Z M 8.09375 25.160156 L 7.746094 25.160156 L 7.746094 22.035156 L 8.09375 22.035156 Z M 8.09375 28.890625 L 7.746094 28.890625 L 7.746094 25.761719 L 8.09375 25.761719 Z M 8.09375 32.507812 L 7.746094 32.507812 L 7.746094 29.382812 L 8.09375 29.382812 Z M 6.96875 21.433594 L 6.621094 21.433594 L 6.621094 18.308594 L 6.96875 18.308594 Z M 6.96875 25.160156 L 6.621094 25.160156 L 6.621094 22.035156 L 6.96875 22.035156 Z M 6.96875 28.890625 L 6.621094 28.890625 L 6.621094 25.761719 L 6.96875 25.761719 Z M 6.96875 32.507812 L 6.621094 32.507812 L 6.621094 29.382812 L 6.96875 29.382812 Z M 5.832031 21.433594 L 5.484375 21.433594 L 5.484375 18.308594 L 5.832031 18.308594 Z M 5.832031 25.160156 L 5.484375 25.160156 L 5.484375 22.035156 L 5.832031 22.035156 Z M 5.832031 28.890625 L 5.484375 28.890625 L 5.484375 25.761719 L 5.832031 25.761719 Z M 5.832031 32.507812 L 5.484375 32.507812 L 5.484375 29.382812 L 5.832031 29.382812 Z M 4.695312 21.433594 L 4.347656 21.433594 L 4.347656 18.308594 L 4.695312 18.308594 Z M 4.695312 25.160156 L 4.347656 25.160156 L 4.347656 22.035156 L 4.695312 22.035156 Z M 4.695312 28.890625 L 4.347656 28.890625 L 4.347656 25.761719 L 4.695312 25.761719 Z M 4.695312 32.507812 L 4.347656 32.507812 L 4.347656 29.382812 L 4.695312 29.382812 Z M 41.382812 13.738281 L 41.902344 13.738281 L 41.902344 14.539062 L 41.382812 14.539062 Z M 42.035156 12.136719 L 42.558594 12.136719 L 42.558594 12.9375 L 42.035156 12.9375 Z M 43.242188 13.710938 L 43.761719 13.710938 L 43.761719 14.511719 L 43.242188 14.511719 Z M 43.882812 12.109375 L 44.417969 12.109375 L 44.417969 12.910156 L 43.882812 12.910156 Z M 41.113281 20.152344 L 41.648438 20.152344 L 41.648438 20.953125 L 41.113281 20.953125 Z M 41.113281 18.519531 L 41.648438 18.519531 L 41.648438 19.324219 L 41.113281 19.324219 Z M 43.242188 20.042969 L 43.761719 20.042969 L 43.761719 20.847656 L 43.242188 20.847656 Z M 43.242188 18.402344 L 43.761719 18.402344 L 43.761719 19.203125 L 43.242188 19.203125 Z M 45.167969 20.042969 L 45.703125 20.042969 L 45.703125 20.847656 L 45.167969 20.847656 Z M 45.167969 18.402344 L 45.703125 18.402344 L 45.703125 19.203125 L 45.167969 19.203125 Z M 165.332031 21.78125 L 165.601562 21.78125 C 165.601562 21.808594 165.574219 21.808594 165.585938 21.835938 L 169.4375 29.675781 L 165.332031 29.742188 Z M 171.847656 29.636719 L 169.667969 29.664062 L 165.800781 21.78125 L 165.921875 21.78125 L 165.921875 20.164062 L 165.667969 20.164062 C 165.90625 19.925781 166.042969 19.601562 166.042969 19.242188 C 166.042969 18.496094 165.441406 17.878906 164.691406 17.878906 C 163.941406 17.878906 163.328125 18.496094 163.328125 19.242188 C 163.328125 19.601562 163.472656 19.925781 163.714844 20.164062 L 163.460938 20.164062 L 163.460938 21.78125 L 163.582031 21.78125 L 163.515625 21.929688 L 163.460938 21.929688 C 163.367188 21.929688 163.285156 22.007812 163.285156 22.101562 C 163.285156 22.15625 163.355469 22.15625 163.378906 22.195312 L 160.824219 27.394531 L 158.875 26.257812 L 158.875 25.9375 L 157.667969 25.9375 L 157.667969 29.863281 L 154.257812 29.929688 L 154.257812 22.796875 L 146.769531 22.796875 L 146.769531 30.050781 L 146.769531 19.054688 L 139.28125 19.054688 L 139.28125 21.632812 L 131.789062 21.632812 L 131.789062 25.414062 L 124.300781 25.414062 L 124.300781 21.742188 L 116.90625 21.742188 L 116.90625 14.484375 L 109.429688 14.484375 L 109.429688 32.722656 L 109.160156 32.722656 L 109.160156 14.058594 L 94.785156 14.058594 L 94.785156 17.894531 L 80.421875 17.894531 L 80.421875 14.085938 L 66.058594 14.085938 L 66.058594 17.921875 L 51.679688 17.921875 L 51.679688 32.722656 L 47.8125 32.722656 L 47.8125 23.851562 L 39.46875 23.851562 L 39.46875 21.980469 L 47.8125 21.980469 L 47.8125 17.492188 L 39.46875 17.492188 L 39.46875 15.636719 L 39.683594 15.636719 L 39.683594 9.730469 L 40.125 9.730469 L 40.125 15.636719 L 47.8125 15.636719 L 47.8125 11.078125 L 42.332031 11.078125 L 42.332031 11.050781 L 40.339844 11.050781 L 40.339844 10.851562 L 42.332031 10.851562 L 42.332031 9.035156 L 42.542969 9.035156 L 42.542969 3.128906 L 41.246094 3.128906 L 37.917969 11.105469 L 36.929688 11.105469 L 36.273438 6.390625 L 31.589844 7.042969 L 30.375 11.105469 L 29.210938 11.105469 L 29.078125 13.765625 L 18.59375 13.765625 L 18.59375 14.394531 L 11.101562 14.394531 L 11.101562 17.960938 L 3.613281 17.960938 L 3.613281 32.722656 L 3.039062 32.722656 L 3.039062 26.816406 L 2.476562 26.816406 L 1.621094 32.722656 L 0.65625 32.722656 L 5.632812 44.679688 L 165.652344 44.679688 L 164.492188 41.085938 L 171.847656 29.636719 " fill-opacity="1" fill-rule="nonzero"/></g><g clip-path="url(#d23cbb1af1)"><path fill="#000000" d="M 46.4375 7.324219 L 43.441406 7.324219 L 43.441406 5.28125 L 46.304688 5.28125 L 45.582031 3.410156 L 45.285156 2.636719 L 46.222656 -0.0234375 L 45.460938 -0.0234375 L 44.175781 3.128906 L 43 3.128906 L 43 9.035156 L 46.25 9.035156 L 46.4375 7.324219 " fill-opacity="1" fill-rule="nonzero"/></g><path fill="#000000" d="M 157.855469 36.332031 L 158.296875 37.652344 C 158.363281 37.679688 158.433594 37.707031 158.457031 37.695312 C 158.527344 37.640625 159.035156 36.839844 159.394531 36.746094 L 159.433594 36.839844 L 159.195312 37.027344 C 159.195312 37.027344 158.710938 38.148438 158.40625 38.214844 C 158.136719 38.386719 157.015625 37.90625 157.015625 37.90625 L 156.773438 37.921875 L 156.640625 38.65625 C 157 38.710938 158.246094 38.84375 158.953125 38.132812 C 159.476562 37.625 159.621094 36.8125 159.433594 35.691406 L 157.855469 36.332031 " fill-opacity="1" fill-rule="nonzero"/></svg>