<svg xmlns="http://www.w3.org/2000/svg" xmlns:xlink="http://www.w3.org/1999/xlink" width="600" zoomAndPan="magnify" viewBox="0 0 450 30.000001" height="40" preserveAspectRatio="xMidYMid meet" version="1.0"><defs><g/><clipPath id="8c14862531"><rect x="0" width="411" y="0" height="22"/></clipPath><clipPath id="bd15b3c560"><path d="M 8.710938 4.25 L 29.03125 4.25 L 29.03125 24.574219 L 8.710938 24.574219 Z M 8.710938 4.25 " clip-rule="nonzero"/></clipPath></defs><g transform="matrix(1, 0, 0, 1, 31, 4)"><g clip-path="url(#8c14862531)"><g fill="#f8f2da" fill-opacity="1"><g transform="translate(0.51363, 16.110259)"><g><path d="M 7.078125 -6.765625 C 7.785156 -6.492188 8.3125 -6.0625 8.65625 -5.46875 C 9 -4.882812 9.171875 -4.21875 9.171875 -3.46875 C 9.171875 -2.757812 8.992188 -2.113281 8.640625 -1.53125 C 8.285156 -0.957031 7.78125 -0.5 7.125 -0.15625 C 6.46875 0.175781 5.75 0.34375 4.96875 0.34375 C 4.195312 0.34375 3.484375 0.175781 2.828125 -0.15625 C 2.171875 -0.5 1.664062 -0.957031 1.3125 -1.53125 C 0.957031 -2.113281 0.78125 -2.757812 0.78125 -3.46875 C 0.78125 -4.21875 0.953125 -4.882812 1.296875 -5.46875 C 1.640625 -6.050781 2.164062 -6.484375 2.875 -6.765625 C 2.320312 -7.054688 1.898438 -7.457031 1.609375 -7.96875 C 1.316406 -8.476562 1.171875 -9.03125 1.171875 -9.625 C 1.171875 -10.695312 1.535156 -11.582031 2.265625 -12.28125 C 2.992188 -12.976562 3.894531 -13.328125 4.96875 -13.328125 C 6.0625 -13.328125 6.96875 -12.976562 7.6875 -12.28125 C 8.414062 -11.59375 8.78125 -10.707031 8.78125 -9.625 C 8.78125 -9.03125 8.632812 -8.476562 8.34375 -7.96875 C 8.050781 -7.457031 7.628906 -7.054688 7.078125 -6.765625 Z M 4.953125 -11.4375 C 4.554688 -11.4375 4.210938 -11.253906 3.921875 -10.890625 C 3.628906 -10.523438 3.484375 -10.101562 3.484375 -9.625 C 3.484375 -9.164062 3.625 -8.742188 3.90625 -8.359375 C 4.1875 -7.984375 4.539062 -7.796875 4.96875 -7.796875 C 5.394531 -7.796875 5.75 -7.976562 6.03125 -8.34375 C 6.320312 -8.707031 6.46875 -9.132812 6.46875 -9.625 C 6.46875 -10.101562 6.320312 -10.523438 6.03125 -10.890625 C 5.75 -11.253906 5.390625 -11.4375 4.953125 -11.4375 Z M 4.953125 -5.734375 C 4.503906 -5.734375 4.117188 -5.535156 3.796875 -5.140625 C 3.484375 -4.742188 3.328125 -4.273438 3.328125 -3.734375 C 3.328125 -3.191406 3.484375 -2.722656 3.796875 -2.328125 C 4.109375 -1.941406 4.5 -1.75 4.96875 -1.75 C 5.445312 -1.75 5.84375 -1.941406 6.15625 -2.328125 C 6.46875 -2.722656 6.625 -3.191406 6.625 -3.734375 C 6.625 -4.273438 6.46875 -4.742188 6.15625 -5.140625 C 5.84375 -5.535156 5.441406 -5.734375 4.953125 -5.734375 Z M 4.953125 -5.734375 "/></g></g></g><g fill="#f8f2da" fill-opacity="1"><g transform="translate(10.459281, 16.110259)"><g><path d="M 2.5 -5.859375 C 2.070312 -5.859375 1.707031 -6.007812 1.40625 -6.3125 C 1.113281 -6.613281 0.96875 -6.976562 0.96875 -7.40625 C 0.96875 -7.832031 1.113281 -8.191406 1.40625 -8.484375 C 1.707031 -8.773438 2.070312 -8.921875 2.5 -8.921875 C 2.925781 -8.921875 3.285156 -8.773438 3.578125 -8.484375 C 3.878906 -8.191406 4.03125 -7.832031 4.03125 -7.40625 C 4.03125 -6.976562 3.878906 -6.613281 3.578125 -6.3125 C 3.285156 -6.007812 2.925781 -5.859375 2.5 -5.859375 Z M 2.5 0.34375 C 2.070312 0.34375 1.707031 0.191406 1.40625 -0.109375 C 1.113281 -0.410156 0.96875 -0.773438 0.96875 -1.203125 C 0.96875 -1.628906 1.113281 -1.988281 1.40625 -2.28125 C 1.707031 -2.570312 2.070312 -2.71875 2.5 -2.71875 C 2.925781 -2.71875 3.285156 -2.570312 3.578125 -2.28125 C 3.878906 -1.988281 4.03125 -1.628906 4.03125 -1.203125 C 4.03125 -0.773438 3.878906 -0.410156 3.578125 -0.109375 C 3.285156 0.191406 2.925781 0.34375 2.5 0.34375 Z M 2.5 0.34375 "/></g></g></g><g fill="#f8f2da" fill-opacity="1"><g transform="translate(15.432113, 16.110259)"><g><path d="M 0.328125 -6.46875 C 0.328125 -7.59375 0.5 -8.6875 0.84375 -9.75 C 1.1875 -10.8125 1.707031 -11.671875 2.40625 -12.328125 C 3.113281 -12.992188 3.96875 -13.328125 4.96875 -13.328125 C 5.976562 -13.328125 6.835938 -12.992188 7.546875 -12.328125 C 8.265625 -11.660156 8.789062 -10.804688 9.125 -9.765625 C 9.457031 -8.722656 9.625 -7.628906 9.625 -6.484375 C 9.625 -5.347656 9.445312 -4.25 9.09375 -3.1875 C 8.75 -2.125 8.222656 -1.269531 7.515625 -0.625 C 6.804688 0.0195312 5.957031 0.34375 4.96875 0.34375 C 3.945312 0.34375 3.085938 0.0078125 2.390625 -0.65625 C 1.691406 -1.332031 1.171875 -2.195312 0.828125 -3.25 C 0.492188 -4.300781 0.328125 -5.375 0.328125 -6.46875 Z M 4.953125 -11.125 C 4.316406 -11.125 3.800781 -10.675781 3.40625 -9.78125 C 3.007812 -8.882812 2.8125 -7.785156 2.8125 -6.484375 C 2.8125 -5.242188 3.007812 -4.160156 3.40625 -3.234375 C 3.800781 -2.316406 4.320312 -1.859375 4.96875 -1.859375 C 5.488281 -1.859375 5.910156 -2.113281 6.234375 -2.625 C 6.566406 -3.132812 6.800781 -3.742188 6.9375 -4.453125 C 7.070312 -5.160156 7.140625 -5.804688 7.140625 -6.390625 C 7.140625 -7.742188 6.945312 -8.867188 6.5625 -9.765625 C 6.175781 -10.671875 5.640625 -11.125 4.953125 -11.125 Z M 4.953125 -11.125 "/></g></g></g><g fill="#f8f2da" fill-opacity="1"><g transform="translate(25.377764, 16.110259)"><g><path d="M 0.328125 -6.46875 C 0.328125 -7.59375 0.5 -8.6875 0.84375 -9.75 C 1.1875 -10.8125 1.707031 -11.671875 2.40625 -12.328125 C 3.113281 -12.992188 3.96875 -13.328125 4.96875 -13.328125 C 5.976562 -13.328125 6.835938 -12.992188 7.546875 -12.328125 C 8.265625 -11.660156 8.789062 -10.804688 9.125 -9.765625 C 9.457031 -8.722656 9.625 -7.628906 9.625 -6.484375 C 9.625 -5.347656 9.445312 -4.25 9.09375 -3.1875 C 8.75 -2.125 8.222656 -1.269531 7.515625 -0.625 C 6.804688 0.0195312 5.957031 0.34375 4.96875 0.34375 C 3.945312 0.34375 3.085938 0.0078125 2.390625 -0.65625 C 1.691406 -1.332031 1.171875 -2.195312 0.828125 -3.25 C 0.492188 -4.300781 0.328125 -5.375 0.328125 -6.46875 Z M 4.953125 -11.125 C 4.316406 -11.125 3.800781 -10.675781 3.40625 -9.78125 C 3.007812 -8.882812 2.8125 -7.785156 2.8125 -6.484375 C 2.8125 -5.242188 3.007812 -4.160156 3.40625 -3.234375 C 3.800781 -2.316406 4.320312 -1.859375 4.96875 -1.859375 C 5.488281 -1.859375 5.910156 -2.113281 6.234375 -2.625 C 6.566406 -3.132812 6.800781 -3.742188 6.9375 -4.453125 C 7.070312 -5.160156 7.140625 -5.804688 7.140625 -6.390625 C 7.140625 -7.742188 6.945312 -8.867188 6.5625 -9.765625 C 6.175781 -10.671875 5.640625 -11.125 4.953125 -11.125 Z M 4.953125 -11.125 "/></g></g></g><g fill="#f8f2da" fill-opacity="1"><g transform="translate(35.323415, 16.110259)"><g/></g></g><g fill="#f8f2da" fill-opacity="1"><g transform="translate(39.676548, 16.110259)"><g><path d="M 4.9375 -6.515625 L 4.9375 -4.53125 L 0.734375 -4.53125 L 0.734375 -6.515625 Z M 4.9375 -6.515625 "/></g></g></g><g fill="#f8f2da" fill-opacity="1"><g transform="translate(45.354865, 16.110259)"><g/></g></g><g fill="#f8f2da" fill-opacity="1"><g transform="translate(50.327697, 16.110259)"><g><path d="M 6.734375 -12.984375 L 6.734375 0 L 4.203125 0 L 4.203125 -10.78125 L 2.5 -10.78125 L 2.5 -12.984375 Z M 6.734375 -12.984375 "/></g></g></g><g fill="#f8f2da" fill-opacity="1"><g transform="translate(60.273348, 16.110259)"><g><path d="M 10.015625 -12.984375 L 2.90625 0.34375 L 0.828125 -0.84375 L 6.1875 -10.78125 L 0.734375 -10.78125 L 0.734375 -12.984375 Z M 10.015625 -12.984375 "/></g></g></g><g fill="#f8f2da" fill-opacity="1"><g transform="translate(70.218999, 16.110259)"><g><path d="M 2.5 -5.859375 C 2.070312 -5.859375 1.707031 -6.007812 1.40625 -6.3125 C 1.113281 -6.613281 0.96875 -6.976562 0.96875 -7.40625 C 0.96875 -7.832031 1.113281 -8.191406 1.40625 -8.484375 C 1.707031 -8.773438 2.070312 -8.921875 2.5 -8.921875 C 2.925781 -8.921875 3.285156 -8.773438 3.578125 -8.484375 C 3.878906 -8.191406 4.03125 -7.832031 4.03125 -7.40625 C 4.03125 -6.976562 3.878906 -6.613281 3.578125 -6.3125 C 3.285156 -6.007812 2.925781 -5.859375 2.5 -5.859375 Z M 2.5 0.34375 C 2.070312 0.34375 1.707031 0.191406 1.40625 -0.109375 C 1.113281 -0.410156 0.96875 -0.773438 0.96875 -1.203125 C 0.96875 -1.628906 1.113281 -1.988281 1.40625 -2.28125 C 1.707031 -2.570312 2.070312 -2.71875 2.5 -2.71875 C 2.925781 -2.71875 3.285156 -2.570312 3.578125 -2.28125 C 3.878906 -1.988281 4.03125 -1.628906 4.03125 -1.203125 C 4.03125 -0.773438 3.878906 -0.410156 3.578125 -0.109375 C 3.285156 0.191406 2.925781 0.34375 2.5 0.34375 Z M 2.5 0.34375 "/></g></g></g><g fill="#f8f2da" fill-opacity="1"><g transform="translate(75.191831, 16.110259)"><g><path d="M 0.328125 -6.46875 C 0.328125 -7.59375 0.5 -8.6875 0.84375 -9.75 C 1.1875 -10.8125 1.707031 -11.671875 2.40625 -12.328125 C 3.113281 -12.992188 3.96875 -13.328125 4.96875 -13.328125 C 5.976562 -13.328125 6.835938 -12.992188 7.546875 -12.328125 C 8.265625 -11.660156 8.789062 -10.804688 9.125 -9.765625 C 9.457031 -8.722656 9.625 -7.628906 9.625 -6.484375 C 9.625 -5.347656 9.445312 -4.25 9.09375 -3.1875 C 8.75 -2.125 8.222656 -1.269531 7.515625 -0.625 C 6.804688 0.0195312 5.957031 0.34375 4.96875 0.34375 C 3.945312 0.34375 3.085938 0.0078125 2.390625 -0.65625 C 1.691406 -1.332031 1.171875 -2.195312 0.828125 -3.25 C 0.492188 -4.300781 0.328125 -5.375 0.328125 -6.46875 Z M 4.953125 -11.125 C 4.316406 -11.125 3.800781 -10.675781 3.40625 -9.78125 C 3.007812 -8.882812 2.8125 -7.785156 2.8125 -6.484375 C 2.8125 -5.242188 3.007812 -4.160156 3.40625 -3.234375 C 3.800781 -2.316406 4.320312 -1.859375 4.96875 -1.859375 C 5.488281 -1.859375 5.910156 -2.113281 6.234375 -2.625 C 6.566406 -3.132812 6.800781 -3.742188 6.9375 -4.453125 C 7.070312 -5.160156 7.140625 -5.804688 7.140625 -6.390625 C 7.140625 -7.742188 6.945312 -8.867188 6.5625 -9.765625 C 6.175781 -10.671875 5.640625 -11.125 4.953125 -11.125 Z M 4.953125 -11.125 "/></g></g></g><g fill="#f8f2da" fill-opacity="1"><g transform="translate(85.137482, 16.110259)"><g><path d="M 0.328125 -6.46875 C 0.328125 -7.59375 0.5 -8.6875 0.84375 -9.75 C 1.1875 -10.8125 1.707031 -11.671875 2.40625 -12.328125 C 3.113281 -12.992188 3.96875 -13.328125 4.96875 -13.328125 C 5.976562 -13.328125 6.835938 -12.992188 7.546875 -12.328125 C 8.265625 -11.660156 8.789062 -10.804688 9.125 -9.765625 C 9.457031 -8.722656 9.625 -7.628906 9.625 -6.484375 C 9.625 -5.347656 9.445312 -4.25 9.09375 -3.1875 C 8.75 -2.125 8.222656 -1.269531 7.515625 -0.625 C 6.804688 0.0195312 5.957031 0.34375 4.96875 0.34375 C 3.945312 0.34375 3.085938 0.0078125 2.390625 -0.65625 C 1.691406 -1.332031 1.171875 -2.195312 0.828125 -3.25 C 0.492188 -4.300781 0.328125 -5.375 0.328125 -6.46875 Z M 4.953125 -11.125 C 4.316406 -11.125 3.800781 -10.675781 3.40625 -9.78125 C 3.007812 -8.882812 2.8125 -7.785156 2.8125 -6.484375 C 2.8125 -5.242188 3.007812 -4.160156 3.40625 -3.234375 C 3.800781 -2.316406 4.320312 -1.859375 4.96875 -1.859375 C 5.488281 -1.859375 5.910156 -2.113281 6.234375 -2.625 C 6.566406 -3.132812 6.800781 -3.742188 6.9375 -4.453125 C 7.070312 -5.160156 7.140625 -5.804688 7.140625 -6.390625 C 7.140625 -7.742188 6.945312 -8.867188 6.5625 -9.765625 C 6.175781 -10.671875 5.640625 -11.125 4.953125 -11.125 Z M 4.953125 -11.125 "/></g></g></g><g fill="#f8f2da" fill-opacity="1"><g transform="translate(95.083134, 16.110259)"><g/></g></g><g fill="#f8f2da" fill-opacity="1"><g transform="translate(100.055965, 16.110259)"><g><path d="M 4.171875 -13.328125 L 7.375 -4.765625 L 10.4375 -13.328125 L 12.265625 -13.328125 L 14.203125 0 L 11.65625 0 L 10.625 -8.0625 L 10.59375 -8.0625 L 7.640625 0.171875 L 6.765625 0.171875 L 3.921875 -8.0625 L 3.890625 -8.0625 L 2.734375 0 L 0.1875 0 L 2.375 -13.328125 Z M 4.171875 -13.328125 "/></g></g></g><g fill="#f8f2da" fill-opacity="1"><g transform="translate(114.441024, 16.110259)"><g><path d="M 0.28125 -4.21875 C 0.28125 -5.550781 0.695312 -6.632812 1.53125 -7.46875 C 2.375 -8.3125 3.4375 -8.734375 4.71875 -8.734375 C 6.03125 -8.734375 7.097656 -8.304688 7.921875 -7.453125 C 8.742188 -6.609375 9.15625 -5.53125 9.15625 -4.21875 C 9.15625 -2.894531 8.738281 -1.8125 7.90625 -0.96875 C 7.070312 -0.132812 6.007812 0.28125 4.71875 0.28125 C 3.414062 0.28125 2.347656 -0.140625 1.515625 -0.984375 C 0.691406 -1.828125 0.28125 -2.90625 0.28125 -4.21875 Z M 4.703125 -6.59375 C 4.160156 -6.59375 3.691406 -6.359375 3.296875 -5.890625 C 2.910156 -5.429688 2.71875 -4.875 2.71875 -4.21875 C 2.71875 -3.582031 2.910156 -3.03125 3.296875 -2.5625 C 3.691406 -2.09375 4.164062 -1.859375 4.71875 -1.859375 C 5.289062 -1.859375 5.765625 -2.09375 6.140625 -2.5625 C 6.523438 -3.03125 6.71875 -3.582031 6.71875 -4.21875 C 6.71875 -4.832031 6.53125 -5.378906 6.15625 -5.859375 C 5.78125 -6.347656 5.296875 -6.59375 4.703125 -6.59375 Z M 4.703125 -6.59375 "/></g></g></g><g fill="#f8f2da" fill-opacity="1"><g transform="translate(123.870469, 16.110259)"><g><path d="M 8.4375 0 L 6.03125 0 L 6.03125 -4.890625 C 6.03125 -5.503906 5.9375 -5.972656 5.75 -6.296875 C 5.5625 -6.628906 5.21875 -6.796875 4.71875 -6.796875 C 4.257812 -6.796875 3.898438 -6.613281 3.640625 -6.25 C 3.390625 -5.894531 3.265625 -5.269531 3.265625 -4.375 L 3.265625 0 L 0.859375 0 L 0.859375 -8.453125 L 3.265625 -8.453125 L 3.265625 -7.671875 L 3.3125 -7.671875 C 3.5625 -8.054688 3.878906 -8.328125 4.265625 -8.484375 C 4.660156 -8.648438 5.078125 -8.734375 5.515625 -8.734375 C 6.484375 -8.734375 7.210938 -8.4375 7.703125 -7.84375 C 8.191406 -7.25 8.4375 -6.378906 8.4375 -5.234375 Z M 8.4375 0 "/></g></g></g><g fill="#f8f2da" fill-opacity="1"><g transform="translate(133.162253, 16.110259)"><g><path d="M 8.875 -14.609375 L 8.875 0 L 6.453125 0 L 6.453125 -0.796875 L 6.421875 -0.796875 C 6.171875 -0.453125 5.835938 -0.1875 5.421875 0 C 5.003906 0.1875 4.582031 0.28125 4.15625 0.28125 C 3.039062 0.28125 2.113281 -0.15625 1.375 -1.03125 C 0.632812 -1.90625 0.265625 -2.984375 0.265625 -4.265625 C 0.265625 -5.492188 0.632812 -6.546875 1.375 -7.421875 C 2.113281 -8.296875 3.023438 -8.734375 4.109375 -8.734375 C 4.546875 -8.734375 4.972656 -8.640625 5.390625 -8.453125 C 5.816406 -8.265625 6.160156 -8.003906 6.421875 -7.671875 L 6.453125 -7.671875 L 6.453125 -14.609375 Z M 4.6875 -6.59375 C 4.144531 -6.59375 3.675781 -6.359375 3.28125 -5.890625 C 2.894531 -5.429688 2.703125 -4.878906 2.703125 -4.234375 C 2.703125 -3.578125 2.894531 -3.015625 3.28125 -2.546875 C 3.675781 -2.085938 4.148438 -1.859375 4.703125 -1.859375 C 5.273438 -1.859375 5.75 -2.097656 6.125 -2.578125 C 6.507812 -3.066406 6.703125 -3.617188 6.703125 -4.234375 C 6.703125 -4.878906 6.503906 -5.429688 6.109375 -5.890625 C 5.722656 -6.359375 5.25 -6.59375 4.6875 -6.59375 Z M 4.6875 -6.59375 "/></g></g></g><g fill="#f8f2da" fill-opacity="1"><g transform="translate(142.884213, 16.110259)"><g><path d="M 6.46875 -8.453125 L 8.84375 -8.453125 L 8.84375 0 L 6.46875 0 L 6.46875 -0.78125 L 6.4375 -0.78125 C 6.1875 -0.445312 5.847656 -0.1875 5.421875 0 C 5.003906 0.1875 4.582031 0.28125 4.15625 0.28125 C 3.039062 0.28125 2.113281 -0.15625 1.375 -1.03125 C 0.632812 -1.914062 0.265625 -2.992188 0.265625 -4.265625 C 0.265625 -5.054688 0.421875 -5.789062 0.734375 -6.46875 C 1.054688 -7.144531 1.515625 -7.691406 2.109375 -8.109375 C 2.703125 -8.523438 3.367188 -8.734375 4.109375 -8.734375 C 4.546875 -8.734375 4.972656 -8.640625 5.390625 -8.453125 C 5.816406 -8.265625 6.175781 -8 6.46875 -7.65625 Z M 4.6875 -6.59375 C 4.144531 -6.59375 3.675781 -6.359375 3.28125 -5.890625 C 2.894531 -5.429688 2.703125 -4.878906 2.703125 -4.234375 C 2.703125 -3.585938 2.894531 -3.03125 3.28125 -2.5625 C 3.675781 -2.09375 4.148438 -1.859375 4.703125 -1.859375 C 5.265625 -1.859375 5.738281 -2.085938 6.125 -2.546875 C 6.519531 -3.015625 6.71875 -3.578125 6.71875 -4.234375 C 6.71875 -4.890625 6.519531 -5.445312 6.125 -5.90625 C 5.726562 -6.363281 5.25 -6.59375 4.6875 -6.59375 Z M 4.6875 -6.59375 "/></g></g></g><g fill="#f8f2da" fill-opacity="1"><g transform="translate(152.606174, 16.110259)"><g><path d="M 2.421875 -8.453125 L 4.4375 -3.65625 L 6.609375 -8.453125 L 9.296875 -8.453125 L 3.15625 4.515625 L 0.5 4.515625 L 3.28125 -1.296875 L -0.3125 -8.453125 Z M 2.421875 -8.453125 "/></g></g></g><g fill="#f8f2da" fill-opacity="1"><g transform="translate(161.553825, 16.110259)"><g/></g></g><g fill="#f8f2da" fill-opacity="1"><g transform="translate(165.906958, 16.110259)"><g><path d="M 4.9375 -6.515625 L 4.9375 -4.53125 L 0.734375 -4.53125 L 0.734375 -6.515625 Z M 4.9375 -6.515625 "/></g></g></g><g fill="#f8f2da" fill-opacity="1"><g transform="translate(171.585275, 16.110259)"><g/></g></g><g fill="#f8f2da" fill-opacity="1"><g transform="translate(176.558106, 16.110259)"><g><path d="M 7.375 -12.984375 L 7.375 -10.78125 L 3.46875 -10.78125 L 3.46875 -7.921875 L 7.125 -7.921875 L 7.125 -5.71875 L 3.46875 -5.71875 L 3.46875 0 L 0.9375 0 L 0.9375 -12.984375 Z M 7.375 -12.984375 "/></g></g></g><g fill="#f8f2da" fill-opacity="1"><g transform="translate(184.215096, 16.110259)"><g><path d="M 6.109375 -6.28125 C 5.816406 -6.488281 5.484375 -6.59375 5.109375 -6.59375 C 4.492188 -6.59375 4.03125 -6.382812 3.71875 -5.96875 C 3.414062 -5.550781 3.265625 -4.859375 3.265625 -3.890625 L 3.265625 0 L 0.859375 0 L 0.859375 -8.453125 L 3.265625 -8.453125 L 3.265625 -7.578125 L 3.3125 -7.578125 C 3.550781 -7.941406 3.847656 -8.222656 4.203125 -8.421875 C 4.554688 -8.628906 4.957031 -8.734375 5.40625 -8.734375 C 5.738281 -8.722656 6.070312 -8.648438 6.40625 -8.515625 Z M 6.109375 -6.28125 "/></g></g></g><g fill="#f8f2da" fill-opacity="1"><g transform="translate(190.530073, 16.110259)"><g><path d="M 0.75 -12 C 0.75 -12.375 0.882812 -12.707031 1.15625 -13 C 1.4375 -13.289062 1.78125 -13.4375 2.1875 -13.4375 C 2.59375 -13.4375 2.929688 -13.289062 3.203125 -13 C 3.472656 -12.707031 3.609375 -12.375 3.609375 -12 C 3.609375 -11.601562 3.472656 -11.265625 3.203125 -10.984375 C 2.929688 -10.710938 2.59375 -10.578125 2.1875 -10.578125 C 1.78125 -10.578125 1.4375 -10.710938 1.15625 -10.984375 C 0.882812 -11.265625 0.75 -11.601562 0.75 -12 Z M 3.390625 -8.453125 L 3.390625 0 L 0.984375 0 L 0.984375 -8.453125 Z M 3.390625 -8.453125 "/></g></g></g><g fill="#f8f2da" fill-opacity="1"><g transform="translate(194.88345, 16.110259)"><g><path d="M 8.875 -14.609375 L 8.875 0 L 6.453125 0 L 6.453125 -0.796875 L 6.421875 -0.796875 C 6.171875 -0.453125 5.835938 -0.1875 5.421875 0 C 5.003906 0.1875 4.582031 0.28125 4.15625 0.28125 C 3.039062 0.28125 2.113281 -0.15625 1.375 -1.03125 C 0.632812 -1.90625 0.265625 -2.984375 0.265625 -4.265625 C 0.265625 -5.492188 0.632812 -6.546875 1.375 -7.421875 C 2.113281 -8.296875 3.023438 -8.734375 4.109375 -8.734375 C 4.546875 -8.734375 4.972656 -8.640625 5.390625 -8.453125 C 5.816406 -8.265625 6.160156 -8.003906 6.421875 -7.671875 L 6.453125 -7.671875 L 6.453125 -14.609375 Z M 4.6875 -6.59375 C 4.144531 -6.59375 3.675781 -6.359375 3.28125 -5.890625 C 2.894531 -5.429688 2.703125 -4.878906 2.703125 -4.234375 C 2.703125 -3.578125 2.894531 -3.015625 3.28125 -2.546875 C 3.675781 -2.085938 4.148438 -1.859375 4.703125 -1.859375 C 5.273438 -1.859375 5.75 -2.097656 6.125 -2.578125 C 6.507812 -3.066406 6.703125 -3.617188 6.703125 -4.234375 C 6.703125 -4.878906 6.503906 -5.429688 6.109375 -5.890625 C 5.722656 -6.359375 5.25 -6.59375 4.6875 -6.59375 Z M 4.6875 -6.59375 "/></g></g></g><g fill="#f8f2da" fill-opacity="1"><g transform="translate(204.60541, 16.110259)"><g><path d="M 6.46875 -8.453125 L 8.84375 -8.453125 L 8.84375 0 L 6.46875 0 L 6.46875 -0.78125 L 6.4375 -0.78125 C 6.1875 -0.445312 5.847656 -0.1875 5.421875 0 C 5.003906 0.1875 4.582031 0.28125 4.15625 0.28125 C 3.039062 0.28125 2.113281 -0.15625 1.375 -1.03125 C 0.632812 -1.914062 0.265625 -2.992188 0.265625 -4.265625 C 0.265625 -5.054688 0.421875 -5.789062 0.734375 -6.46875 C 1.054688 -7.144531 1.515625 -7.691406 2.109375 -8.109375 C 2.703125 -8.523438 3.367188 -8.734375 4.109375 -8.734375 C 4.546875 -8.734375 4.972656 -8.640625 5.390625 -8.453125 C 5.816406 -8.265625 6.175781 -8 6.46875 -7.65625 Z M 4.6875 -6.59375 C 4.144531 -6.59375 3.675781 -6.359375 3.28125 -5.890625 C 2.894531 -5.429688 2.703125 -4.878906 2.703125 -4.234375 C 2.703125 -3.585938 2.894531 -3.03125 3.28125 -2.5625 C 3.675781 -2.09375 4.148438 -1.859375 4.703125 -1.859375 C 5.265625 -1.859375 5.738281 -2.085938 6.125 -2.546875 C 6.519531 -3.015625 6.71875 -3.578125 6.71875 -4.234375 C 6.71875 -4.890625 6.519531 -5.445312 6.125 -5.90625 C 5.726562 -6.363281 5.25 -6.59375 4.6875 -6.59375 Z M 4.6875 -6.59375 "/></g></g></g><g fill="#f8f2da" fill-opacity="1"><g transform="translate(214.327371, 16.110259)"><g><path d="M 2.421875 -8.453125 L 4.4375 -3.65625 L 6.609375 -8.453125 L 9.296875 -8.453125 L 3.15625 4.515625 L 0.5 4.515625 L 3.28125 -1.296875 L -0.3125 -8.453125 Z M 2.421875 -8.453125 "/></g></g></g><g fill="#f8f2da" fill-opacity="1"><g transform="translate(223.27501, 16.110259)"><g/></g></g><g fill="#f8f2da" fill-opacity="1"><g transform="translate(228.247866, 16.110259)"><g><path d="M 5.640625 -13.53125 L 5.640625 3.6875 L 3.609375 3.6875 L 3.609375 -13.53125 Z M 5.640625 -13.53125 "/></g></g></g><g fill="#f8f2da" fill-opacity="1"><g transform="translate(237.505238, 16.110259)"><g/></g></g><g fill="#f8f2da" fill-opacity="1"><g transform="translate(242.478045, 16.110259)"><g><path d="M 7.078125 -6.765625 C 7.785156 -6.492188 8.3125 -6.0625 8.65625 -5.46875 C 9 -4.882812 9.171875 -4.21875 9.171875 -3.46875 C 9.171875 -2.757812 8.992188 -2.113281 8.640625 -1.53125 C 8.285156 -0.957031 7.78125 -0.5 7.125 -0.15625 C 6.46875 0.175781 5.75 0.34375 4.96875 0.34375 C 4.195312 0.34375 3.484375 0.175781 2.828125 -0.15625 C 2.171875 -0.5 1.664062 -0.957031 1.3125 -1.53125 C 0.957031 -2.113281 0.78125 -2.757812 0.78125 -3.46875 C 0.78125 -4.21875 0.953125 -4.882812 1.296875 -5.46875 C 1.640625 -6.050781 2.164062 -6.484375 2.875 -6.765625 C 2.320312 -7.054688 1.898438 -7.457031 1.609375 -7.96875 C 1.316406 -8.476562 1.171875 -9.03125 1.171875 -9.625 C 1.171875 -10.695312 1.535156 -11.582031 2.265625 -12.28125 C 2.992188 -12.976562 3.894531 -13.328125 4.96875 -13.328125 C 6.0625 -13.328125 6.96875 -12.976562 7.6875 -12.28125 C 8.414062 -11.59375 8.78125 -10.707031 8.78125 -9.625 C 8.78125 -9.03125 8.632812 -8.476562 8.34375 -7.96875 C 8.050781 -7.457031 7.628906 -7.054688 7.078125 -6.765625 Z M 4.953125 -11.4375 C 4.554688 -11.4375 4.210938 -11.253906 3.921875 -10.890625 C 3.628906 -10.523438 3.484375 -10.101562 3.484375 -9.625 C 3.484375 -9.164062 3.625 -8.742188 3.90625 -8.359375 C 4.1875 -7.984375 4.539062 -7.796875 4.96875 -7.796875 C 5.394531 -7.796875 5.75 -7.976562 6.03125 -8.34375 C 6.320312 -8.707031 6.46875 -9.132812 6.46875 -9.625 C 6.46875 -10.101562 6.320312 -10.523438 6.03125 -10.890625 C 5.75 -11.253906 5.390625 -11.4375 4.953125 -11.4375 Z M 4.953125 -5.734375 C 4.503906 -5.734375 4.117188 -5.535156 3.796875 -5.140625 C 3.484375 -4.742188 3.328125 -4.273438 3.328125 -3.734375 C 3.328125 -3.191406 3.484375 -2.722656 3.796875 -2.328125 C 4.109375 -1.941406 4.5 -1.75 4.96875 -1.75 C 5.445312 -1.75 5.84375 -1.941406 6.15625 -2.328125 C 6.46875 -2.722656 6.625 -3.191406 6.625 -3.734375 C 6.625 -4.273438 6.46875 -4.742188 6.15625 -5.140625 C 5.84375 -5.535156 5.441406 -5.734375 4.953125 -5.734375 Z M 4.953125 -5.734375 "/></g></g></g><g fill="#f8f2da" fill-opacity="1"><g transform="translate(252.423709, 16.110259)"><g><path d="M 2.5 -5.859375 C 2.070312 -5.859375 1.707031 -6.007812 1.40625 -6.3125 C 1.113281 -6.613281 0.96875 -6.976562 0.96875 -7.40625 C 0.96875 -7.832031 1.113281 -8.191406 1.40625 -8.484375 C 1.707031 -8.773438 2.070312 -8.921875 2.5 -8.921875 C 2.925781 -8.921875 3.285156 -8.773438 3.578125 -8.484375 C 3.878906 -8.191406 4.03125 -7.832031 4.03125 -7.40625 C 4.03125 -6.976562 3.878906 -6.613281 3.578125 -6.3125 C 3.285156 -6.007812 2.925781 -5.859375 2.5 -5.859375 Z M 2.5 0.34375 C 2.070312 0.34375 1.707031 0.191406 1.40625 -0.109375 C 1.113281 -0.410156 0.96875 -0.773438 0.96875 -1.203125 C 0.96875 -1.628906 1.113281 -1.988281 1.40625 -2.28125 C 1.707031 -2.570312 2.070312 -2.71875 2.5 -2.71875 C 2.925781 -2.71875 3.285156 -2.570312 3.578125 -2.28125 C 3.878906 -1.988281 4.03125 -1.628906 4.03125 -1.203125 C 4.03125 -0.773438 3.878906 -0.410156 3.578125 -0.109375 C 3.285156 0.191406 2.925781 0.34375 2.5 0.34375 Z M 2.5 0.34375 "/></g></g></g><g fill="#f8f2da" fill-opacity="1"><g transform="translate(257.396541, 16.110259)"><g><path d="M 0.328125 -6.46875 C 0.328125 -7.59375 0.5 -8.6875 0.84375 -9.75 C 1.1875 -10.8125 1.707031 -11.671875 2.40625 -12.328125 C 3.113281 -12.992188 3.96875 -13.328125 4.96875 -13.328125 C 5.976562 -13.328125 6.835938 -12.992188 7.546875 -12.328125 C 8.265625 -11.660156 8.789062 -10.804688 9.125 -9.765625 C 9.457031 -8.722656 9.625 -7.628906 9.625 -6.484375 C 9.625 -5.347656 9.445312 -4.25 9.09375 -3.1875 C 8.75 -2.125 8.222656 -1.269531 7.515625 -0.625 C 6.804688 0.0195312 5.957031 0.34375 4.96875 0.34375 C 3.945312 0.34375 3.085938 0.0078125 2.390625 -0.65625 C 1.691406 -1.332031 1.171875 -2.195312 0.828125 -3.25 C 0.492188 -4.300781 0.328125 -5.375 0.328125 -6.46875 Z M 4.953125 -11.125 C 4.316406 -11.125 3.800781 -10.675781 3.40625 -9.78125 C 3.007812 -8.882812 2.8125 -7.785156 2.8125 -6.484375 C 2.8125 -5.242188 3.007812 -4.160156 3.40625 -3.234375 C 3.800781 -2.316406 4.320312 -1.859375 4.96875 -1.859375 C 5.488281 -1.859375 5.910156 -2.113281 6.234375 -2.625 C 6.566406 -3.132812 6.800781 -3.742188 6.9375 -4.453125 C 7.070312 -5.160156 7.140625 -5.804688 7.140625 -6.390625 C 7.140625 -7.742188 6.945312 -8.867188 6.5625 -9.765625 C 6.175781 -10.671875 5.640625 -11.125 4.953125 -11.125 Z M 4.953125 -11.125 "/></g></g></g><g fill="#f8f2da" fill-opacity="1"><g transform="translate(267.34218, 16.110259)"><g><path d="M 0.328125 -6.46875 C 0.328125 -7.59375 0.5 -8.6875 0.84375 -9.75 C 1.1875 -10.8125 1.707031 -11.671875 2.40625 -12.328125 C 3.113281 -12.992188 3.96875 -13.328125 4.96875 -13.328125 C 5.976562 -13.328125 6.835938 -12.992188 7.546875 -12.328125 C 8.265625 -11.660156 8.789062 -10.804688 9.125 -9.765625 C 9.457031 -8.722656 9.625 -7.628906 9.625 -6.484375 C 9.625 -5.347656 9.445312 -4.25 9.09375 -3.1875 C 8.75 -2.125 8.222656 -1.269531 7.515625 -0.625 C 6.804688 0.0195312 5.957031 0.34375 4.96875 0.34375 C 3.945312 0.34375 3.085938 0.0078125 2.390625 -0.65625 C 1.691406 -1.332031 1.171875 -2.195312 0.828125 -3.25 C 0.492188 -4.300781 0.328125 -5.375 0.328125 -6.46875 Z M 4.953125 -11.125 C 4.316406 -11.125 3.800781 -10.675781 3.40625 -9.78125 C 3.007812 -8.882812 2.8125 -7.785156 2.8125 -6.484375 C 2.8125 -5.242188 3.007812 -4.160156 3.40625 -3.234375 C 3.800781 -2.316406 4.320312 -1.859375 4.96875 -1.859375 C 5.488281 -1.859375 5.910156 -2.113281 6.234375 -2.625 C 6.566406 -3.132812 6.800781 -3.742188 6.9375 -4.453125 C 7.070312 -5.160156 7.140625 -5.804688 7.140625 -6.390625 C 7.140625 -7.742188 6.945312 -8.867188 6.5625 -9.765625 C 6.175781 -10.671875 5.640625 -11.125 4.953125 -11.125 Z M 4.953125 -11.125 "/></g></g></g><g fill="#f8f2da" fill-opacity="1"><g transform="translate(277.287843, 16.110259)"><g/></g></g><g fill="#f8f2da" fill-opacity="1"><g transform="translate(281.640988, 16.110259)"><g><path d="M 4.9375 -6.515625 L 4.9375 -4.53125 L 0.734375 -4.53125 L 0.734375 -6.515625 Z M 4.9375 -6.515625 "/></g></g></g><g fill="#f8f2da" fill-opacity="1"><g transform="translate(287.319305, 16.110259)"><g/></g></g><g fill="#f8f2da" fill-opacity="1"><g transform="translate(292.292113, 16.110259)"><g><path d="M 6.734375 -12.984375 L 6.734375 0 L 4.203125 0 L 4.203125 -10.78125 L 2.5 -10.78125 L 2.5 -12.984375 Z M 6.734375 -12.984375 "/></g></g></g><g fill="#f8f2da" fill-opacity="1"><g transform="translate(302.237776, 16.110259)"><g><path d="M 7.25 -4.859375 C 7.21875 -4.804688 6.957031 -4.492188 6.46875 -3.921875 C 5.976562 -3.359375 5.476562 -2.785156 4.96875 -2.203125 L 9.234375 -2.203125 L 9.234375 0 L 0.484375 0 L 4.671875 -5.265625 C 5.171875 -5.890625 5.617188 -6.550781 6.015625 -7.25 C 6.410156 -7.957031 6.609375 -8.546875 6.609375 -9.015625 C 6.609375 -9.554688 6.445312 -10.039062 6.125 -10.46875 C 5.800781 -10.90625 5.40625 -11.125 4.9375 -11.125 C 4.476562 -11.125 4.097656 -10.921875 3.796875 -10.515625 C 3.492188 -10.109375 3.34375 -9.601562 3.34375 -9 L 3.34375 -8.90625 L 0.65625 -8.90625 C 0.769531 -10.3125 1.207031 -11.398438 1.96875 -12.171875 C 2.726562 -12.941406 3.710938 -13.328125 4.921875 -13.328125 C 5.703125 -13.328125 6.421875 -13.132812 7.078125 -12.75 C 7.734375 -12.375 8.238281 -11.867188 8.59375 -11.234375 C 8.957031 -10.597656 9.140625 -9.898438 9.140625 -9.140625 C 9.140625 -8.410156 8.988281 -7.71875 8.6875 -7.0625 C 8.394531 -6.40625 7.914062 -5.671875 7.25 -4.859375 Z M 7.25 -4.859375 "/></g></g></g><g fill="#f8f2da" fill-opacity="1"><g transform="translate(312.18344, 16.110259)"><g><path d="M 2.5 -5.859375 C 2.070312 -5.859375 1.707031 -6.007812 1.40625 -6.3125 C 1.113281 -6.613281 0.96875 -6.976562 0.96875 -7.40625 C 0.96875 -7.832031 1.113281 -8.191406 1.40625 -8.484375 C 1.707031 -8.773438 2.070312 -8.921875 2.5 -8.921875 C 2.925781 -8.921875 3.285156 -8.773438 3.578125 -8.484375 C 3.878906 -8.191406 4.03125 -7.832031 4.03125 -7.40625 C 4.03125 -6.976562 3.878906 -6.613281 3.578125 -6.3125 C 3.285156 -6.007812 2.925781 -5.859375 2.5 -5.859375 Z M 2.5 0.34375 C 2.070312 0.34375 1.707031 0.191406 1.40625 -0.109375 C 1.113281 -0.410156 0.96875 -0.773438 0.96875 -1.203125 C 0.96875 -1.628906 1.113281 -1.988281 1.40625 -2.28125 C 1.707031 -2.570312 2.070312 -2.71875 2.5 -2.71875 C 2.925781 -2.71875 3.285156 -2.570312 3.578125 -2.28125 C 3.878906 -1.988281 4.03125 -1.628906 4.03125 -1.203125 C 4.03125 -0.773438 3.878906 -0.410156 3.578125 -0.109375 C 3.285156 0.191406 2.925781 0.34375 2.5 0.34375 Z M 2.5 0.34375 "/></g></g></g><g fill="#f8f2da" fill-opacity="1"><g transform="translate(317.156247, 16.110259)"><g><path d="M 0.328125 -6.46875 C 0.328125 -7.59375 0.5 -8.6875 0.84375 -9.75 C 1.1875 -10.8125 1.707031 -11.671875 2.40625 -12.328125 C 3.113281 -12.992188 3.96875 -13.328125 4.96875 -13.328125 C 5.976562 -13.328125 6.835938 -12.992188 7.546875 -12.328125 C 8.265625 -11.660156 8.789062 -10.804688 9.125 -9.765625 C 9.457031 -8.722656 9.625 -7.628906 9.625 -6.484375 C 9.625 -5.347656 9.445312 -4.25 9.09375 -3.1875 C 8.75 -2.125 8.222656 -1.269531 7.515625 -0.625 C 6.804688 0.0195312 5.957031 0.34375 4.96875 0.34375 C 3.945312 0.34375 3.085938 0.0078125 2.390625 -0.65625 C 1.691406 -1.332031 1.171875 -2.195312 0.828125 -3.25 C 0.492188 -4.300781 0.328125 -5.375 0.328125 -6.46875 Z M 4.953125 -11.125 C 4.316406 -11.125 3.800781 -10.675781 3.40625 -9.78125 C 3.007812 -8.882812 2.8125 -7.785156 2.8125 -6.484375 C 2.8125 -5.242188 3.007812 -4.160156 3.40625 -3.234375 C 3.800781 -2.316406 4.320312 -1.859375 4.96875 -1.859375 C 5.488281 -1.859375 5.910156 -2.113281 6.234375 -2.625 C 6.566406 -3.132812 6.800781 -3.742188 6.9375 -4.453125 C 7.070312 -5.160156 7.140625 -5.804688 7.140625 -6.390625 C 7.140625 -7.742188 6.945312 -8.867188 6.5625 -9.765625 C 6.175781 -10.671875 5.640625 -11.125 4.953125 -11.125 Z M 4.953125 -11.125 "/></g></g></g><g fill="#f8f2da" fill-opacity="1"><g transform="translate(327.10191, 16.110259)"><g><path d="M 0.328125 -6.46875 C 0.328125 -7.59375 0.5 -8.6875 0.84375 -9.75 C 1.1875 -10.8125 1.707031 -11.671875 2.40625 -12.328125 C 3.113281 -12.992188 3.96875 -13.328125 4.96875 -13.328125 C 5.976562 -13.328125 6.835938 -12.992188 7.546875 -12.328125 C 8.265625 -11.660156 8.789062 -10.804688 9.125 -9.765625 C 9.457031 -8.722656 9.625 -7.628906 9.625 -6.484375 C 9.625 -5.347656 9.445312 -4.25 9.09375 -3.1875 C 8.75 -2.125 8.222656 -1.269531 7.515625 -0.625 C 6.804688 0.0195312 5.957031 0.34375 4.96875 0.34375 C 3.945312 0.34375 3.085938 0.0078125 2.390625 -0.65625 C 1.691406 -1.332031 1.171875 -2.195312 0.828125 -3.25 C 0.492188 -4.300781 0.328125 -5.375 0.328125 -6.46875 Z M 4.953125 -11.125 C 4.316406 -11.125 3.800781 -10.675781 3.40625 -9.78125 C 3.007812 -8.882812 2.8125 -7.785156 2.8125 -6.484375 C 2.8125 -5.242188 3.007812 -4.160156 3.40625 -3.234375 C 3.800781 -2.316406 4.320312 -1.859375 4.96875 -1.859375 C 5.488281 -1.859375 5.910156 -2.113281 6.234375 -2.625 C 6.566406 -3.132812 6.800781 -3.742188 6.9375 -4.453125 C 7.070312 -5.160156 7.140625 -5.804688 7.140625 -6.390625 C 7.140625 -7.742188 6.945312 -8.867188 6.5625 -9.765625 C 6.175781 -10.671875 5.640625 -11.125 4.953125 -11.125 Z M 4.953125 -11.125 "/></g></g></g><g fill="#f8f2da" fill-opacity="1"><g transform="translate(337.047574, 16.110259)"><g/></g></g><g fill="#f8f2da" fill-opacity="1"><g transform="translate(342.020381, 16.110259)"><g><path d="M 7.046875 -10.125 C 6.804688 -10.457031 6.523438 -10.71875 6.203125 -10.90625 C 5.890625 -11.09375 5.519531 -11.1875 5.09375 -11.1875 C 4.65625 -11.1875 4.28125 -11.039062 3.96875 -10.75 C 3.664062 -10.46875 3.515625 -10.128906 3.515625 -9.734375 C 3.515625 -9.359375 3.664062 -9.039062 3.96875 -8.78125 C 4.269531 -8.53125 4.722656 -8.289062 5.328125 -8.0625 C 6.359375 -7.632812 7.085938 -7.222656 7.515625 -6.828125 C 7.941406 -6.441406 8.238281 -6.023438 8.40625 -5.578125 C 8.570312 -5.128906 8.65625 -4.632812 8.65625 -4.09375 C 8.65625 -2.78125 8.265625 -1.710938 7.484375 -0.890625 C 6.703125 -0.0664062 5.671875 0.34375 4.390625 0.34375 C 3.492188 0.34375 2.710938 0.113281 2.046875 -0.34375 C 1.390625 -0.8125 0.835938 -1.425781 0.390625 -2.1875 L 2.03125 -3.78125 C 2.226562 -3.238281 2.546875 -2.785156 2.984375 -2.421875 C 3.421875 -2.066406 3.882812 -1.890625 4.375 -1.890625 C 4.851562 -1.890625 5.25 -2.0625 5.5625 -2.40625 C 5.882812 -2.757812 6.046875 -3.210938 6.046875 -3.765625 C 6.046875 -4.253906 5.894531 -4.640625 5.59375 -4.921875 C 5.289062 -5.210938 4.847656 -5.472656 4.265625 -5.703125 C 2.972656 -6.191406 2.085938 -6.710938 1.609375 -7.265625 C 1.128906 -7.816406 0.890625 -8.539062 0.890625 -9.4375 C 0.890625 -10.125 1.050781 -10.765625 1.375 -11.359375 C 1.695312 -11.960938 2.148438 -12.441406 2.734375 -12.796875 C 3.316406 -13.148438 3.96875 -13.328125 4.6875 -13.328125 C 5.3125 -13.328125 5.972656 -13.179688 6.671875 -12.890625 C 7.367188 -12.609375 7.890625 -12.269531 8.234375 -11.875 Z M 7.046875 -10.125 "/></g></g></g><g fill="#f8f2da" fill-opacity="1"><g transform="translate(351.071281, 16.110259)"><g><path d="M 6.46875 -8.453125 L 8.84375 -8.453125 L 8.84375 0 L 6.46875 0 L 6.46875 -0.78125 L 6.4375 -0.78125 C 6.1875 -0.445312 5.847656 -0.1875 5.421875 0 C 5.003906 0.1875 4.582031 0.28125 4.15625 0.28125 C 3.039062 0.28125 2.113281 -0.15625 1.375 -1.03125 C 0.632812 -1.914062 0.265625 -2.992188 0.265625 -4.265625 C 0.265625 -5.054688 0.421875 -5.789062 0.734375 -6.46875 C 1.054688 -7.144531 1.515625 -7.691406 2.109375 -8.109375 C 2.703125 -8.523438 3.367188 -8.734375 4.109375 -8.734375 C 4.546875 -8.734375 4.972656 -8.640625 5.390625 -8.453125 C 5.816406 -8.265625 6.175781 -8 6.46875 -7.65625 Z M 4.6875 -6.59375 C 4.144531 -6.59375 3.675781 -6.359375 3.28125 -5.890625 C 2.894531 -5.429688 2.703125 -4.878906 2.703125 -4.234375 C 2.703125 -3.585938 2.894531 -3.03125 3.28125 -2.5625 C 3.675781 -2.09375 4.148438 -1.859375 4.703125 -1.859375 C 5.265625 -1.859375 5.738281 -2.085938 6.125 -2.546875 C 6.519531 -3.015625 6.71875 -3.578125 6.71875 -4.234375 C 6.71875 -4.890625 6.519531 -5.445312 6.125 -5.90625 C 5.726562 -6.363281 5.25 -6.59375 4.6875 -6.59375 Z M 4.6875 -6.59375 "/></g></g></g><g fill="#f8f2da" fill-opacity="1"><g transform="translate(360.793253, 16.110259)"><g><path d="M 3.5625 -11.3125 L 3.5625 -8.453125 L 5.046875 -8.453125 L 5.046875 -6.421875 L 3.5625 -6.421875 L 3.5625 0 L 1.15625 0 L 1.15625 -6.421875 L 0.328125 -6.421875 L 0.328125 -8.453125 L 1.15625 -8.453125 L 1.15625 -11.3125 Z M 3.5625 -11.3125 "/></g></g></g><g fill="#f8f2da" fill-opacity="1"><g transform="translate(365.507958, 16.110259)"><g><path d="M 3.21875 -8.453125 L 3.21875 -3.8125 C 3.21875 -2.4375 3.675781 -1.75 4.59375 -1.75 C 5.507812 -1.75 5.96875 -2.4375 5.96875 -3.8125 L 5.96875 -8.453125 L 8.390625 -8.453125 L 8.390625 -3.40625 C 8.390625 -2.25 8.078125 -1.34375 7.453125 -0.6875 C 6.835938 -0.0390625 5.882812 0.28125 4.59375 0.28125 C 3.320312 0.28125 2.375 -0.046875 1.75 -0.703125 C 1.125 -1.359375 0.8125 -2.257812 0.8125 -3.40625 L 0.8125 -8.453125 Z M 3.21875 -8.453125 "/></g></g></g><g fill="#f8f2da" fill-opacity="1"><g transform="translate(374.7137, 16.110259)"><g><path d="M 6.109375 -6.28125 C 5.816406 -6.488281 5.484375 -6.59375 5.109375 -6.59375 C 4.492188 -6.59375 4.03125 -6.382812 3.71875 -5.96875 C 3.414062 -5.550781 3.265625 -4.859375 3.265625 -3.890625 L 3.265625 0 L 0.859375 0 L 0.859375 -8.453125 L 3.265625 -8.453125 L 3.265625 -7.578125 L 3.3125 -7.578125 C 3.550781 -7.941406 3.847656 -8.222656 4.203125 -8.421875 C 4.554688 -8.628906 4.957031 -8.734375 5.40625 -8.734375 C 5.738281 -8.722656 6.070312 -8.648438 6.40625 -8.515625 Z M 6.109375 -6.28125 "/></g></g></g><g fill="#f8f2da" fill-opacity="1"><g transform="translate(380.925392, 16.110259)"><g><path d="M 8.875 -14.609375 L 8.875 0 L 6.453125 0 L 6.453125 -0.796875 L 6.421875 -0.796875 C 6.171875 -0.453125 5.835938 -0.1875 5.421875 0 C 5.003906 0.1875 4.582031 0.28125 4.15625 0.28125 C 3.039062 0.28125 2.113281 -0.15625 1.375 -1.03125 C 0.632812 -1.90625 0.265625 -2.984375 0.265625 -4.265625 C 0.265625 -5.492188 0.632812 -6.546875 1.375 -7.421875 C 2.113281 -8.296875 3.023438 -8.734375 4.109375 -8.734375 C 4.546875 -8.734375 4.972656 -8.640625 5.390625 -8.453125 C 5.816406 -8.265625 6.160156 -8.003906 6.421875 -7.671875 L 6.453125 -7.671875 L 6.453125 -14.609375 Z M 4.6875 -6.59375 C 4.144531 -6.59375 3.675781 -6.359375 3.28125 -5.890625 C 2.894531 -5.429688 2.703125 -4.878906 2.703125 -4.234375 C 2.703125 -3.578125 2.894531 -3.015625 3.28125 -2.546875 C 3.675781 -2.085938 4.148438 -1.859375 4.703125 -1.859375 C 5.273438 -1.859375 5.75 -2.097656 6.125 -2.578125 C 6.507812 -3.066406 6.703125 -3.617188 6.703125 -4.234375 C 6.703125 -4.878906 6.503906 -5.429688 6.109375 -5.890625 C 5.722656 -6.359375 5.25 -6.59375 4.6875 -6.59375 Z M 4.6875 -6.59375 "/></g></g></g><g fill="#f8f2da" fill-opacity="1"><g transform="translate(390.647364, 16.110259)"><g><path d="M 6.46875 -8.453125 L 8.84375 -8.453125 L 8.84375 0 L 6.46875 0 L 6.46875 -0.78125 L 6.4375 -0.78125 C 6.1875 -0.445312 5.847656 -0.1875 5.421875 0 C 5.003906 0.1875 4.582031 0.28125 4.15625 0.28125 C 3.039062 0.28125 2.113281 -0.15625 1.375 -1.03125 C 0.632812 -1.914062 0.265625 -2.992188 0.265625 -4.265625 C 0.265625 -5.054688 0.421875 -5.789062 0.734375 -6.46875 C 1.054688 -7.144531 1.515625 -7.691406 2.109375 -8.109375 C 2.703125 -8.523438 3.367188 -8.734375 4.109375 -8.734375 C 4.546875 -8.734375 4.972656 -8.640625 5.390625 -8.453125 C 5.816406 -8.265625 6.175781 -8 6.46875 -7.65625 Z M 4.6875 -6.59375 C 4.144531 -6.59375 3.675781 -6.359375 3.28125 -5.890625 C 2.894531 -5.429688 2.703125 -4.878906 2.703125 -4.234375 C 2.703125 -3.585938 2.894531 -3.03125 3.28125 -2.5625 C 3.675781 -2.09375 4.148438 -1.859375 4.703125 -1.859375 C 5.265625 -1.859375 5.738281 -2.085938 6.125 -2.546875 C 6.519531 -3.015625 6.71875 -3.578125 6.71875 -4.234375 C 6.71875 -4.890625 6.519531 -5.445312 6.125 -5.90625 C 5.726562 -6.363281 5.25 -6.59375 4.6875 -6.59375 Z M 4.6875 -6.59375 "/></g></g></g><g fill="#f8f2da" fill-opacity="1"><g transform="translate(400.369337, 16.110259)"><g><path d="M 2.421875 -8.453125 L 4.4375 -3.65625 L 6.609375 -8.453125 L 9.296875 -8.453125 L 3.15625 4.515625 L 0.5 4.515625 L 3.28125 -1.296875 L -0.3125 -8.453125 Z M 2.421875 -8.453125 "/></g></g></g></g></g><path fill="#f8f2da" d="M 18.972656 7.457031 C 18.507812 7.457031 18.050781 7.503906 17.597656 7.59375 C 17.140625 7.683594 16.699219 7.816406 16.273438 7.996094 C 15.84375 8.171875 15.4375 8.390625 15.054688 8.648438 C 14.667969 8.902344 14.3125 9.195312 13.984375 9.523438 C 13.65625 9.851562 13.363281 10.207031 13.105469 10.59375 C 12.847656 10.980469 12.632812 11.386719 12.453125 11.8125 C 12.277344 12.242188 12.144531 12.683594 12.050781 13.136719 C 11.960938 13.589844 11.917969 14.050781 11.917969 14.511719 C 11.917969 14.976562 11.960938 15.4375 12.050781 15.890625 C 12.144531 16.34375 12.277344 16.785156 12.453125 17.214844 C 12.632812 17.640625 12.847656 18.046875 13.105469 18.433594 C 13.363281 18.820312 13.65625 19.175781 13.984375 19.503906 C 14.3125 19.832031 14.667969 20.125 15.054688 20.378906 C 15.4375 20.636719 15.84375 20.855469 16.273438 21.03125 C 16.699219 21.210938 17.140625 21.34375 17.597656 21.433594 C 18.050781 21.523438 18.507812 21.570312 18.972656 21.570312 C 19.4375 21.570312 19.894531 21.523438 20.347656 21.433594 C 20.804688 21.34375 21.246094 21.210938 21.671875 21.03125 C 22.101562 20.855469 22.507812 20.636719 22.894531 20.378906 C 23.277344 20.125 23.636719 19.832031 23.960938 19.503906 C 24.289062 19.175781 24.582031 18.820312 24.839844 18.433594 C 25.097656 18.046875 25.316406 17.640625 25.492188 17.214844 C 25.667969 16.785156 25.804688 16.34375 25.894531 15.890625 C 25.984375 15.4375 26.027344 14.976562 26.027344 14.511719 C 26.027344 14.050781 25.984375 13.59375 25.890625 13.136719 C 25.800781 12.683594 25.667969 12.242188 25.488281 11.816406 C 25.3125 11.386719 25.09375 10.980469 24.835938 10.59375 C 24.578125 10.210938 24.289062 9.855469 23.960938 9.527344 C 23.632812 9.199219 23.277344 8.90625 22.890625 8.648438 C 22.507812 8.390625 22.101562 8.175781 21.671875 7.996094 C 21.246094 7.820312 20.804688 7.683594 20.347656 7.59375 C 19.894531 7.503906 19.4375 7.457031 18.972656 7.457031 Z M 21.351562 16.890625 C 21.226562 17.015625 21.074219 17.078125 20.898438 17.078125 C 20.71875 17.078125 20.570312 17.015625 20.445312 16.890625 L 18.519531 14.96875 C 18.394531 14.84375 18.332031 14.691406 18.332031 14.511719 L 18.332031 10.023438 C 18.332031 9.847656 18.394531 9.695312 18.519531 9.570312 C 18.644531 9.445312 18.796875 9.382812 18.972656 9.382812 C 19.148438 9.382812 19.300781 9.445312 19.425781 9.570312 C 19.550781 9.695312 19.613281 9.847656 19.613281 10.023438 L 19.613281 14.246094 L 21.351562 15.984375 C 21.476562 16.109375 21.539062 16.261719 21.539062 16.4375 C 21.539062 16.613281 21.476562 16.765625 21.351562 16.890625 Z M 21.351562 16.890625 " fill-opacity="1" fill-rule="nonzero"/><g clip-path="url(#bd15b3c560)"><path fill="#f8f2da" d="M 18.972656 4.25 C 18.300781 4.25 17.632812 4.316406 16.972656 4.449219 C 16.308594 4.578125 15.667969 4.773438 15.046875 5.03125 C 14.421875 5.289062 13.832031 5.605469 13.269531 5.980469 C 12.710938 6.355469 12.191406 6.78125 11.714844 7.257812 C 11.238281 7.734375 10.8125 8.25 10.4375 8.8125 C 10.066406 9.371094 9.75 9.964844 9.492188 10.585938 C 9.234375 11.207031 9.039062 11.851562 8.90625 12.511719 C 8.777344 13.171875 8.710938 13.839844 8.710938 14.511719 C 8.710938 15.1875 8.777344 15.855469 8.90625 16.515625 C 9.039062 17.175781 9.234375 17.820312 9.492188 18.441406 C 9.75 19.0625 10.066406 19.65625 10.4375 20.214844 C 10.8125 20.777344 11.238281 21.292969 11.714844 21.769531 C 12.191406 22.246094 12.710938 22.671875 13.269531 23.046875 C 13.832031 23.421875 14.421875 23.738281 15.046875 23.996094 C 15.667969 24.253906 16.308594 24.449219 16.972656 24.578125 C 17.632812 24.710938 18.300781 24.777344 18.972656 24.777344 C 19.648438 24.777344 20.3125 24.710938 20.976562 24.578125 C 21.636719 24.449219 22.277344 24.253906 22.902344 23.996094 C 23.523438 23.738281 24.113281 23.421875 24.675781 23.046875 C 25.234375 22.671875 25.753906 22.246094 26.230469 21.769531 C 26.707031 21.292969 27.132812 20.777344 27.507812 20.214844 C 27.882812 19.65625 28.195312 19.0625 28.457031 18.441406 C 28.714844 17.820312 28.90625 17.175781 29.039062 16.515625 C 29.171875 15.855469 29.238281 15.1875 29.238281 14.511719 C 29.234375 13.839844 29.167969 13.171875 29.039062 12.511719 C 28.90625 11.851562 28.710938 11.210938 28.453125 10.585938 C 28.195312 9.964844 27.878906 9.375 27.503906 8.8125 C 27.128906 8.253906 26.703125 7.734375 26.226562 7.261719 C 25.75 6.785156 25.230469 6.359375 24.671875 5.984375 C 24.113281 5.609375 23.519531 5.292969 22.898438 5.035156 C 22.277344 4.777344 21.636719 4.582031 20.972656 4.449219 C 20.3125 4.316406 19.648438 4.25 18.972656 4.25 Z M 18.972656 22.851562 C 18.425781 22.851562 17.882812 22.800781 17.347656 22.691406 C 16.808594 22.585938 16.289062 22.425781 15.78125 22.21875 C 15.277344 22.007812 14.796875 21.75 14.339844 21.445312 C 13.886719 21.144531 13.464844 20.796875 13.078125 20.410156 C 12.6875 20.023438 12.34375 19.601562 12.039062 19.148438 C 11.734375 18.691406 11.476562 18.210938 11.269531 17.703125 C 11.058594 17.199219 10.902344 16.675781 10.792969 16.140625 C 10.6875 15.601562 10.632812 15.0625 10.632812 14.511719 C 10.632812 13.964844 10.6875 13.421875 10.792969 12.886719 C 10.902344 12.351562 11.058594 11.828125 11.269531 11.324219 C 11.476562 10.816406 11.734375 10.335938 12.039062 9.878906 C 12.34375 9.425781 12.6875 9.003906 13.078125 8.617188 C 13.464844 8.230469 13.886719 7.882812 14.339844 7.578125 C 14.796875 7.277344 15.277344 7.019531 15.78125 6.808594 C 16.289062 6.601562 16.808594 6.441406 17.347656 6.335938 C 17.882812 6.226562 18.425781 6.175781 18.972656 6.175781 C 19.519531 6.175781 20.0625 6.226562 20.601562 6.335938 C 21.136719 6.441406 21.660156 6.601562 22.164062 6.808594 C 22.671875 7.019531 23.152344 7.277344 23.605469 7.578125 C 24.0625 7.882812 24.480469 8.230469 24.871094 8.617188 C 25.257812 9.003906 25.601562 9.425781 25.90625 9.878906 C 26.210938 10.335938 26.46875 10.816406 26.675781 11.324219 C 26.886719 11.828125 27.046875 12.351562 27.152344 12.886719 C 27.257812 13.421875 27.3125 13.964844 27.3125 14.511719 C 27.3125 15.0625 27.257812 15.601562 27.148438 16.140625 C 27.042969 16.675781 26.882812 17.199219 26.675781 17.703125 C 26.464844 18.207031 26.207031 18.6875 25.902344 19.144531 C 25.597656 19.597656 25.253906 20.019531 24.867188 20.40625 C 24.480469 20.792969 24.058594 21.140625 23.605469 21.445312 C 23.148438 21.75 22.667969 22.003906 22.164062 22.214844 C 21.65625 22.425781 21.136719 22.582031 20.597656 22.691406 C 20.0625 22.796875 19.519531 22.851562 18.972656 22.851562 Z M 18.972656 22.851562 " fill-opacity="1" fill-rule="nonzero"/></g></svg>